<svg width="22" height="22" viewBox="0 0 22 22" fill="none" xmlns="http://www.w3.org/2000/svg">
<path d="M9.65346 1.78362L9.65531 1.78177L10.7393 0.69779C11.0041 0.433017 11.4282 0.43575 11.6856 0.695899L11.6876 0.697881L21.1796 10.1851C21.1797 10.1851 21.1797 10.1851 21.1797 10.1852C21.4444 10.4499 21.4417 10.874 21.1815 11.1314L21.1796 11.1333L11.6875 20.6255C11.4227 20.8902 10.9986 20.8875 10.7412 20.6273L10.7393 20.6255L9.65531 19.5415C9.39082 19.277 9.39494 18.8429 9.66678 18.5817C9.66696 18.5815 9.66714 18.5813 9.66732 18.5811L15.55 12.9768L16.4548 12.1147L15.2051 12.1147L1.17187 12.1147C0.798603 12.1147 0.5 11.8161 0.5 11.4429L0.499999 9.88037C0.499999 9.5071 0.798603 9.2085 1.17187 9.2085L15.2051 9.20849L16.4548 9.20849L15.55 8.34648L9.66618 2.74101L9.66547 2.74034C9.39062 2.47952 9.38643 2.04786 9.65346 1.78362Z" fill="#F0A6CA" stroke="#554348"/>
</svg>
