<svg width="25" height="22" viewBox="0 0 25 22" fill="none" xmlns="http://www.w3.org/2000/svg">
<path d="M6.64062 3.625H6.9875L7.10896 3.30009L7.70948 1.69384C7.70949 1.6938 7.70951 1.69377 7.70952 1.69373C7.70953 1.6937 7.70954 1.69368 7.70955 1.69365C7.97815 0.976355 8.66521 0.5 9.43359 0.5H15.5615C16.33 0.5 17.0171 0.976441 17.2856 1.69384L17.286 1.6949L17.8915 3.30134L18.0135 3.625H18.3594H22.6562C23.6741 3.625 24.5 4.45095 24.5 5.46875V19.5312C24.5 20.5491 23.6741 21.375 22.6562 21.375H2.34375C1.32595 21.375 0.5 20.5491 0.5 19.5312V5.46875C0.5 4.45095 1.32595 3.625 2.34375 3.625H6.64062ZM18.8594 12.5C18.8594 8.99144 16.0086 6.14062 12.5 6.14062C8.99144 6.14062 6.14062 8.99144 6.14062 12.5C6.14062 16.0086 8.99144 18.8594 12.5 18.8594C16.0086 18.8594 18.8594 16.0086 18.8594 12.5ZM16.2969 12.5C16.2969 14.592 14.592 16.2969 12.5 16.2969C10.408 16.2969 8.70312 14.592 8.70312 12.5C8.70312 10.408 10.408 8.70312 12.5 8.70312C14.592 8.70312 16.2969 10.408 16.2969 12.5Z" fill="#F0A6CA" stroke="#554348"/>
</svg>
