<?xml version="1.0" encoding="UTF-8" standalone="no"?>
<!DOCTYPE svg PUBLIC "-//W3C//DTD SVG 1.1//EN" "http://www.w3.org/Graphics/SVG/1.1/DTD/svg11.dtd">
<svg width="100%" height="100%" viewBox="0 0 30 21" version="1.1" xmlns="http://www.w3.org/2000/svg" xmlns:xlink="http://www.w3.org/1999/xlink" xml:space="preserve" xmlns:serif="http://www.serif.com/" style="fill-rule:evenodd;clip-rule:evenodd;">
    <path d="M10.558,9.9C10.98,10.077 11.44,10.153 11.902,10.116C12.622,10.059 13.295,9.733 13.799,9.203C14.302,8.675 14.605,7.978 14.658,7.242C14.694,6.746 14.615,6.251 14.432,5.798C14.621,5.769 14.813,5.753 15.004,5.75C15.936,5.748 16.848,6.053 17.611,6.625C18.375,7.198 18.953,8.012 19.258,8.954C19.564,9.896 19.581,10.916 19.305,11.868C19.031,12.821 18.479,13.655 17.733,14.255C16.988,14.855 16.085,15.193 15.153,15.224C14.22,15.255 13.3,14.978 12.521,14.429C11.741,13.88 11.141,13.085 10.81,12.153C10.553,11.432 10.468,10.658 10.558,9.9Z" style="fill:rgb(240,166,202);stroke:rgb(85,67,72);stroke-width:1px;"/>
    <path d="M10.558,9.9C10.468,10.658 10.553,11.432 10.81,12.153C11.141,13.085 11.741,13.88 12.521,14.429C13.3,14.978 14.22,15.255 15.153,15.224C16.085,15.193 16.988,14.855 17.733,14.255C18.479,13.655 19.031,12.821 19.305,11.868C19.581,10.916 19.564,9.896 19.258,8.954C18.953,8.012 18.375,7.198 17.611,6.625C16.848,6.053 15.936,5.748 15.004,5.75C14.813,5.753 14.621,5.769 14.432,5.798C14.615,6.251 14.694,6.746 14.658,7.242C14.605,7.978 14.302,8.675 13.799,9.203C13.295,9.733 12.622,10.059 11.902,10.116C11.44,10.153 10.98,10.077 10.558,9.9Z" style="fill:rgb(240,166,202);stroke:rgb(85,67,72);stroke-width:1px;"/>
    <path d="M15,0.5C21.188,0.5 26.617,4.284 29.369,9.92C29.455,10.099 29.5,10.297 29.5,10.5C29.5,10.702 29.455,10.901 29.369,11.08C26.619,16.713 21.188,20.5 15,20.5C8.812,20.5 3.383,16.716 0.631,11.08C0.545,10.902 0.5,10.703 0.5,10.5C0.5,10.298 0.545,10.099 0.631,9.92C3.381,4.287 8.812,0.5 15,0.5ZM15,18.875C16.054,18.876 17.097,18.658 18.07,18.235C19.043,17.812 19.925,17.193 20.666,16.414C21.408,15.636 21.995,14.712 22.395,13.698C22.795,12.683 23.001,11.597 23,10.5C23,8.849 22.534,7.233 21.658,5.856C20.782,4.48 19.534,3.403 18.07,2.766C16.605,2.129 14.991,1.962 13.435,2.287C11.878,2.612 10.452,3.414 9.335,4.587C8.218,5.759 7.46,7.251 7.153,8.871C6.846,10.491 7.003,12.17 7.606,13.697C8.208,15.225 9.23,16.534 10.546,17.457C11.862,18.38 13.412,18.875 15,18.875Z" style="fill:rgb(240,166,202);stroke:rgb(85,67,72);stroke-width:1px;"/>
</svg>
