<svg width="22" height="23" viewBox="0 0 22 23" fill="none" xmlns="http://www.w3.org/2000/svg">
<path d="M19.8167 10.3764L19.8186 10.3782L20.9026 11.4622C21.1673 11.727 21.1646 12.1511 20.9044 12.4085L20.9025 12.4105L11.4152 21.9025C11.4152 21.9026 11.4152 21.9026 11.4152 21.9026C11.1504 22.1673 10.7263 22.1646 10.469 21.9044L10.4671 21.9025L0.974891 12.4104C0.710118 12.1456 0.712852 11.7215 0.973001 11.4641L0.974891 11.4622L2.05888 10.3782C2.32337 10.1137 2.75748 10.1178 3.01869 10.3897C3.01886 10.3899 3.01904 10.39 3.01921 10.3902L8.62358 16.2729L9.4856 17.1777V15.928L9.4856 1.89478C9.4856 1.5215 9.7842 1.2229 10.1575 1.2229L11.72 1.2229C12.0932 1.2229 12.3918 1.5215 12.3918 1.89478L12.3918 15.928V17.1777L13.2539 16.2729L18.8593 10.3891L18.86 10.3884C19.1208 10.1135 19.5525 10.1093 19.8167 10.3764Z" fill="#F0A6CA" stroke="#554348"/>
</svg>
