<svg width="25" height="25" viewBox="0 0 25 25" fill="none" xmlns="http://www.w3.org/2000/svg">
<path d="M4.02435 14.2899L4.03691 14.2857L4.04924 14.2808L7.84932 12.786L12.2141 17.1508L10.7193 20.9508L10.7144 20.9633L10.7102 20.9759C10.6581 21.1324 10.5702 21.2746 10.4536 21.3912C10.337 21.5078 10.1948 21.5957 10.0383 21.6478L10.0382 21.6478L2.72818 24.0845L6.02282 20.7898C6.09437 20.803 6.17274 20.8126 6.25049 20.8126C7.38942 20.8126 8.31299 19.889 8.31299 18.7501C8.31299 17.6112 7.38942 16.6876 6.25049 16.6876C5.11155 16.6876 4.18799 17.6112 4.18799 18.7501C4.18799 18.8278 4.1976 18.9062 4.21073 18.9778L0.915119 22.2734L3.35226 14.9619C3.35227 14.9619 3.35227 14.9619 3.35227 14.9619C3.40445 14.8054 3.49234 14.6632 3.60898 14.5466C3.72564 14.4299 3.86784 14.342 4.02435 14.2899ZM18.3981 1.72101L18.3982 1.72107L18.4044 1.71404C19.2191 0.792412 20.1384 0.465909 20.9972 0.502779C21.8718 0.540332 22.7303 0.957858 23.3847 1.60878C24.039 2.2597 24.459 3.11389 24.4971 3.98591C24.5345 4.84193 24.207 5.76315 23.2763 6.58593L23.2762 6.58586L23.2693 6.59219L13.8815 15.2092L9.78116 11.1088L18.3981 1.72101Z" fill="#F0A6CA" stroke="#554348"/>
</svg>
