<?xml version="1.0" encoding="UTF-8" standalone="no"?>
<!DOCTYPE svg PUBLIC "-//W3C//DTD SVG 1.1//EN" "http://www.w3.org/Graphics/SVG/1.1/DTD/svg11.dtd">
<svg width="100%" height="100%" viewBox="0 0 31 26" version="1.1" xmlns="http://www.w3.org/2000/svg" xmlns:xlink="http://www.w3.org/1999/xlink" xml:space="preserve" xmlns:serif="http://www.serif.com/" style="fill-rule:evenodd;clip-rule:evenodd;stroke-linejoin:round;stroke-miterlimit:2;">
    <g>
        <g transform="matrix(1,0,0,1,1.11881,1.33342)">
            <path d="M25.971,1.639C22.892,-0.86 18.314,-0.41 15.488,2.367L14.382,3.453L13.275,2.367C10.455,-0.41 5.871,-0.86 2.793,1.639C-0.735,4.507 -0.921,9.653 2.236,12.762L13.106,23.451C13.809,24.141 14.949,24.141 15.651,23.451L26.521,12.762C29.684,9.653 29.498,4.507 25.971,1.639Z" style="fill:rgb(240,166,202);fill-rule:nonzero;"/>
        </g>
        <g transform="matrix(1,0,0,1,1.11881,1.01566)">
            <path d="M25.971,1.639C22.892,-0.86 18.314,-0.41 15.488,2.367L14.382,3.453L13.275,2.367C10.455,-0.41 5.871,-0.86 2.793,1.639C-0.735,4.507 -0.921,9.653 2.236,12.762L13.106,23.451C13.809,24.141 14.949,24.141 15.651,23.451L26.521,12.762C29.684,9.653 29.498,4.507 25.971,1.639Z" style="fill:rgb(240,166,202);fill-rule:nonzero;stroke:rgb(85,67,72);stroke-width:1.5px;"/>
        </g>
    </g>
</svg>
