<svg width="20" height="20" viewBox="0 0 20 20" fill="none" xmlns="http://www.w3.org/2000/svg">
<path d="M12.849 19.0226V19.0216V13.3022C12.849 12.9701 12.7345 12.6434 12.5188 12.3958C12.3018 12.1466 11.9963 11.9954 11.6656 11.9954H8.33229C8.00161 11.9954 7.69609 12.1466 7.4791 12.3958C7.26345 12.6434 7.14896 12.9701 7.14896 13.3022V19.0258C7.14896 19.2006 7.08826 19.3603 6.99185 19.4715C6.89683 19.5812 6.77902 19.6319 6.66808 19.6327C6.66798 19.6327 6.66788 19.6327 6.66778 19.6327L0.833333 19.65C0.833219 19.65 0.833104 19.65 0.832989 19.65C0.721736 19.6499 0.603481 19.5995 0.508011 19.4899C0.411104 19.3786 0.35 19.2185 0.35 19.0432V9.39302L9.84146 0.417257C9.89364 0.36943 9.95029 0.35 10.001 0.35C10.0518 0.35 10.1085 0.369441 10.1607 0.417293C10.161 0.417625 10.1614 0.417958 10.1617 0.418292L19.65 9.3865V19.0432C19.65 19.2185 19.5889 19.3786 19.492 19.4899C19.3965 19.5995 19.2783 19.6499 19.1671 19.65C19.167 19.65 19.1668 19.65 19.1667 19.65L13.3334 19.6315H13.3323C13.276 19.6315 13.2187 19.6188 13.1634 19.5924C13.1078 19.5659 13.054 19.5255 13.0064 19.4707C12.9588 19.4158 12.9189 19.3482 12.8911 19.2707C12.8633 19.1931 12.8487 19.1087 12.849 19.0226Z" fill="#F0A6CA" stroke="black" stroke-width="0.7"/>
</svg>
