<svg width="34" height="34" viewBox="0 0 34 34" fill="none" xmlns="http://www.w3.org/2000/svg">
<path d="M19.479 24.556L19.4786 24.5562L13.1854 27.6287L9.77833 24.2217C9.07136 23.5147 7.92894 23.5207 7.22101 24.2174C6.50486 24.9222 6.50404 26.0792 7.21852 26.785C7.21935 26.7858 7.22018 26.7867 7.22101 26.7875L9.74094 29.3074L1.81375 33.1761C1.81363 33.1762 1.8135 33.1762 1.81338 33.1763C1.44565 33.3549 1.00021 33.1998 0.824228 32.8391C0.722445 32.6285 0.728119 32.3852 0.824229 32.1856C0.824397 32.1852 0.824564 32.1849 0.824732 32.1845L8.87016 15.6854L11.4605 18.2758C11.8104 18.6257 12.2749 18.8076 12.7413 18.8076C13.2068 18.8076 13.6704 18.6264 14.02 18.2779C14.7372 17.5698 14.7303 16.4224 14.0221 15.7142L10.8597 12.5518C13.0607 10.3271 16.5074 9.6285 19.4722 11.0743C23.1974 12.8917 24.7432 17.3837 22.9257 21.1092C22.1648 22.667 20.9277 23.8498 19.479 24.556ZM25.2412 7.75836L24.321 9.67901L26.2416 8.7588C28.4471 7.70213 31.046 8.1134 32.9914 10.095C31.8116 11.2971 30.3967 11.9061 28.991 11.9713C27.4084 12.0447 25.7789 11.4317 24.4434 10.0902L24.4422 10.0891L23.9109 9.55775L23.9098 9.55656C22.5681 8.22095 21.9553 6.59302 22.0287 5.01156C22.0939 3.60662 22.7029 2.19153 23.9055 1.00907C25.8867 2.95441 26.2978 5.5531 25.2412 7.75836Z" stroke="#433064" stroke-width="1.5"/>
</svg>
