<?xml version="1.0" encoding="UTF-8" standalone="no"?>
<!DOCTYPE svg PUBLIC "-//W3C//DTD SVG 1.1//EN" "http://www.w3.org/Graphics/SVG/1.1/DTD/svg11.dtd">
<svg width="100%" height="100%" viewBox="0 0 193 210" version="1.1" xmlns="http://www.w3.org/2000/svg" xmlns:xlink="http://www.w3.org/1999/xlink" xml:space="preserve" xmlns:serif="http://www.serif.com/" style="fill-rule:evenodd;clip-rule:evenodd;stroke-linejoin:round;stroke-miterlimit:2;">
    <g transform="matrix(1,0,0,1,-696,-557)">
        <g id="BACKGROUND">
        </g>
        <g id="OBJECTS">
        </g>
        <g id="Mesa-de-trabajo6" serif:id="Mesa de trabajo6" transform="matrix(1,0,0,1,-0.10149,0)">
            <rect x="696.101" y="557" width="192.833" height="209.848" style="fill:none;"/>
            <g transform="matrix(1,0,0,1,-66.5034,299.859)">
                <path d="M937.915,387.87C937.474,389.21 936.257,391.522 936.241,391.529C936.23,391.55 936.05,391.773 935.828,392.038C935.065,392.959 932.876,394.924 932.293,395.454C929.92,397.615 927.818,398.776 925.128,400.301C924.492,400.661 924.058,400.926 924.174,400.884C925.38,400.448 919.131,402.748 919.11,402.748C918.824,402.897 915.953,403.543 914.481,403.808C912.86,404.083 912.15,404.147 910.391,404.189C907.828,404.253 906.779,404.115 904.734,403.458C903.982,403.214 903.336,403.045 903.304,403.077C903.272,403.108 903.622,404.581 904.088,406.35C905.031,409.973 905.38,411.467 905.677,413.226C905.899,414.508 906.196,417.018 906.238,417.972L906.27,418.533C906.27,418.533 905.683,422.96 905.635,423.184C905.391,424.339 904.469,426.098 903.293,427.665C901.598,429.933 898.494,432.284 895.803,433.354C893.165,434.403 888.26,435.134 885.792,434.848C884.351,434.679 882.328,434.255 880.898,433.831C880.23,433.63 879.128,433.365 878.461,433.248C876.067,432.814 872.581,431.755 871.204,431.034C870.801,430.822 870.431,430.642 870.388,430.621C870.356,430.6 870.293,430.695 870.251,430.833C870.123,431.246 869.467,431.839 868.81,432.136C868.174,432.422 863.661,433.577 861.616,433.979C855.927,435.102 851.563,435.145 846.308,434.138C839.623,432.846 836.805,431.225 833.977,426.998C831.72,423.619 830.671,420.26 830.502,415.843L830.438,414.169L830.735,410.609L830.82,410.09C831.063,408.501 831.529,406.329 832.282,403.225C833.108,399.846 834.083,395.227 834.231,394.019L834.305,393.415L830.756,393.415C825.205,393.415 821.942,393.171 817.651,392.451C814.179,391.868 811.122,391.159 808.306,390.278C808.278,390.266 808.251,390.254 808.224,390.242C806.474,389.468 804.579,388.988 802.827,388.264C802.202,388.006 801.082,387.207 801.082,387.207L799.98,386.518C799.377,386.147 798.37,385.459 797.745,384.993C797.131,384.516 795.912,383.668 795.033,383.086C789.958,379.717 785.784,375.437 783.358,371.115C780.826,366.591 779.534,362.692 779.089,358.253C778.814,355.51 779.11,352.437 779.947,349.09C781.271,343.846 783.316,339.905 790.001,329.798C792.935,325.348 793.571,324.31 794.8,321.852C796.336,318.791 797.173,316.481 799.366,309.298C799.747,308.048 800.108,306.883 800.171,306.703C800.266,306.427 800.235,306.332 799.959,305.961C799.281,305.05 798.656,303.97 798.391,303.239C798.137,302.539 798.105,302.317 798.105,300.982C798.105,299.7 798.148,299.361 798.391,298.471C798.741,297.221 799.546,295.399 800.213,294.318C801.008,293.047 802.12,291.956 803.699,290.875C804.472,290.356 805.203,289.827 805.32,289.689C805.553,289.424 805.691,288.778 806.369,284.614C806.824,281.849 807.354,279.995 808.201,278.311C810.225,274.243 813.583,272.219 818.297,272.219C821.539,272.219 824.389,273.364 827.716,276.001C828.213,276.393 830.12,278.194 831.953,280.006C835.46,283.47 835.862,283.83 839.433,286.691C843.215,289.721 845.238,291.066 848.321,292.56C851.383,294.054 853.47,294.816 857.294,295.844C860.875,296.797 863.513,297.74 865.229,298.673C865.271,298.694 865.42,298.503 865.568,298.259C866.31,296.988 867.549,295.865 868.842,295.261C870.685,294.424 872.581,294.477 874.531,295.441C875.272,295.802 875.622,296.066 876.459,296.893C877.274,297.709 877.55,298.069 877.857,298.704C878.45,299.955 878.811,301.501 879.202,304.425C879.33,305.326 879.52,306.639 879.637,307.339C879.753,308.027 879.849,308.822 879.859,309.097L879.859,309.584L880.717,310.21C881.798,310.993 884.786,313.97 885.972,315.443C886.926,316.629 887.9,318.081 888.387,319.024L888.684,319.596L889.479,319.543C890.718,319.458 891.746,319.606 892.954,320.051L894.055,320.454L895.03,320.062C896.142,319.628 898.6,318.187 899.585,317.403C899.956,317.106 901.143,316.057 902.234,315.072C905.878,311.767 909.184,309.69 912.256,308.769C914.523,308.101 916.928,307.964 918.559,308.398C920.042,308.811 921.451,309.86 922.066,311.025C922.181,311.251 922.252,311.39 922.329,311.477C922.524,312.038 922.756,312.598 922.858,313.165C923.247,315.316 923.56,317.456 923.902,319.61C924.028,320.409 924.014,321.222 924.187,322.013C924.275,323.023 924.334,323.177 924.566,323.177C924.683,323.177 925.979,323.58 925.927,323.517C926.42,323.713 926.925,323.885 927.382,324.145C928.923,325.019 930.795,328.484 930.838,328.717C931.06,329.808 930.687,332.773 930.687,332.773L930.615,332.743C930.639,332.753 930.663,332.763 930.687,332.773C930.584,333.286 930.446,333.796 930.281,334.329C930.12,334.851 929.687,335.363 929.629,335.905C929.342,338.591 930.54,341.349 931.483,343.793C931.668,344.274 931.957,345.009 932.337,345.732C932.298,345.705 932.271,345.686 932.257,345.678C932.067,345.562 932.745,346.706 933.825,348.348C935.584,351.028 938.912,354.539 939.196,354.885C939.209,354.901 940.987,357.639 940.987,357.639L941.294,358.275C941.464,358.624 941.601,358.963 941.601,359.027C941.601,359.101 941.866,359.143 942.247,359.154C943.572,359.175 945.356,360.156 946.002,361.491L946.395,362.19C946.846,363.168 947.416,364.123 947.453,365.22C947.494,366.462 947.383,367.849 946.917,369.019C946.555,369.927 945.946,370.466 945.793,371.444C945.625,372.52 945.64,373.625 945.594,374.719C945.594,374.719 944.884,377.675 944.45,378.703C944.312,379.042 943.614,380.533 943.635,380.543C943.657,380.564 941.797,384.508 940.553,386.083C940.074,386.689 939.114,387.323 937.915,387.87C937.935,387.811 937.953,387.755 937.969,387.7C937.994,387.614 938.02,387.537 938.046,387.464C938.189,387.108 938.381,386.661 938.315,386.745C938.419,386.415 938.516,386.085 938.59,385.751C939.17,385.012 940.155,383.676 940.616,382.98C943,379.399 944.282,375.871 944.43,372.418L944.493,371.083L944.133,370.67C943.932,370.437 943.381,369.907 942.904,369.483C941.23,368.021 940.235,366.157 939.8,363.688C939.631,362.713 939.705,360.997 939.959,360.393C940.139,359.948 940.139,359.938 939.896,359.546C939.599,359.048 937.83,356.77 936.209,354.8C933.688,351.717 932.374,349.81 931.177,347.437C929.122,343.39 927.723,339.301 927.723,337.362C927.723,337.002 927.681,336.938 927.352,336.779C926.854,336.546 925.784,335.381 924.969,334.184C923.888,332.605 922.871,330.264 922.649,328.823C922.437,327.435 922.553,325.327 922.903,324.31C923.019,323.971 923.019,323.844 922.903,323.569C922.723,323.124 922.458,321.429 922.32,319.734C921.748,312.794 920.795,310.623 918.104,310.051C916.695,309.754 914.438,310.008 912.499,310.686C910.105,311.523 906.577,313.759 904.077,315.994C902.329,317.583 901.09,318.632 900.443,319.098C898.897,320.21 896.704,321.217 895.401,321.429C895.041,321.482 895.019,321.503 894.797,322.266C894.373,323.727 892.869,325.56 891.534,326.228C890.485,326.757 889.786,326.916 888.684,326.863C887.847,326.832 887.614,326.779 887.01,326.482C886.534,326.249 886.163,325.963 885.856,325.603C885.442,325.115 885.411,325.094 885.199,325.242C884.044,326.079 881.893,326.81 877.719,327.785C873.609,328.738 871.087,329.989 868.439,332.383C865.928,334.639 864.731,336.038 862.782,338.962C859.19,344.333 857.654,347.787 856.213,353.687C855.631,356.082 855.186,359.874 855.313,361.368C855.408,362.48 855.97,366.824 856.023,366.877C856.044,366.909 856.288,366.39 856.563,365.733C856.828,365.087 857.389,363.773 857.803,362.83C858.322,361.622 858.682,360.605 858.979,359.44C859.868,355.997 860.949,352.903 862.008,350.774C862.972,348.857 864.36,347.373 865.939,346.558C867.613,345.689 869.064,345.424 872.104,345.424C877.719,345.424 879.224,344.937 882.582,342.098C886.152,339.078 889.532,337.129 892.403,336.461C897.064,335.381 901.196,335.72 905.02,337.479C906.789,338.294 909.046,340 910.254,341.441C911.514,342.924 912.658,344.926 913.686,347.437C914.809,350.191 915.752,351.696 917.171,353.02C918.337,354.111 919.29,354.715 922.076,356.166C926.907,358.667 928.708,359.885 931.06,362.237C933.38,364.557 935.171,367.015 936.495,369.706C938.296,373.371 938.9,375.935 938.9,379.908C938.889,382.238 938.73,383.711 938.307,385.406C938.19,385.861 938.694,385.422 938.59,385.751C938.561,385.788 938.286,386.782 938.315,386.745C938.226,387.027 938.135,387.22 938.046,387.464C937.955,387.693 937.883,387.884 937.915,387.87ZM867.655,389.347C866.755,388.722 865.589,387.864 865.07,387.461C864.562,387.059 864.148,386.762 864.18,386.815C864.201,386.857 864.487,387.451 864.805,388.118C865.621,389.781 866.076,390.968 866.585,392.779C867.454,395.862 867.485,396.095 867.496,399.379C867.496,402.017 867.517,402.303 867.655,402.123C868.164,401.466 870.409,398.489 870.706,398.076C871.162,397.42 871.236,396.646 871.003,395.025C870.801,393.648 870.632,393.171 869.848,391.614L869.286,390.502L867.655,389.347ZM897.212,374.812C897.212,374.081 897.159,373.509 897.075,373.308L896.937,372.979L896.746,373.689C896.64,374.081 896.248,375.045 895.888,375.829C894.744,378.318 894.066,380.066 893.515,381.931C892.763,384.495 892.413,385.289 891.015,387.684C889.913,389.591 889.553,390.682 888.684,394.888C886.639,404.676 885.728,407.897 883.938,411.637C882.593,414.444 882.296,415.927 882.063,420.959C882.01,422.21 881.968,424.116 881.968,425.197C881.968,426.278 881.925,427.39 881.862,427.687C881.629,428.852 881.109,429.88 880.347,430.664L879.923,431.108L880.283,431.214C881.851,431.691 882.582,431.818 884.913,432.03C886.587,432.178 886.671,432.178 886.873,431.988C887,431.882 887.318,431.691 887.593,431.564C888.758,431.013 889.966,428.926 890.316,426.839C890.379,426.489 890.475,425.038 890.538,423.608C890.676,420.472 890.845,418.851 891.333,416.404C892.064,412.675 892.159,411.743 892.17,408.723C892.17,407.102 892.106,405.333 892.011,404.433C891.746,401.752 891.873,394.888 892.244,391.985C892.551,389.516 893.081,387.726 894.723,383.626C896.661,378.753 897.202,376.835 897.212,374.812ZM841.657,357.628C841.647,356.781 841.604,356.124 841.551,356.124C841.498,356.124 841.255,356.325 841.011,356.58C840.63,356.982 840.545,357.152 840.397,357.883C840.036,359.578 839.973,360.192 840.036,361.41C840.1,362.809 840.248,363.54 841.202,367.036C842.325,371.136 842.939,374.261 843.31,377.842C843.532,379.971 843.501,387.164 843.257,388.965C842.96,391.158 841.986,395.841 841.234,398.659C840.407,401.731 840.333,402.113 839.803,405.757C838.998,411.298 838.998,411.255 838.998,414.338C839.009,417.41 839.115,418.565 839.644,420.959C840.683,425.653 843.448,429.329 847.473,431.373C847.929,431.596 850.154,431.871 852.177,431.945L853.904,432.009L853.321,431.458C852.304,430.494 850.514,427.846 849.677,426.066C848.109,422.718 847.177,419.635 846.711,416.245C846.446,414.328 846.456,407.145 846.721,404.115C846.817,402.981 846.965,401.021 847.06,399.771C847.145,398.521 847.293,396.752 847.389,395.852C847.622,393.595 847.601,391.031 847.336,388.807C847.209,387.811 847.018,385.883 846.891,384.516C846.626,381.539 846.128,377.566 845.821,375.977C845.471,374.123 845.143,372.947 844.126,369.822C842.876,365.987 842.409,364.133 841.996,361.389C841.753,359.715 841.657,358.762 841.657,357.628ZM820.766,274.275C819.971,274.042 819.579,273.989 818.287,273.957C815.458,273.893 813.816,274.423 811.952,276.012C810.723,277.061 809.547,279.021 808.858,281.171C808.678,281.754 808.265,283.343 807.947,284.699C807.322,287.422 807.047,288.396 806.718,289.149C806.443,289.784 806.464,290.155 806.803,290.494C807.396,291.087 808.678,294.35 809.07,296.257C809.473,298.249 809.282,301.003 808.636,302.656C808.307,303.493 807.555,304.552 806.623,305.495C805.299,306.819 804.07,307.519 802.767,307.667C802.279,307.731 802.173,307.783 802.142,307.964C801.633,310.506 799.938,315.951 798.518,319.543C796.972,323.452 795.584,325.931 792.014,331.175C785.286,341.049 783.019,345.488 781.907,350.965C781.409,353.444 781.282,354.715 781.346,356.919C781.451,360.648 782.066,363.381 783.655,367.142C784.428,368.964 785.594,371.252 786.314,372.333C787.426,374.007 789.937,376.931 790.944,377.725L791.357,378.054L790.7,376.751C789.63,374.653 789.047,372.82 788.602,370.214C788.338,368.636 788.285,365.754 788.507,364.493C789.069,361.283 790.297,358.147 791.77,356.177C792.607,355.065 795.213,352.363 796.728,351.039C797.311,350.53 798.815,349.323 800.065,348.337C807.629,342.426 810.151,339.65 813.636,333.347C817.1,327.075 817.905,325.751 819.558,323.547C823.775,317.933 827.578,315.051 833.224,313.176C838.564,311.417 842.748,311.269 847.367,312.699C849.518,313.367 850.948,314.108 854.37,316.354C856.849,317.975 858.502,318.918 859.953,319.532C863.237,320.92 865.007,321.259 869.922,321.482C871.246,321.535 872.645,321.63 873.037,321.693C874.001,321.842 875.579,322.276 876.512,322.657C877.635,323.092 880.177,324.384 880.537,324.702L880.855,324.967L881.756,324.66C882.243,324.501 882.974,324.215 883.377,324.035C883.769,323.855 884.277,323.675 884.499,323.643C884.902,323.579 884.913,323.558 885.125,322.869C885.474,321.725 886.269,320.539 886.968,320.126C887.127,320.03 887.254,319.903 887.254,319.839C887.254,319.681 884.447,316.047 882.91,314.214C882.179,313.345 881.131,312.169 880.569,311.597C879.7,310.718 879.51,310.57 879.351,310.654C878.991,310.835 876.406,311.025 875.156,310.962C872.592,310.824 870.854,310.029 868.789,308.038C867.115,306.427 865.759,303.97 865.07,301.342L864.816,300.357L864.042,300.06C862.4,299.425 859.148,298.355 857.167,297.793C851.15,296.109 846.838,294.223 842.547,291.426C841.075,290.462 840.481,290.028 837.621,287.846C834.178,285.218 833.171,284.328 830.173,281.245C825.745,276.69 823.658,275.143 820.766,274.275ZM873.439,392.514C873.037,392.409 872.263,392.091 871.713,391.815C871.162,391.54 870.727,391.339 870.748,391.381C870.77,391.423 870.982,391.826 871.236,392.281C871.66,393.034 871.924,393.871 872.179,395.322L872.263,395.788L873.291,394.315C873.863,393.5 874.287,392.811 874.244,392.769C874.202,392.737 873.842,392.62 873.439,392.514ZM892.657,373.837C893.006,373.424 893.261,373.074 893.218,373.074C893.176,373.074 892.816,373.255 892.424,373.456C891.873,373.752 891.47,374.113 890.527,375.119C889.097,376.666 888.674,377.238 887.551,379.102C887.074,379.886 886.279,381.158 885.792,381.91C885.305,382.673 884.425,384.272 883.843,385.469C881.734,389.813 880.876,391.497 879.933,393.097C878.895,394.856 877.465,397.674 876.279,400.248C874.965,403.13 873.757,405.418 872.698,407.028C871.522,408.808 870.695,410.323 870.198,411.584C869.541,413.226 868.503,416.446 868.333,417.347C868.1,418.555 868.1,420.472 868.344,422.707L868.534,424.508L869.128,425.303C870.261,426.829 871.215,427.697 872.666,428.534L873.185,428.831L872.677,428.047C871.501,426.214 871.109,424.985 871.119,423.078C871.119,420.038 872.454,416.224 875.018,411.954C876.045,410.228 876.702,408.745 878.09,404.909C879.87,400.015 880.283,399.062 883.016,393.574C885.389,388.807 886.226,386.878 887.201,383.986C887.837,382.09 888.335,380.861 889.002,379.537C889.998,377.556 891.502,375.214 892.657,373.837ZM883.853,382.736C884.033,382.429 884.16,382.185 884.139,382.185C884.002,382.185 881.989,385.226 880.315,387.959C878.726,390.565 876.978,393.203 875.749,394.856C875.272,395.513 874.319,396.847 873.63,397.822C872.941,398.807 871.808,400.375 871.109,401.308C869.541,403.395 868.545,404.909 867.856,406.255C866.765,408.395 865.801,411.181 865.473,413.215C865.144,415.175 865.43,417.792 866.225,420.165C866.585,421.256 867.221,422.707 867.295,422.623C867.327,422.601 867.263,422.104 867.168,421.531C866.935,420.154 866.945,418.004 867.168,416.775C867.39,415.641 868.45,412.325 869.096,410.832C869.721,409.359 870.123,408.649 871.543,406.53C872.56,405.005 873.079,404.062 874.615,400.937C877.349,395.385 877.635,394.813 878.63,393.118C879.658,391.36 881.099,388.531 882.01,386.476C882.699,384.929 883.377,383.552 883.853,382.736ZM849.115,357.014C847.971,356.251 847.971,356.241 848.384,356.76C849.539,358.19 850.09,359.578 851.245,363.942C852.272,367.862 852.611,368.985 853.48,371.316C854.55,374.219 855.006,375.606 855.377,377.047C855.8,378.71 856.235,379.844 857.336,382.206C858.512,384.696 859.18,386.264 859.529,387.323C859.815,388.192 860.938,392.959 861.235,394.58C861.955,398.468 862.061,402.091 861.553,405.852C860.981,410.217 861.373,413.713 863.417,422.337C863.799,423.915 864.477,425.854 865.081,427.051C865.398,427.687 865.748,428.428 865.854,428.693C865.96,428.958 866.119,429.35 866.214,429.562L866.384,429.954L867.348,429.689C867.877,429.551 868.365,429.403 868.418,429.371C868.471,429.339 868.238,429.011 867.899,428.661C867.263,427.994 866.034,426.415 865.24,425.229C864.17,423.64 863.428,421.786 862.941,419.476C862.57,417.718 862.464,414.942 862.718,413.427C863.078,411.202 864.127,408.236 865.43,405.725L866.172,404.306L866.182,400.905C866.193,397.112 866.14,396.519 865.483,393.701C864.975,391.55 864.667,390.555 864,388.913C862.93,386.296 862.22,384.95 861.458,384.092C860.515,383.033 859.127,381.189 858.396,380.014C857.093,377.937 855.906,375.32 855.578,373.763C855.504,373.413 855.366,373.043 855.281,372.947C855.133,372.767 854.932,371.644 854.359,367.83C854.201,366.782 853.957,365.182 853.819,364.281C853.681,363.381 853.565,362.449 853.565,362.216C853.565,361.845 853.438,361.633 852.537,360.468C851.255,358.825 850.143,357.703 849.115,357.014ZM899.342,383.245C899.564,379.685 899.469,379.791 898.611,384.092C897.392,390.173 897.403,390.046 897.742,394.104C898.325,401.053 898.378,401.371 899.321,404.909C899.914,407.102 900.454,409.656 900.835,412.06C901.026,413.321 901.069,414.02 901.069,415.98C901.069,419.349 900.772,421.754 900.062,423.947C899.66,425.229 898.494,427.623 897.721,428.767C897.392,429.255 897.181,429.615 897.255,429.572C898.102,429.085 899.458,428.036 900.179,427.305C901.651,425.822 903.145,423.534 903.124,422.792C903.113,422.623 903.24,422.22 903.389,421.902C903.781,421.087 903.929,419.911 903.929,417.781C903.929,414.317 903.283,410.726 900.984,401.255C899.373,394.623 898.865,390.671 899.109,386.847C899.172,385.883 899.278,384.262 899.342,383.245ZM843.702,355.679C843.437,355.043 843.331,354.98 842.886,355.192C842.558,355.351 842.505,355.637 842.515,357.236C842.515,358.296 842.59,359.08 842.854,360.626C843.448,364.091 843.765,365.267 845.323,369.621C847.177,374.844 847.749,377.715 848.268,384.41C848.384,385.893 848.565,387.821 848.649,388.701C848.882,390.766 848.882,393.871 848.66,395.958C848.565,396.858 848.416,398.67 848.321,399.983C848.236,401.297 848.109,402.865 848.056,403.479C847.823,405.979 847.717,410.228 847.834,412.834C848.003,416.595 848.395,418.925 849.306,421.595C850.27,424.413 851.224,426.468 852.336,428.153C853.523,429.954 854.02,430.515 855.345,431.543L855.79,431.892L856.881,431.776C857.474,431.712 858.735,431.532 859.688,431.373L861.405,431.098L861.224,430.822C860.695,430.017 860.313,429.276 859.943,428.375C859.709,427.824 859.339,426.934 859.106,426.415C858.534,425.123 857.23,421.457 856.902,420.218C856.764,419.667 856.447,418.269 856.213,417.103C855.98,415.948 855.43,413.544 854.995,411.753C854.232,408.575 853.893,407.018 853.66,405.545C853.597,405.132 853.501,402.558 853.459,399.824C853.406,396.434 853.321,394.411 853.215,393.468C853.12,392.705 852.951,390.894 852.823,389.432C852.527,385.639 852.241,383.7 851.594,381.02C851.086,378.88 850.736,377.778 849.529,374.579C848.406,371.591 847.94,370.129 847.113,366.983C846.817,365.871 846.435,364.493 846.255,363.911C846.075,363.328 845.683,361.951 845.397,360.849C844.899,358.974 844.274,357.067 843.702,355.679ZM845.037,355.128C844.804,355.107 844.496,355.054 844.359,355.012C844.115,354.927 844.115,354.937 844.274,355.181C844.634,355.753 845.651,358.561 846.149,360.383C846.446,361.453 846.901,362.989 847.156,363.805C847.41,364.62 847.865,366.167 848.162,367.248C848.893,369.886 849.465,371.549 850.588,374.377C852.792,379.908 853.597,383.351 854.148,389.548C854.243,390.597 854.412,392.26 854.54,393.256C854.72,394.792 854.762,395.746 854.783,399.718C854.804,405.471 854.868,405.958 856.383,412.304C856.701,413.628 857.188,415.874 857.485,417.283C858.089,420.25 858.184,420.589 859.074,423.142C860.027,425.854 861.277,428.714 862.114,430.049C862.517,430.706 862.633,430.822 862.824,430.769C862.941,430.738 863.629,430.579 864.35,430.42C865.059,430.261 865.642,430.091 865.642,430.06C865.642,430.017 865.208,429.149 864.689,428.11C863.65,426.076 862.972,424.265 862.527,422.337C861.5,417.824 861.15,416.16 860.928,414.709C860.387,411.202 860.324,408.808 860.674,405.577C861.076,401.964 860.97,398.617 860.335,395.004C860.006,393.129 858.989,388.701 858.65,387.694C858.322,386.698 857.718,385.353 856.129,382.037C855.059,379.802 854.826,379.208 854.158,376.782C853.957,376.051 853.364,374.25 852.823,372.767C851.711,369.653 851.393,368.614 850.429,364.864C849.666,361.877 848.882,359.419 848.363,358.391C848.183,358.031 847.632,357.226 847.145,356.59C846.192,355.361 845.958,355.202 845.037,355.128ZM843.003,314.225C841.912,314.076 840.047,314.034 839.369,314.129C839.221,314.15 838.744,314.225 838.31,314.288C836.17,314.595 833.171,315.496 831.243,316.396C827.493,318.166 824.845,320.433 821.741,324.543C820.289,326.471 819.092,328.399 817.111,331.991C814.134,337.404 812.714,339.534 810.246,342.288C808.371,344.375 806.21,346.24 801.728,349.64C798.412,352.151 797.152,353.221 795.351,355.075C793.073,357.416 792.279,358.667 791.431,361.252C790.764,363.286 790.531,364.493 790.456,366.347C790.308,370.203 791.293,374.123 793.274,377.513C794.482,379.579 797.152,382.556 798.571,383.425C800.203,384.421 801.474,385.3 801.686,385.596C801.94,385.935 803.265,386.73 804.578,387.334C808.085,388.955 814.695,390.607 820.935,391.444C824.22,391.889 829.072,392.175 832.377,392.122L834.549,392.091L834.623,391.487C834.888,389.4 835.682,381.009 835.778,379.399C835.873,377.587 835.82,375.373 835.597,372.206L835.523,371.295L835.015,372.82C833.849,376.306 831.985,379.166 828.775,382.408C827.991,383.202 826.942,384.156 826.455,384.516C825.459,385.236 823.202,386.614 821.984,387.228C820.861,387.79 818.658,388.33 817.153,388.404L815.967,388.467L815.649,388.139C814.982,387.482 815.405,386.614 816.443,386.486C817.609,386.338 819.834,385.734 820.649,385.342C821.868,384.749 824.442,383.065 825.607,382.09C826.699,381.179 829.262,378.541 830.216,377.344C831.752,375.426 832.525,374.091 833.765,371.22C834.951,368.455 835.396,367.089 835.492,365.976C835.523,365.479 835.587,364.811 835.629,364.493L835.682,363.911L835.439,364.228C834.146,365.902 832.112,367.777 830.926,368.392C828.86,369.451 825.618,370.278 821.783,370.712C819.802,370.934 814.738,370.956 812.619,370.754C809.748,370.489 807.089,369.737 804.366,368.424C802.47,367.513 801.538,366.909 800.764,366.082C799.843,365.087 799.747,364.292 800.499,363.868C800.891,363.646 801.241,363.783 801.993,364.451C802.735,365.118 803.709,365.637 805.616,366.4C808.996,367.756 811.772,368.286 817.259,368.636C822.027,368.932 827.324,368.116 830.205,366.633C830.798,366.326 831.265,365.934 832.599,364.599C833.5,363.699 834.655,362.48 835.163,361.898C836,360.944 836.191,360.637 837.176,358.645C838.394,356.198 838.384,356.336 837.335,356.336C836.276,356.336 833.373,355.859 832.006,355.478C829.326,354.704 825.523,352.819 823.213,351.092C821.921,350.138 819.198,347.363 818.149,345.954C816.507,343.718 815.416,341.706 815.596,341.208C815.713,340.879 815.988,340.794 816.338,340.985C816.475,341.049 817.047,341.663 817.619,342.341C819.103,344.1 820.543,345.509 822.366,346.96C824.4,348.592 825.247,349.185 827.451,350.509C829.75,351.897 831.01,352.533 832.387,352.988C834.241,353.613 836.975,354.069 839.486,354.185L840.82,354.249L841.625,353.857C842.78,353.306 843.585,353.126 844.56,353.2C845.323,353.264 845.376,353.253 845.958,352.914C847.039,352.289 848.247,351.145 849.846,349.238C852.633,345.922 854.211,343.697 855.133,341.801C856.584,338.803 857.421,335.222 858.025,329.427C858.269,327.086 858.322,326.853 858.629,326.683C858.788,326.598 858.873,326.62 859.021,326.779C859.434,327.234 859.498,332.446 859.127,335.508C858.724,338.919 857.612,342.246 856.012,344.863C854.857,346.759 851.965,350.488 850.44,352.045C849.698,352.808 848.925,353.412 848.077,353.92L847.632,354.185L848.13,354.493C848.416,354.673 849.094,354.969 849.645,355.171C850.546,355.499 850.768,355.541 851.711,355.541C852.294,355.541 853.067,355.478 853.427,355.393C854.052,355.255 854.073,355.234 854.148,354.863C854.37,353.624 855.027,350.88 855.525,349.143C856.648,345.223 857.781,342.818 860.631,338.337C862.4,335.572 863.068,334.671 864.72,332.881C866.172,331.302 868.089,329.607 869.424,328.717C871.321,327.457 874.244,326.302 876.819,325.793C877.486,325.666 878.037,325.528 878.037,325.486C878.037,325.401 876.713,324.85 875.675,324.511C874.054,323.982 873.471,323.908 870.145,323.812C865.144,323.653 863.587,323.452 861.034,322.605C858.353,321.704 856.722,320.867 853.141,318.515C851.828,317.657 850.334,316.714 849.804,316.418C847.887,315.326 845.45,314.542 843.003,314.225ZM898.748,374.897C898.59,374.547 898.335,374.134 898.176,373.975L897.88,373.699L897.975,374.314C898.293,376.231 897.604,379.325 895.793,384.135C894.31,388.065 893.865,389.58 893.568,391.826C893.134,395.015 892.964,400.629 893.197,403.988C893.282,405.196 893.346,407.441 893.335,408.988C893.335,412.039 893.261,412.813 892.604,416.51C892.138,419.201 892.032,420.165 891.915,423.29C891.862,424.72 891.788,426.172 891.746,426.521C891.587,428.206 890.856,430.197 890.04,431.225C889.828,431.49 889.616,431.765 889.563,431.829C889.352,432.115 892.943,431.426 893.589,431.056C894.278,430.664 895.93,428.947 896.608,427.93C897.276,426.934 898.356,424.763 898.695,423.714C899.299,421.902 899.585,419.317 899.585,415.715C899.585,413.364 899.554,412.844 899.299,411.128C898.929,408.649 898.579,406.901 898.07,404.909C897.276,401.837 897.075,400.608 896.895,397.864C896.842,396.9 896.714,395.11 896.619,393.892C896.513,392.536 896.471,391.211 896.513,390.502C896.577,389.23 897.085,386.582 897.954,382.916C898.643,380.035 898.876,378.668 898.96,376.931C899.034,375.575 899.034,375.532 898.748,374.897ZM839.094,360.648C839.125,360.086 839.136,359.62 839.115,359.62C839.03,359.62 838.161,361.972 837.907,362.904C837.632,363.889 837.621,363.985 837.632,367.036C837.632,369.42 837.695,370.829 837.886,372.969C838.182,376.316 838.204,379.611 837.949,382.45C837.865,383.499 837.663,385.766 837.515,387.482C836.932,394.252 836.477,397.261 834.962,404.104C833.299,411.594 833.076,414.889 833.913,419.116C834.379,421.415 835.269,423.566 836.583,425.568C838.267,428.132 839.994,429.456 842.844,430.388C843.395,430.558 843.893,430.706 843.946,430.706C844.009,430.706 843.522,430.144 842.854,429.456C841.022,427.57 840.005,426.002 839.157,423.788C838.129,421.129 837.579,417.283 837.727,413.65C837.801,411.658 837.896,410.736 838.468,406.605C839.104,402.038 839.252,401.276 840.005,398.341C840.789,395.248 841.678,390.936 841.986,388.648C842.145,387.472 842.176,386.486 842.176,383.192C842.176,376.782 841.795,373.858 840.058,366.792C839.21,363.37 838.998,362.046 839.094,360.648ZM853.84,357.152C853.904,356.95 853.84,356.94 853.459,357.088C853.311,357.152 852.823,357.205 852.378,357.215C851.637,357.226 851.573,357.247 851.69,357.406C851.764,357.501 852.198,358.126 852.675,358.804L853.523,360.023L853.66,358.677C853.734,357.946 853.819,357.258 853.84,357.152ZM895.877,372.608C895.613,372.513 894.956,372.545 894.744,372.661C894.468,372.82 892.943,374.748 892.212,375.882C891.301,377.259 890.061,379.494 889.468,380.808C889.193,381.433 888.621,382.99 888.197,384.262C887.148,387.461 886.205,389.781 884.531,393.256C881.237,400.089 880.781,401.149 878.832,406.668C877.719,409.783 877.645,409.963 875.728,413.65C874.467,416.086 873.842,417.633 873.333,419.582C872.295,423.587 872.528,424.932 874.933,428.608C875.685,429.752 875.431,429.594 877.857,430.441L879.001,430.844L879.383,430.483C879.912,429.986 880.421,429.159 880.696,428.365C880.929,427.718 880.94,427.475 881.014,423.078C881.131,415.906 881.342,414.741 883.154,411.054C884.605,408.109 885.305,405.884 886.449,400.64C886.83,398.913 887.402,396.116 887.731,394.432C888.578,390.141 888.96,389.018 890.4,386.55C891.206,385.183 891.619,384.251 892.074,382.768C892.985,379.833 893.24,379.092 893.854,377.683C894.204,376.867 894.712,375.744 894.988,375.193C895.263,374.642 895.613,373.848 895.761,373.424C895.994,372.778 896.015,372.661 895.877,372.608ZM900.835,338.962C899.649,338.707 896.789,338.591 895.549,338.75C894.32,338.909 892.667,339.269 891.65,339.608C889.828,340.212 887.095,341.811 884.521,343.761C881.692,345.901 880.548,346.536 878.471,347.098C877.465,347.373 877.423,347.373 873.217,347.384C868.513,347.405 868.46,347.405 866.913,348.136C865.759,348.687 864.604,349.884 863.873,351.304C862.782,353.444 861.902,355.827 860.928,359.355C860.398,361.294 860.059,362.258 859.296,364.059C858.756,365.309 858.12,366.909 857.887,367.608C857.464,368.826 857.442,368.964 857.4,370.394C857.326,372.735 857.75,374.303 859.148,376.994C860.917,380.395 863.364,383.467 865.96,385.565C867.295,386.635 870.028,388.595 871.501,389.527C872.92,390.417 875.177,391.561 875.283,391.434C875.325,391.392 876.321,389.887 877.476,388.107L879.594,384.866L878.736,385.258C877.444,385.861 876.48,386.042 874.541,386.052C872.835,386.052 872.74,386.042 870.568,385.448C869.382,385.12 867.973,384.548 867.634,384.23C867.401,384.018 867.39,383.637 867.613,383.446C867.75,383.329 867.888,383.34 868.45,383.488C869.191,383.69 871.14,383.933 872.846,384.039C874.064,384.124 876.098,383.965 877.062,383.711C877.984,383.467 880.092,382.397 881.215,381.603C881.766,381.211 882.328,380.84 882.455,380.776C882.593,380.713 883.292,379.992 884.012,379.177C884.733,378.35 885.612,377.376 885.961,376.994L886.587,376.306L885.728,376.592C883.133,377.46 879.436,377.842 877.105,377.482C871.977,376.698 866.024,374.24 863.936,372.047C863.28,371.358 862.676,370.288 862.676,369.811C862.676,369.441 862.962,369.155 863.343,369.155C863.661,369.155 863.852,369.314 864.371,370.034C865.134,371.093 867.602,372.598 870.77,373.911C874.944,375.649 879.139,376.168 883.673,375.511C885.273,375.278 886.269,374.907 887.423,374.123C888.324,373.519 889.214,373.074 889.542,373.074C889.659,373.074 889.977,372.905 890.241,372.693C890.506,372.492 891.025,372.163 891.386,371.973L892.032,371.623L890.57,371.115C887.614,370.098 886.205,369.367 884.616,368.042C882.847,366.559 881.523,364.832 880.378,362.523C879.594,360.934 879.277,360.065 878.895,358.55C878.387,356.548 878.217,355.34 878.207,353.687C878.196,351.441 878.503,350.573 879.266,350.763C879.616,350.859 879.732,351.208 879.732,352.183C879.732,354.736 880.58,358.147 881.819,360.552C883.016,362.894 884.33,364.62 886.12,366.199C888.123,367.968 890.125,369.059 892.646,369.748C893.377,369.949 894.341,370.246 894.786,370.415C896.164,370.945 897.17,371.104 899.172,371.104C900.783,371.104 901.111,371.072 902.244,370.807C906.768,369.748 908.675,368.731 911.631,365.775C912.923,364.483 913.453,363.858 914.089,362.904C915.053,361.442 915.339,360.838 915.688,359.525C915.974,358.476 916.059,358.349 916.504,358.349C916.917,358.349 917.076,358.794 916.981,359.758C916.864,360.976 916.631,361.824 916.07,362.978C915.169,364.832 914.184,366.178 912.531,367.83C909.936,370.415 907.785,371.612 904.31,372.375C902.806,372.704 900.793,372.905 899.999,372.799C899.342,372.725 899.352,372.672 899.871,373.445C900.274,374.049 900.56,374.812 900.772,375.85C900.941,376.708 900.952,376.751 901.651,377.46C903.071,378.933 904.946,380.109 906.768,380.692C907.955,381.062 910.084,381.475 911.779,381.666C913.23,381.825 917.256,381.73 919.195,381.497C922.564,381.105 925.678,379.908 927.713,378.244C928.581,377.545 928.74,377.471 929.058,377.672C929.588,378.022 929.312,378.891 928.369,379.855C926.95,381.306 924.661,382.62 922.532,383.234C920.127,383.933 918.083,384.135 914.237,384.06C911.154,384.007 910.254,383.88 907.88,383.192C905.921,382.63 903.749,381.295 901.937,379.547L901.1,378.742L901.174,379.272C901.672,382.948 902.573,385.565 904.406,388.669C905.772,390.989 908.283,393.849 910.222,395.301C911.313,396.116 913.082,396.996 914.544,397.462C915.402,397.727 915.646,397.854 915.646,397.992C915.646,398.161 915.54,398.182 914.862,398.182C913.421,398.182 911.09,397.441 909.491,396.477C907.065,395.025 905.073,393.087 903.431,390.608C902.668,389.442 901.323,386.773 901.005,385.745L900.761,385.003L900.698,385.734C900.56,387.186 900.602,390.491 900.761,391.879C901.069,394.496 901.609,397.144 902.531,400.481L902.848,401.678L903.622,401.678C904.067,401.678 904.988,401.805 905.762,401.964C907.033,402.24 907.287,402.25 909.766,402.25C912.139,402.25 912.595,402.219 914.216,401.964C916.822,401.541 918.188,401.212 920.297,400.502C924.058,399.22 927.331,397.271 930.965,394.135C935.213,390.47 936.95,386.603 937.12,380.49C937.237,376.528 936.643,373.752 934.969,370.362C933.762,367.905 932.268,365.849 930.223,363.805C927.956,361.548 926.176,360.372 921.409,358.02C917.701,356.188 916.525,355.425 914.894,353.804C913.464,352.384 912.764,351.378 911.821,349.376C910.232,346.017 909.978,345.53 909.342,344.555C907.457,341.695 904.49,339.735 900.835,338.962Z" style="fill:rgb(39,39,61);"/>
            </g>
            <g transform="matrix(1,0,0,1,749.887,589.729)">
                <path d="M0,-9.927C-1.028,-9.567 -1.43,-9.079 -1.759,-7.851C-2.204,-6.103 -1.801,-4.185 -0.667,-2.755C-0.085,-2.013 0.466,-1.695 2.903,-0.678L5.022,0.201L6.187,0.201C7.236,0.201 7.416,0.169 7.956,-0.085C8.613,-0.392 9.503,-1.198 9.778,-1.748C10.255,-2.649 10.17,-3.994 9.577,-5.213C8.931,-6.526 6.611,-8.507 4.449,-9.577L3.454,-10.075L2.013,-10.107C0.816,-10.128 0.477,-10.096 0,-9.927" style="fill:rgb(39,39,61);"/>
            </g>
            <g transform="matrix(1,0,0,1,769.264,597.631)">
                <path d="M0,-8.623C0,-7.85 2.998,-4.82 5.191,-3.379C6.145,-2.754 8.051,-1.822 10.636,-0.709C12.713,0.181 13.423,0.35 13.772,0.032C14.037,-0.211 14.048,-0.593 13.793,-0.847C13.518,-1.122 11.495,-2.129 8.645,-3.421C7.299,-4.025 5.837,-4.746 5.371,-5.021C4.195,-5.731 2.331,-7.076 1.25,-8.019C0.318,-8.824 0,-8.973 0,-8.623" style="fill:rgb(39,39,61);"/>
            </g>
            <g transform="matrix(1,0,0,1,765.143,608.819)">
                <path d="M0,-12.374C-1.197,-12.12 -2.405,-11.59 -3.454,-10.838C-4.174,-10.329 -5.414,-9.058 -5.933,-8.316C-6.928,-6.865 -7.32,-5.107 -6.695,-4.905C-6.547,-4.863 -6.431,-4.587 -6.219,-3.708C-5.89,-2.373 -5.562,-1.642 -5.022,-1.091C-4.238,-0.276 -2.754,0.138 -0.593,0.148C0.519,0.159 0.784,0.127 1.504,-0.117C2.447,-0.445 3.634,-1.028 4.333,-1.494C5.89,-2.553 7.405,-4.587 7.405,-5.604C7.405,-6.399 6.24,-9.026 5.361,-10.223C4.778,-11.007 3.687,-11.855 2.86,-12.173C2.182,-12.427 0.752,-12.533 0,-12.374" style="fill:rgb(39,39,61);"/>
            </g>
            <g transform="matrix(-0.331529,0.943445,0.943445,0.331529,789.161,597.817)">
                <path d="M1.771,-3.332C2.361,-3.731 2.675,-2.711 2.628,-0.594C2.585,1.063 2.291,1.837 1.771,1.654C1.382,1.517 1.317,0.933 1.448,-1.357C1.554,-3.161 1.565,-3.191 1.771,-3.332" style="fill:rgb(39,39,61);"/>
            </g>
            <g transform="matrix(1,0,0,1,793.005,601.816)">
                <path d="M0,-1.091C-0.191,-0.869 0.17,-0.582 1.017,-0.286C1.42,-0.148 1.96,0.074 2.235,0.201C2.511,0.339 2.807,0.424 2.892,0.392C3.136,0.297 3.189,0.021 3.009,-0.243C2.585,-0.89 0.35,-1.515 0,-1.091" style="fill:rgb(39,39,61);"/>
            </g>
            <g transform="matrix(1,0,0,1,785.504,612.568)">
                <path d="M0,-8.125C-0.795,-7.786 -0.869,-6.727 -0.201,-5.36C0.392,-4.173 1.165,-3.442 2.543,-2.786C3.38,-2.383 3.835,-2.076 4.524,-1.461C5.456,-0.614 5.975,-0.307 6.886,-0.063C7.946,0.212 8.655,0.075 9.196,-0.508C9.747,-1.122 9.842,-1.906 9.503,-3.008C9.227,-3.898 8.708,-4.491 7.458,-5.328C6.155,-6.197 5.106,-6.716 3.602,-7.214C2.913,-7.436 1.992,-7.775 1.536,-7.955C0.636,-8.326 0.487,-8.337 0,-8.125" style="fill:rgb(39,39,61);"/>
            </g>
            <g transform="matrix(1,0,0,1,811.725,619.667)">
                <path d="M0,-6.791C-0.36,-6.59 -0.222,-6.177 0.445,-5.467C0.795,-5.096 1.653,-4.058 2.373,-3.168C3.083,-2.289 4.026,-1.187 4.471,-0.742C5.17,-0.021 5.318,0.085 5.647,0.085C6.123,0.085 6.378,-0.18 6.378,-0.689C6.378,-0.985 6.25,-1.24 5.753,-1.897C3.888,-4.354 1.547,-6.505 0.392,-6.833C0.275,-6.876 0.095,-6.855 0,-6.791" style="fill:rgb(39,39,61);"/>
            </g>
            <g transform="matrix(1,0,0,1,740.861,631.056)">
                <path d="M0,-12.533C-1.345,-12.056 -2.257,-10.954 -3.602,-8.189C-4.598,-6.155 -4.894,-5.022 -4.905,-3.2C-4.916,-1.95 -4.894,-1.78 -4.661,-1.346C-4.322,-0.699 -4.047,-0.413 -3.464,-0.117C-2.86,0.19 -1.918,0.222 -1.303,-0.032C-0.222,-0.488 1.409,-1.907 2.225,-3.136C2.818,-3.994 3.719,-5.891 4.163,-7.172C4.492,-8.105 4.513,-8.274 4.513,-9.503C4.513,-10.668 4.481,-10.891 4.269,-11.325C3.994,-11.876 3.549,-12.152 2.945,-12.152C2.744,-12.152 2.32,-12.268 2.002,-12.416C1.367,-12.713 0.614,-12.755 0,-12.533" style="fill:rgb(39,39,61);"/>
            </g>
            <g transform="matrix(1,0,0,1,727.873,650.718)">
                <path d="M0,-12.374C-1.006,-12.099 -2.235,-11.336 -3.39,-10.276C-4.714,-9.058 -5.88,-7.003 -6.399,-4.979C-6.717,-3.74 -6.653,-2.225 -6.261,-1.452C-5.286,0.424 -3.221,0.424 -1.589,-1.441C-0.869,-2.267 0.286,-3.433 1.684,-4.746C2.701,-5.7 3.04,-6.261 3.369,-7.533C3.634,-8.571 3.75,-10.139 3.581,-10.34C3.517,-10.425 3.39,-10.732 3.305,-11.029C2.945,-12.247 1.589,-12.798 0,-12.374" style="fill:rgb(39,39,61);"/>
            </g>
            <g transform="matrix(1,0,0,1,845.276,624.54)">
                <path d="M0,-8.231C-1.134,-7.532 -1.78,-7.278 -3.062,-7.013C-6.24,-6.366 -8.168,-4.714 -8.147,-2.669C-8.136,-1.822 -7.882,-1.271 -7.193,-0.677C-5.933,0.435 -3.591,0.657 -1.536,-0.137C-0.17,-0.667 1.134,-1.822 2.151,-3.4C3.634,-5.71 3.517,-8.295 1.918,-8.697C1.165,-8.888 1.006,-8.845 0,-8.231" style="fill:rgb(39,39,61);"/>
            </g>
            <g transform="matrix(1,0,0,1,830.709,633.09)">
                <path d="M0,-5.435C-0.911,-5.244 -1.886,-4.746 -2.415,-4.227C-3.401,-3.231 -3.401,-1.664 -2.415,-0.911C-0.964,0.201 3.316,-0.233 4.524,-1.611C5.265,-2.458 5.212,-3.496 4.354,-4.344C3.856,-4.842 2.924,-5.287 2.352,-5.287C2.193,-5.287 1.97,-5.361 1.865,-5.446C1.61,-5.636 0.911,-5.636 0,-5.435" style="fill:rgb(39,39,61);"/>
            </g>
            <g transform="matrix(1,0,0,1,844.767,640.304)">
                <path d="M0,-10.234C-0.943,-9.884 -1.271,-9.228 -1.292,-7.628C-1.324,-6.219 -1.155,-5.435 -0.604,-4.333C-0.032,-3.189 0.403,-2.596 1.292,-1.78C2.161,-0.975 3.009,-0.456 3.941,-0.138C5.467,0.381 6.632,-0.032 7.034,-1.24C7.575,-2.892 5.933,-6.823 3.867,-8.825C2.617,-10.022 1.006,-10.615 0,-10.234" style="fill:rgb(39,39,61);"/>
            </g>
            <g transform="matrix(1,0,0,1,811.131,639.795)">
                <path d="M0,-6.706C-1.748,-6.092 -3.761,-4.598 -4.397,-3.432C-4.788,-2.712 -4.937,-1.949 -4.799,-1.42C-4.619,-0.773 -4.1,-0.138 -3.538,0.106C-2.829,0.424 -2.098,0.318 -0.127,-0.371C2.373,-1.239 2.882,-1.547 3.581,-2.585C4.026,-3.263 4.428,-4.375 4.428,-4.937C4.418,-5.117 4.269,-5.551 4.079,-5.901C3.771,-6.473 3.676,-6.558 3.157,-6.77C2.278,-7.13 1.144,-7.098 0,-6.706" style="fill:rgb(39,39,61);"/>
            </g>
            <g transform="matrix(1,0,0,1,859.027,658.113)">
                <path d="M0,-8.635C-0.551,-8.36 -0.805,-7.84 -0.858,-6.908C-0.911,-5.849 -0.689,-4.906 -0.085,-3.73C0.18,-3.221 0.392,-2.755 0.392,-2.692C0.392,-2.469 1.134,-1.569 1.78,-1.007C2.617,-0.276 3.263,0.063 4.047,0.179C5.297,0.381 6.198,-0.011 6.621,-0.944C6.844,-1.431 6.876,-1.632 6.833,-2.279C6.801,-2.724 6.685,-3.243 6.558,-3.539C6.272,-4.186 5.308,-5.15 3.973,-6.135C3.348,-6.601 2.754,-7.152 2.458,-7.544C1.621,-8.624 0.742,-9.016 0,-8.635" style="fill:rgb(39,39,61);"/>
            </g>
            <g transform="matrix(-0.741204,0.671279,0.671279,0.741204,762.01,644.104)">
                <path d="M0.2,-0.935C0.51,-0.972 0.877,-0.662 0.862,-0.362C0.848,-0.078 0.451,0.225 0.2,0.137C-0.124,0.016 -0.244,-0.162 -0.226,-0.492C-0.209,-0.851 -0.169,-0.886 0.2,-0.935" style="fill:rgb(39,39,61);"/>
            </g>
            <g transform="matrix(1,0,0,1,764.412,645.696)">
                <path d="M0,-1.546C-0.593,-0.836 0.381,0.138 1.038,-0.518C1.494,-0.974 1.176,-1.684 0.519,-1.684C0.297,-1.684 0.064,-1.62 0,-1.546" style="fill:rgb(39,39,61);"/>
            </g>
            <g transform="matrix(1,0,0,1,772.326,645.781)">
                <path d="M0,-1.356C-0.434,-1.006 -0.233,-0.085 0.318,0.064C1.081,0.254 1.579,-1.07 0.869,-1.441C0.561,-1.61 0.275,-1.578 0,-1.356" style="fill:rgb(39,39,61);"/>
            </g>
            <g transform="matrix(1,0,0,1,757.875,645.887)">
                <path d="M0,-1.229C-0.784,-0.784 -0.53,0.138 0.371,0.138C1.07,0.138 1.441,-0.625 0.975,-1.102C0.784,-1.293 0.244,-1.367 0,-1.229" style="fill:rgb(39,39,61);"/>
            </g>
            <g transform="matrix(1,0,0,1,783.841,646.015)">
                <path d="M0,-1.145C-0.212,-0.975 -0.275,-0.838 -0.275,-0.531C-0.275,-0.043 -0.021,0.222 0.445,0.222C1.176,0.222 1.494,-0.7 0.932,-1.145C0.773,-1.272 0.572,-1.367 0.466,-1.367C0.36,-1.367 0.159,-1.272 0,-1.145" style="fill:rgb(39,39,61);"/>
            </g>
            <g transform="matrix(1,0,0,1,777.337,645.983)">
                <path d="M0,-0.954C-0.159,-0.848 -0.233,-0.689 -0.233,-0.435C-0.233,-0.001 0.074,0.254 0.593,0.254C0.975,0.254 1.462,-0.138 1.462,-0.435C1.462,-0.53 1.345,-0.721 1.197,-0.859C0.9,-1.166 0.36,-1.208 0,-0.954" style="fill:rgb(39,39,61);"/>
            </g>
            <g transform="matrix(1,0,0,1,766.615,647.508)">
                <path d="M0,-1.165C-0.498,-0.667 -0.117,0.212 0.583,0.212C1.07,0.212 1.377,-0.095 1.377,-0.582C1.377,-0.815 1.292,-1.038 1.165,-1.165C1.038,-1.292 0.816,-1.377 0.583,-1.377C0.35,-1.377 0.127,-1.292 0,-1.165" style="fill:rgb(39,39,61);"/>
            </g>
            <g transform="matrix(1,0,0,1,761.371,648.027)">
                <path d="M0,-0.89C-0.509,-0.392 -0.201,0.328 0.53,0.328C1.356,0.328 1.621,-0.625 0.89,-0.996C0.477,-1.218 0.297,-1.197 0,-0.89" style="fill:rgb(39,39,61);"/>
            </g>
            <g transform="matrix(1,0,0,1,779.879,647.762)">
                <path d="M0,-0.657C-0.244,-0.413 -0.117,0.169 0.18,0.169C0.583,0.169 0.752,-0.318 0.445,-0.615C0.244,-0.816 0.17,-0.826 0,-0.657" style="fill:rgb(39,39,61);"/>
            </g>
            <g transform="matrix(-0.742245,0.670129,0.670129,0.742245,776.679,648.584)">
                <path d="M0.429,-1.309C0.907,-1.255 1.17,-0.978 1.142,-0.568C1.126,-0.111 0.833,0.181 0.429,0.161C0.04,0.142 -0.35,-0.291 -0.317,-0.635C-0.285,-0.978 0.116,-1.34 0.429,-1.309" style="fill:rgb(39,39,61);"/>
            </g>
            <g transform="matrix(1,0,0,1,771.542,648.991)">
                <path d="M0,-0.593C-0.191,-0.307 -0.117,-0.042 0.18,0.117C0.625,0.36 1.091,-0.085 0.9,-0.572C0.763,-0.943 0.233,-0.953 0,-0.593" style="fill:rgb(39,39,61);"/>
            </g>
            <g transform="matrix(1,0,0,1,768.13,649.447)">
                <path d="M0,-0.848C-0.297,-0.721 -0.381,-0.361 -0.18,-0.064C0,0.222 0.403,0.254 0.646,0.01C1.081,-0.414 0.572,-1.102 0,-0.848" style="fill:rgb(39,39,61);"/>
            </g>
            <g transform="matrix(1,0,0,1,764.444,651.258)">
                <path d="M0,-1.504C-0.519,-1.229 -0.614,-0.773 -0.254,-0.317C0.222,0.286 1.324,-0.169 1.176,-0.921C1.059,-1.515 0.509,-1.79 0,-1.504" style="fill:rgb(39,39,61);"/>
            </g>
            <g transform="matrix(1,0,0,1,786.246,652.349)">
                <path d="M0,-1.504C-0.657,-1.038 -0.117,0.212 0.561,-0.233C0.89,-0.445 0.922,-1.091 0.604,-1.43C0.339,-1.705 0.297,-1.716 0,-1.504" style="fill:rgb(39,39,61);"/>
            </g>
            <g transform="matrix(-0.358837,0.9334,0.9334,0.358837,779.25,651.512)">
                <path d="M0.045,-1.09C0.72,-1.399 1.357,-0.813 1.095,-0.131C0.943,0.265 0.44,0.48 0.045,0.328C-0.271,0.207 -0.518,-0.365 -0.392,-0.69C-0.339,-0.83 -0.142,-1.014 0.045,-1.09" style="fill:rgb(39,39,61);"/>
            </g>
            <g transform="matrix(1,0,0,1,773.194,651.872)">
                <path d="M0,-0.593C-0.254,-0.265 -0.265,-0.222 -0.106,0.127C0.138,0.668 0.985,0.71 1.25,0.202C1.684,-0.593 0.561,-1.303 0,-0.593" style="fill:rgb(39,39,61);"/>
            </g>
            <g transform="matrix(-0.823123,0.567863,0.567863,0.823123,769.067,651.957)">
                <path d="M0.373,-1.016C0.59,-1.037 0.913,-0.68 0.911,-0.422C0.909,-0.164 0.669,0.066 0.373,0.065C0.005,0.075 -0.229,-0.228 -0.149,-0.578C-0.081,-0.871 0.064,-0.996 0.373,-1.016" style="fill:rgb(39,39,61);"/>
            </g>
            <g transform="matrix(1,0,0,1,771.075,652.826)">
                <path d="M0,-1.356C-0.318,-1.017 -0.275,-0.487 0.117,-0.201C0.837,0.339 1.801,-0.752 1.155,-1.398C0.858,-1.695 0.297,-1.674 0,-1.356" style="fill:rgb(39,39,61);"/>
            </g>
            <g transform="matrix(-0.983922,0.1786,0.1786,0.983922,785.927,653.602)">
                <path d="M0.854,-1.105C1.253,-0.8 1.375,-0.607 1.404,-0.204C1.412,0.01 1.093,0.392 0.854,0.435C0.217,0.55 -0.448,-0.567 -0.073,-1.108C0.183,-1.478 0.368,-1.469 0.854,-1.105" style="fill:rgb(39,39,61);"/>
            </g>
            <g transform="matrix(-0.254743,0.967009,0.967009,0.254743,767.864,678.407)">
                <path d="M0.243,-0.537C0.536,-0.569 0.716,-0.291 0.629,0.037C0.559,0.302 0.51,0.323 0.243,0.252C-0.033,0.18 -0.053,0.13 -0.005,-0.175C0.036,-0.416 0.107,-0.518 0.243,-0.537" style="fill:rgb(39,39,61);"/>
            </g>
            <g transform="matrix(-0.54674,0.837303,0.837303,0.54674,733.6,681.088)">
                <path d="M0.349,-0.412C0.47,-0.383 0.538,-0.275 0.554,-0.126C0.559,0.08 0.53,0.124 0.349,0.17C0.173,0.207 0.12,0.172 0.077,0.005C-0.016,-0.259 0.125,-0.457 0.349,-0.412" style="fill:rgb(39,39,61);"/>
            </g>
            <g transform="matrix(1,0,0,1,766.319,682.753)">
                <path d="M0,-1.101C-0.233,-0.857 -0.297,-0.444 -0.148,-0.222C0.021,0.022 0.466,0.244 0.795,0.244C1.398,0.244 1.716,-0.328 1.42,-0.9C1.24,-1.249 1.07,-1.345 0.572,-1.345C0.35,-1.345 0.148,-1.26 0,-1.101" style="fill:rgb(39,39,61);"/>
            </g>
            <g transform="matrix(1,0,0,1,743.372,683.306)">
                <path d="M0,-1.145C-0.201,-0.986 -0.275,-0.827 -0.275,-0.573C-0.275,-0.192 0.106,0.222 0.466,0.222C0.826,0.222 1.208,-0.192 1.208,-0.573C1.208,-0.954 0.826,-1.367 0.466,-1.367C0.36,-1.367 0.159,-1.272 0,-1.145" style="fill:rgb(39,39,61);"/>
            </g>
            <g transform="matrix(1,0,0,1,738.986,683.347)">
                <path d="M0,-0.646C-0.297,-0.349 -0.011,0.18 0.466,0.18C0.752,0.18 0.932,-0.265 0.752,-0.551C0.614,-0.763 0.18,-0.826 0,-0.646" style="fill:rgb(39,39,61);"/>
            </g>
            <g transform="matrix(-0.693506,0.720451,0.720451,0.693506,748.244,684.359)">
                <path d="M-0.069,-1.432C0.673,-1.761 1.392,-0.659 0.818,-0.063C0.568,0.196 0.271,0.262 -0.069,0.126C-0.477,-0.031 -0.658,-0.425 -0.531,-0.877C-0.411,-1.261 -0.388,-1.284 -0.069,-1.432" style="fill:rgb(39,39,61);"/>
            </g>
            <g transform="matrix(1,0,0,1,736.348,685.033)">
                <path d="M0,-1.399C-0.773,-1.081 -0.508,0.127 0.339,0.127C1.176,0.127 1.451,-0.965 0.699,-1.346C0.36,-1.526 0.328,-1.526 0,-1.399" style="fill:rgb(39,39,61);"/>
            </g>
            <g transform="matrix(1,0,0,1,763.649,685.127)">
                <path d="M0,-1.197C-0.286,-1.102 -0.53,-0.826 -0.53,-0.593C-0.53,-0.095 0.212,0.18 0.572,-0.18C0.985,-0.593 0.551,-1.377 0,-1.197" style="fill:rgb(39,39,61);"/>
            </g>
            <g transform="matrix(-0.988187,0.153252,0.153252,0.988187,742.08,686.123)">
                <path d="M0.636,-1.363C0.941,-1.335 1.266,-1.106 1.298,-0.898C1.345,-0.594 1.001,-0.112 0.636,0.02C0.015,0.234 -0.491,0.013 -0.57,-0.501C-0.653,-1.035 -0.101,-1.42 0.636,-1.363" style="fill:rgb(39,39,61);"/>
            </g>
            <g transform="matrix(1,0,0,1,766.117,687.511)">
                <path d="M0,-1.886C-0.339,-1.833 -0.561,-1.462 -0.561,-0.943C-0.561,-0.138 0.127,0.127 0.646,-0.498C1.218,-1.176 0.826,-2.013 0,-1.886" style="fill:rgb(39,39,61);"/>
            </g>
            <g transform="matrix(-0.419821,0.907607,0.907607,0.419821,763.542,687.108)">
                <path d="M0.03,-1.047C0.804,-1.331 1.423,-0.753 1.103,-0.06C0.978,0.209 0.28,0.481 0.03,0.366C-0.23,0.245 -0.473,-0.136 -0.473,-0.416C-0.47,-0.823 -0.425,-0.872 0.03,-1.047" style="fill:rgb(39,39,61);"/>
            </g>
            <g transform="matrix(1,0,0,1,744.537,687.468)">
                <path d="M0,-0.54C-0.085,-0.01 0.138,0.403 0.498,0.403C0.837,0.403 0.985,0.276 1.102,-0.116C1.24,-0.625 1.081,-0.879 0.646,-0.847C0.456,-0.837 0.244,-0.858 0.18,-0.9C0.117,-0.943 0.042,-0.805 0,-0.54" style="fill:rgb(39,39,61);"/>
            </g>
            <g transform="matrix(1,0,0,1,759.062,687.893)">
                <path d="M0,-0.191C-0.074,-0.011 0.191,0.233 0.35,0.137C0.403,0.106 0.456,-0.022 0.456,-0.138C0.456,-0.382 0.085,-0.424 0,-0.191" style="fill:rgb(39,39,61);"/>
            </g>
            <g transform="matrix(1,0,0,1,755.131,690.276)">
                <path d="M0,-1.07C-0.456,-0.614 0.095,0.244 0.848,0.244C1.515,0.244 1.727,-0.519 1.187,-1.028C0.911,-1.282 0.233,-1.314 0,-1.07" style="fill:rgb(39,39,61);"/>
            </g>
            <g transform="matrix(-0.896953,0.442126,0.442126,0.896953,761.196,690.74)">
                <path d="M0.574,-1.627C0.811,-1.649 1.268,-1.249 1.323,-0.968C1.434,-0.48 1.142,-0.089 0.574,0.027C0.071,0.133 -0.442,-0.501 -0.287,-1.025C-0.195,-1.319 0.209,-1.601 0.574,-1.627" style="fill:rgb(39,39,61);"/>
            </g>
            <g transform="matrix(-0.965511,0.260362,0.260362,0.965511,765.893,690.611)">
                <path d="M0.846,-1.288C0.986,-1.259 1.189,-1.117 1.304,-0.972C1.607,-0.583 1.397,-0.098 0.846,0.095C0.123,0.344 -0.48,-0.185 -0.207,-0.839C-0.051,-1.199 0.362,-1.377 0.846,-1.288" style="fill:rgb(39,39,61);"/>
            </g>
            <g transform="matrix(1,0,0,1,816.365,657.213)">
                <path d="M0,-0.774C-0.35,-0.255 0.222,0.328 0.742,-0.011C1.017,-0.191 1.091,-0.668 0.869,-0.891C0.657,-1.102 0.17,-1.039 0,-0.774" style="fill:rgb(39,39,61);"/>
            </g>
            <g transform="matrix(-0.765253,0.64373,0.64373,0.765253,818.576,659.802)">
                <path d="M0.544,-1.587C1.02,-1.598 1.459,-1.027 1.377,-0.515C1.298,-0.033 0.999,0.204 0.544,0.158C0.029,0.121 -0.255,-0.249 -0.215,-0.81C-0.17,-1.317 0.092,-1.58 0.544,-1.587" style="fill:rgb(39,39,61);"/>
            </g>
            <g transform="matrix(-0.447214,0.894427,0.894427,0.447214,823.251,660.626)">
                <path d="M-0.049,-0.902C0.396,-1.153 1.022,-0.58 0.799,-0.134C0.662,0.14 0.225,0.278 -0.049,0.14C-0.315,0.008 -0.476,-0.428 -0.358,-0.665C-0.329,-0.722 -0.191,-0.83 -0.049,-0.902" style="fill:rgb(39,39,61);"/>
            </g>
            <g transform="matrix(1,0,0,1,819.628,663.102)">
                <path d="M0,-1.398C-0.54,-1.176 -0.731,-0.455 -0.381,-0.021C-0.095,0.329 0.667,0.392 1.049,0.085C1.812,-0.519 0.922,-1.79 0,-1.398" style="fill:rgb(39,39,61);"/>
            </g>
            <g transform="matrix(-0.734745,0.678343,0.678343,0.734745,857.577,662.953)">
                <path d="M0.508,-1.247C0.851,-1.203 1.187,-0.763 1.143,-0.42C1.081,-0.017 0.95,0.091 0.508,0.065C0.081,0.055 -0.099,-0.109 -0.158,-0.516C-0.205,-0.848 0.195,-1.29 0.508,-1.247" style="fill:rgb(39,39,61);"/>
            </g>
            <g transform="matrix(1,0,0,1,823.717,664.861)">
                <path d="M0,-0.975C-0.339,-0.572 -0.021,0.233 0.487,0.233C1.049,0.233 1.261,-0.498 0.816,-0.911C0.53,-1.187 0.191,-1.208 0,-0.975" style="fill:rgb(39,39,61);"/>
            </g>
            <g transform="matrix(1,0,0,1,860.606,666.133)">
                <path d="M0,-1.706C-0.233,-1.611 -0.466,-1.039 -0.392,-0.71C-0.244,-0.043 0.53,0.127 1.059,-0.403C1.324,-0.678 1.367,-0.784 1.314,-1.07C1.282,-1.261 1.144,-1.494 1.028,-1.6C0.816,-1.77 0.297,-1.833 0,-1.706" style="fill:rgb(39,39,61);"/>
            </g>
            <g transform="matrix(-0.985456,0.169929,0.169929,0.985456,821.673,666.338)">
                <path d="M0.355,-1.312C0.655,-1.256 0.992,-0.917 1.043,-0.624C1.093,-0.333 0.699,0.123 0.355,0.182C0.041,0.236 -0.484,-0.125 -0.538,-0.438C-0.63,-0.971 -0.169,-1.416 0.355,-1.312" style="fill:rgb(39,39,61);"/>
            </g>
            <g transform="matrix(1,0,0,1,856.114,666.017)">
                <path d="M0,-0.753C-0.244,-0.223 0.392,0.381 0.826,0.031C1.006,-0.128 1.028,-0.721 0.848,-0.901C0.614,-1.134 0.138,-1.05 0,-0.753" style="fill:rgb(39,39,61);"/>
            </g>
            <g transform="matrix(-0.719291,0.694709,0.694709,0.719291,831.6,666.021)">
                <path d="M0.61,-1.612C0.939,-1.591 1.248,-1.286 1.368,-0.857C1.538,-0.3 1.155,0.173 0.61,0.096C0.116,0.028 0.029,-0.093 0.047,-0.761C0.051,-1.397 0.213,-1.642 0.61,-1.612" style="fill:rgb(39,39,61);"/>
            </g>
            <g transform="matrix(-0.813243,0.581925,0.581925,0.813243,826.591,665.798)">
                <path d="M0.409,-0.872C0.689,-0.826 0.869,-0.484 0.767,-0.19C0.683,0.038 0.637,0.084 0.409,0.092C0.103,0.102 -0.173,-0.156 -0.164,-0.436C-0.14,-0.675 0.173,-0.912 0.409,-0.872" style="fill:rgb(39,39,61);"/>
            </g>
            <g transform="matrix(1,0,0,1,858.349,667.689)">
                <path d="M0,-0.307C-0.18,-0.085 0,0.212 0.339,0.212C0.625,0.212 0.731,-0.085 0.54,-0.318C0.371,-0.519 0.18,-0.519 0,-0.307" style="fill:rgb(39,39,61);"/>
            </g>
            <g transform="matrix(-0.48213,0.8761,0.8761,0.48213,825.276,667.436)">
                <path d="M0.373,-0.57C0.618,-0.532 0.777,-0.227 0.665,-0.022C0.613,0.07 0.487,0.146 0.373,0.156C0.073,0.173 -0.087,-0.086 0.061,-0.355C0.138,-0.494 0.27,-0.579 0.373,-0.57" style="fill:rgb(39,39,61);"/>
            </g>
            <g transform="matrix(-0.720451,0.693506,0.693506,0.720451,865.573,668.188)">
                <path d="M0.55,-1.398C0.954,-1.374 1.373,-0.984 1.44,-0.564C1.507,-0.128 1.088,0.216 0.55,0.161C0.064,0.114 -0.055,0.022 -0.18,-0.43C-0.343,-0.965 0.003,-1.431 0.55,-1.398" style="fill:rgb(39,39,61);"/>
            </g>
            <g transform="matrix(-0.8623,0.506398,0.506398,0.8623,828.766,668.371)">
                <path d="M0.064,-1.012C0.449,-1.067 0.754,-0.693 0.623,-0.333C0.49,0.027 0.426,0.065 0.064,-0.029C-0.313,-0.128 -0.528,-0.493 -0.375,-0.755C-0.233,-0.974 -0.26,-0.958 0.064,-1.012" style="fill:rgb(39,39,61);"/>
            </g>
            <g transform="matrix(1,0,0,1,834.12,669.3)">
                <path d="M0,-1.176C-0.307,-0.964 -0.318,-0.371 -0.021,-0.074C0.434,0.381 1.25,0.042 1.25,-0.604C1.25,-1.229 0.54,-1.557 0,-1.176" style="fill:rgb(39,39,61);"/>
            </g>
            <g transform="matrix(1,0,0,1,861.538,670.083)">
                <path d="M0,-1.758C-0.074,-1.663 -0.138,-1.451 -0.127,-1.281C-0.095,-0.243 0.53,0.212 1.134,-0.391C1.367,-0.624 1.398,-0.73 1.345,-1.101C1.303,-1.377 1.197,-1.62 1.059,-1.726C0.773,-1.959 0.18,-1.97 0,-1.758" style="fill:rgb(39,39,61);"/>
            </g>
            <g transform="matrix(-0.783412,0.621503,0.621503,0.783412,832.397,669.105)">
                <path d="M0.525,-1.168C0.985,-1.1 1.299,-0.687 1.238,-0.218C1.186,0.228 0.993,0.394 0.525,0.401C0.253,0.399 0.119,0.331 -0.086,0.073C-0.56,-0.524 -0.195,-1.274 0.525,-1.168" style="fill:rgb(39,39,61);"/>
            </g>
            <g transform="matrix(-0.946668,0.322209,0.322209,0.946668,865.987,672.171)">
                <path d="M0.95,-0.793C1.121,-0.684 1.273,-0.533 1.296,-0.463C1.358,-0.283 1.12,0.201 0.95,0.259C0.304,0.467 -0.154,0.008 0.096,-0.603C0.242,-0.933 0.607,-1.012 0.95,-0.793" style="fill:rgb(39,39,61);"/>
            </g>
            <g transform="matrix(1,0,0,1,792.592,672.541)">
                <path d="M0,-0.54C-0.297,-0.243 -0.074,0.286 0.35,0.286C0.657,0.286 0.826,0.085 0.826,-0.254C0.826,-0.646 0.286,-0.826 0,-0.54" style="fill:rgb(39,39,61);"/>
            </g>
            <g transform="matrix(1,0,0,1,861.856,673.061)">
                <path d="M0,-0.975C-0.561,-0.414 0.148,0.413 0.795,-0.064C0.911,-0.149 0.985,-0.339 0.985,-0.551C0.985,-1.144 0.413,-1.388 0,-0.975" style="fill:rgb(39,39,61);"/>
            </g>
            <g transform="matrix(1,0,0,1,868.127,674.597)">
                <path d="M0,-0.583C-0.297,-0.286 -0.032,0.18 0.413,0.116C0.731,0.074 0.911,-0.233 0.763,-0.477C0.614,-0.7 0.18,-0.763 0,-0.583" style="fill:rgb(39,39,61);"/>
            </g>
            <g transform="matrix(-0.928529,0.371259,0.371259,0.928529,794.784,675.445)">
                <path d="M0.876,-1.059C1.065,-0.985 1.26,-0.813 1.315,-0.675C1.421,-0.41 1.161,0.139 0.876,0.253C0.345,0.465 -0.286,-0.343 0.025,-0.821C0.253,-1.163 0.486,-1.233 0.876,-1.059" style="fill:rgb(39,39,61);"/>
            </g>
            <g transform="matrix(1,0,0,1,796.882,675.634)">
                <path d="M0,-0.709C-0.36,-0.317 -0.095,0.244 0.381,0.117C0.752,0.033 0.869,-0.402 0.614,-0.688C0.381,-0.953 0.222,-0.953 0,-0.709" style="fill:rgb(39,39,61);"/>
            </g>
            <g transform="matrix(-0.694136,0.719844,0.719844,0.694136,866.413,676.242)">
                <path d="M0.468,-1.788C0.611,-1.783 0.852,-1.697 1.004,-1.595C1.678,-1.181 1.271,-0.072 0.468,-0.154C-0.26,-0.224 -0.551,-0.99 -0.051,-1.509C0.126,-1.692 0.326,-1.793 0.468,-1.788" style="fill:rgb(39,39,61);"/>
            </g>
            <g transform="matrix(1,0,0,1,795.346,678.464)">
                <path d="M0,-1.642C-0.18,-1.578 -0.551,-0.826 -0.551,-0.551C-0.551,0.042 0.371,0.403 0.911,0.021C1.801,-0.593 1.006,-2.045 0,-1.642" style="fill:rgb(39,39,61);"/>
            </g>
            <g transform="matrix(-0.491362,0.870955,0.870955,0.491362,868.469,677.993)">
                <path d="M-0.06,-0.791C0.407,-1.014 0.922,-0.505 0.672,-0.062C0.49,0.261 0.245,0.329 -0.06,0.157C-0.299,0.022 -0.479,-0.395 -0.375,-0.579C-0.349,-0.625 -0.205,-0.727 -0.06,-0.791" style="fill:rgb(39,39,61);"/>
            </g>
            <g transform="matrix(1,0,0,1,800.304,678.792)">
                <path d="M0,-0.508C-0.18,-0.296 -0.053,0.149 0.222,0.234C0.477,0.318 0.848,0.032 0.848,-0.243C0.848,-0.635 0.265,-0.826 0,-0.508" style="fill:rgb(39,39,61);"/>
            </g>
            <g transform="matrix(-0.796616,0.604486,0.604486,0.796616,798.937,679.715)">
                <path d="M0.321,-1.03C0.538,-1.061 0.87,-0.728 0.886,-0.461C0.909,-0.186 0.612,0.107 0.321,0.073C-0.023,0.042 -0.195,-0.186 -0.145,-0.557C-0.1,-0.884 0.014,-0.997 0.321,-1.03" style="fill:rgb(39,39,61);"/>
            </g>
            <g transform="matrix(1,0,0,1,798.705,683.103)">
                <path d="M0,-1.451C-0.699,-0.921 -0.434,0.212 0.392,0.212C1.208,0.212 1.706,-0.826 1.144,-1.356C0.869,-1.62 0.275,-1.663 0,-1.451" style="fill:rgb(39,39,61);"/>
            </g>
            <g transform="matrix(-0.934696,0.355448,0.355448,0.934696,836.868,693.186)">
                <path d="M1.037,-1.219C1.519,-0.994 1.667,-0.664 1.5,-0.181C1.406,0.08 1.275,0.21 1.037,0.301C0.354,0.56 -0.338,-0.185 -0.027,-0.859C0.175,-1.31 0.546,-1.439 1.037,-1.219" style="fill:rgb(39,39,61);"/>
            </g>
            <g transform="matrix(-0.655519,0.755179,0.755179,0.655519,839.247,695.776)">
                <path d="M0.457,-0.949C0.77,-0.972 0.918,-0.802 0.977,-0.385C1.022,-0.066 0.779,0.214 0.457,0.215C0.104,0.217 -0.074,0.049 -0.099,-0.309C-0.125,-0.683 0.083,-0.923 0.457,-0.949" style="fill:rgb(39,39,61);"/>
            </g>
            <g transform="matrix(-0.987625,0.156833,0.156833,0.987625,837.18,696.59)">
                <path d="M0.828,-0.785C0.913,-0.724 0.998,-0.523 1.028,-0.334C1.073,-0.052 1.034,0.041 0.828,0.158C0.504,0.35 0.176,0.241 0.035,-0.102C-0.166,-0.563 0.427,-1.076 0.828,-0.785" style="fill:rgb(39,39,61);"/>
            </g>
            <g transform="matrix(1,0,0,1,838.983,698.974)">
                <path d="M0,-0.975C-0.286,-0.615 -0.275,-0.477 0.021,-0.127C0.35,0.243 0.89,0.275 1.176,-0.075C1.42,-0.392 1.42,-0.625 1.144,-0.975C0.985,-1.176 0.826,-1.25 0.572,-1.25C0.318,-1.25 0.159,-1.176 0,-0.975" style="fill:rgb(39,39,61);"/>
            </g>
            <g transform="matrix(1,0,0,1,837.161,699.143)">
                <path d="M0,-0.508C-0.095,-0.391 -0.106,-0.296 -0.021,-0.169C0.233,0.244 0.848,-0.01 0.699,-0.466C0.614,-0.72 0.201,-0.752 0,-0.508" style="fill:rgb(39,39,61);"/>
            </g>
            <g transform="matrix(-0.474689,0.880153,0.880153,0.474689,843.616,699.551)">
                <path d="M0.25,-1.41C0.652,-1.53 1.08,-1.275 1.203,-0.835C1.393,-0.227 0.885,0.269 0.25,0.107C0.019,0.043 -0.058,-0.059 -0.17,-0.408C-0.316,-0.92 -0.166,-1.285 0.25,-1.41" style="fill:rgb(39,39,61);"/>
            </g>
            <g transform="matrix(-0.545708,0.837976,0.837976,0.545708,847.342,700.186)">
                <path d="M0.018,-1.493C0.413,-1.615 1.182,-1.164 1.198,-0.8C1.231,-0.172 0.533,0.259 0.018,-0.076C-0.203,-0.22 -0.29,-0.378 -0.352,-0.71C-0.432,-1.229 -0.363,-1.374 0.018,-1.493" style="fill:rgb(39,39,61);"/>
            </g>
        </g>
    </g>
</svg>
