<?xml version="1.0" encoding="UTF-8" standalone="no"?>
<!DOCTYPE svg PUBLIC "-//W3C//DTD SVG 1.1//EN" "http://www.w3.org/Graphics/SVG/1.1/DTD/svg11.dtd">
<svg width="100%" height="100%" viewBox="0 0 205 210" version="1.1" xmlns="http://www.w3.org/2000/svg" xmlns:xlink="http://www.w3.org/1999/xlink" xml:space="preserve" xmlns:serif="http://www.serif.com/" style="fill-rule:evenodd;clip-rule:evenodd;stroke-linejoin:round;stroke-miterlimit:2;">
    <g transform="matrix(1,0,0,1,-432,-557)">
        <g id="BACKGROUND">
        </g>
        <g id="OBJECTS">
        </g>
        <g id="Mesa-de-trabajo5" serif:id="Mesa de trabajo5" transform="matrix(1,0,0,1,-0.0285825,-0.219553)">
            <rect x="432.029" y="557.22" width="204.869" height="209.848" style="fill:none;"/>
            <g transform="matrix(1,0,0,1,-560.946,171.14)">
                <path d="M1123.7,462.199C1124.98,462.115 1128.42,461.956 1128.42,461.998C1128.42,462.019 1128.86,462.041 1129.4,462.041C1130.5,462.041 1132.82,462.274 1134.24,462.517C1139.72,463.471 1142.68,466.458 1147.27,475.686C1148.33,477.826 1151.69,485.199 1153.21,488.737C1155.66,494.448 1157.96,502.012 1158.52,506.112C1158.68,507.383 1158.68,510.445 1158.52,511.599C1158.05,514.778 1156.48,516.918 1153.88,517.903C1153.31,518.115 1153.09,518.136 1151.14,518.125C1148.69,518.125 1148.22,518.041 1145.76,517.246C1144.87,516.96 1143.65,516.6 1143.04,516.451C1140.58,515.869 1138.63,515.074 1134.14,512.828C1130.9,511.197 1126.53,508.803 1123.77,507.129L1122.28,506.228L1121.81,507.68C1121.16,509.65 1120.71,511.25 1120.5,512.404C1120.23,513.835 1120.26,517.892 1120.57,521.95C1120.7,523.719 1120.82,526.145 1120.83,527.406C1120.84,529.397 1120.82,529.757 1120.64,530.308C1120.39,531.061 1119.94,531.686 1119.32,532.12C1118.92,532.395 1118.78,532.438 1118.14,532.438C1117.48,532.438 1117.38,532.406 1117,532.099L1116.57,531.749L1116.46,532.47C1115.94,535.701 1115.58,540.362 1115.52,544.536C1115.49,546.655 1115.5,548.647 1115.55,548.964L1115.61,549.547L1115.87,552.905L1115.86,556.921C1115.86,561.264 1115.82,561.635 1115.23,563.436C1114.59,565.353 1113.3,566.762 1111.3,567.758C1109.5,568.659 1107.74,568.955 1104.21,568.977C1102.29,568.987 1101.75,568.955 1101.19,568.796C1100.13,568.51 1099.03,567.907 1098.25,567.186L1097.54,566.529L1097.01,566.932C1096.71,567.165 1096.24,567.419 1095.95,567.504C1095.66,567.589 1094.08,567.832 1092.45,568.034C1089,568.479 1085.21,568.638 1083.56,568.415C1080.43,567.991 1078.11,566.519 1076.98,564.22C1076.5,563.245 1076.28,562.207 1076.22,560.459L1076.17,559.029C1076.17,559.029 1076.62,554.257 1076.65,554.092C1076.75,553.615 1077.46,548.869 1077.62,547.693C1078.67,539.515 1078.05,530.192 1075.45,514.958C1075.22,513.612 1074.98,512.14 1074.92,511.674L1074.79,510.826L1073.94,511.25C1073.18,511.621 1072.98,511.674 1072.2,511.716C1070.22,511.79 1069.26,510.953 1068.67,508.612C1068.17,506.652 1068.16,504.056 1068.62,498.971C1069.22,492.339 1068.67,486.269 1066.97,481.057L1066.54,479.733L1066.25,480.072C1065.9,480.506 1064.27,482.286 1062.1,484.606C1061.2,485.57 1059.22,487.72 1057.7,489.373C1054.48,492.911 1052.5,494.914 1051.03,496.132C1048.26,498.431 1045.22,499.988 1042.26,500.624C1041.27,500.825 1040.86,500.846 1037.73,500.846C1034.95,500.857 1034.1,500.815 1033.28,500.677C1031.2,500.296 1029.29,499.628 1026.81,498.389C1023.03,496.492 1020.21,494.278 1018.21,491.63C1015.9,488.579 1014.6,486.025 1013.84,483.091C1013.2,480.548 1013.1,479.722 1013.12,476.289C1013.15,468.418 1013.68,465.102 1015.96,458.322C1017.03,455.123 1017.7,452.94 1018.12,451.129C1018.44,449.773 1019.4,444.783 1019.61,443.437C1019.88,441.636 1020.16,434.962 1020.03,433.172C1019.92,431.636 1019.76,430.714 1019.09,427.652C1018.34,424.294 1018.21,423.446 1018.21,421.677C1018.21,419.092 1018.74,417.313 1019.99,415.649C1021.78,413.287 1025.81,411.507 1030.37,411.073C1032.87,410.84 1035.72,411.253 1038.74,412.28C1040.21,412.789 1040.56,412.937 1044.04,414.473C1054.19,418.976 1056.92,420.12 1059.05,420.766C1060.72,421.275 1062.98,421.73 1065.36,422.048C1068,422.398 1069.25,422.482 1074.81,422.737C1080.75,423.012 1083.62,423.266 1086.68,423.807C1091.44,424.644 1095.45,426.265 1098.75,428.701C1102.02,431.117 1103.91,433.235 1105.15,435.873C1106.62,438.999 1107.01,442.039 1106.33,444.878C1106.25,445.196 1106.16,445.863 1106.13,446.361C1105.8,450.588 1103.17,455.504 1099.47,458.767C1097.86,460.187 1095.81,461.638 1093.84,462.761C1092.03,463.778 1088.88,465.123 1082.44,467.602C1080.17,468.482 1078.43,469.223 1077.32,469.785L1076.82,470.05L1078.32,471.787C1080.78,474.647 1082.39,476.374 1087.01,481.067C1092.65,486.799 1094.34,488.801 1095.67,491.386C1096.37,492.731 1096.95,494.342 1097.16,495.443C1097.59,497.753 1096.58,499.215 1094.87,498.77L1094.32,498.622L1094.63,499.162C1097.2,503.537 1099.96,511.091 1101.24,517.193L1101.65,519.121L1102.07,518.623C1102.3,518.358 1103.26,517.31 1104.2,516.292C1105.13,515.275 1106.16,514.131 1106.47,513.75C1107.49,512.468 1109.32,509.65 1110.06,508.156C1111.14,506.027 1112.37,503.219 1112.25,503.177C1111.99,503.092 1110.77,502.308 1110.05,501.779C1108.13,500.338 1104.05,496.408 1102.24,494.246C1101.04,492.827 1099.74,491.142 1098.91,489.956C1098.63,489.543 1098.02,488.812 1097.58,488.314C1094.38,484.765 1092.84,481.936 1092.52,479.055C1092.06,474.849 1095,470.495 1099.85,468.238C1100.9,467.751 1104.43,466.395 1106.38,465.727C1111.02,464.159 1119.06,462.517 1123.7,462.199ZM1121.54,488.07L1121.87,487.678L1120.61,487.689C1119.92,487.699 1119.05,487.742 1118.67,487.784C1118.29,487.837 1116.65,487.943 1115.02,488.038C1111.65,488.229 1110.17,488.42 1108.84,488.801C1107.94,489.066 1107.59,489.193 1105.38,490.115C1104.79,490.358 1103.81,490.687 1103.17,490.846C1102.55,491.015 1102.01,491.163 1101.97,491.195C1101.86,491.312 1104.7,494.765 1105.77,495.814L1106.23,496.27L1107.13,495.793C1107.66,495.507 1108.74,495.104 1109.82,494.765C1110.82,494.458 1111.93,494.087 1112.31,493.929C1114.22,493.145 1116.95,491.937 1118.14,491.365L1119.46,490.729L1120.34,489.596C1120.82,488.981 1121.36,488.292 1121.54,488.07ZM1061.44,449.91C1061.06,449.222 1060.71,448.639 1060.66,448.618C1060.43,448.565 1054.6,452.898 1053.25,454.116L1052.73,454.593L1053.57,455.642C1054.03,456.224 1054.86,457.241 1055.42,457.909C1058.56,461.659 1060.5,464.339 1062.97,468.344C1065.23,472.031 1066.12,473.758 1067.3,476.681C1069.33,481.767 1070.25,485.75 1070.68,491.375C1070.81,493.134 1070.81,497.086 1070.68,499.014C1070.63,499.798 1070.54,501.8 1070.51,503.463C1070.46,505.995 1070.47,506.641 1070.62,507.436C1070.97,509.406 1071.18,509.756 1072.03,509.756C1072.85,509.756 1073.65,509.311 1074.72,508.241C1075.86,507.097 1076.32,506.218 1076.92,503.919C1077.15,503.029 1077.47,502.065 1077.61,501.779C1078.4,500.221 1080.17,500.084 1081.46,501.493C1082.02,502.086 1082.34,502.605 1083.66,504.893C1084.22,505.889 1084.8,506.853 1084.95,507.044C1085.29,507.489 1085.8,507.807 1086.17,507.807C1086.51,507.807 1086.85,507.298 1087.3,506.122L1087.58,505.423L1087.58,496.842L1087.85,496.249C1088.27,495.369 1088.63,495.157 1089.78,495.115C1091.11,495.051 1092.07,495.295 1093.76,496.111C1094.55,496.482 1095.23,496.789 1095.29,496.789C1095.62,496.789 1094.94,494.342 1094.19,492.848C1092.97,490.422 1091.49,488.684 1085.46,482.593C1082.78,479.881 1080.03,477.042 1079.38,476.289C1075.1,471.395 1072.4,467.835 1069,462.591C1067.61,460.441 1062.67,452.167 1061.44,449.91ZM1042.75,465.823C1043.06,464.731 1043.31,463.841 1043.29,463.841C1043.22,463.841 1041.17,466.098 1039.78,467.708L1038.3,469.403L1037.86,471.628C1037.01,475.792 1036.86,476.395 1036.3,478.037C1036,478.938 1035.36,480.612 1034.9,481.745C1032.8,486.883 1032.22,489.49 1032.36,493.335C1032.39,494.331 1032.48,495.359 1032.54,495.624C1032.75,496.503 1034.29,497.795 1035.86,498.42C1036.25,498.579 1036.62,498.675 1036.67,498.643C1036.8,498.569 1037.05,497.753 1037.25,496.842C1037.5,495.645 1037.62,493.78 1037.68,490.062C1037.81,482.529 1038.17,479.203 1039.17,476.025C1039.38,475.357 1039.98,473.758 1040.49,472.476C1041.55,469.817 1041.95,468.619 1042.75,465.823ZM1047.3,460.314C1047.38,459.922 1047.45,459.604 1047.44,459.604C1047.43,459.604 1046.86,460.165 1046.18,460.854L1044.94,462.104L1044.63,463.206C1043.76,466.405 1042.68,469.52 1041.37,472.635C1039.77,476.395 1039.38,478.165 1039.06,483.282C1038.97,484.68 1038.86,487.752 1038.79,490.115C1038.69,494.712 1038.54,496.408 1038.11,497.806C1037.99,498.272 1037.84,498.717 1037.8,498.812C1037.73,498.95 1037.83,498.992 1038.38,499.056C1039.78,499.194 1041.45,499.067 1042.76,498.706C1043.19,498.6 1043.2,498.569 1043.38,497.891C1043.74,496.545 1043.8,494.946 1043.62,491.502C1043.43,487.901 1043.41,484.288 1043.56,481.798C1043.61,480.866 1043.71,479.15 1043.77,477.985C1044.1,471.543 1044.56,469.075 1046.5,462.994C1046.85,461.913 1047.21,460.716 1047.3,460.314ZM1066.89,453.883C1066.09,453.597 1065.4,453.353 1065.36,453.353C1065.32,453.353 1065.56,453.777 1065.89,454.307L1066.5,455.26L1067.45,455.568C1067.98,455.748 1069,456.034 1069.72,456.214C1072.5,456.913 1073.42,457.294 1075.5,458.597C1077.66,459.953 1081.57,461.807 1084.88,463.047C1085.61,463.322 1086.34,463.587 1086.51,463.64C1086.76,463.714 1087.08,463.608 1088.57,462.92C1089.54,462.485 1090.76,461.913 1091.27,461.649L1092.21,461.182L1091.17,460.812C1090.59,460.6 1089.05,460.059 1087.74,459.604C1086.42,459.148 1084.47,458.449 1083.4,458.068C1080.98,457.199 1080.08,456.955 1077.41,456.468C1073.23,455.716 1069.17,454.72 1066.89,453.883ZM1052.45,457.644C1052.33,457.411 1051.99,456.945 1051.67,456.606C1051.18,456.055 1051.1,456.002 1050.97,456.161C1050.85,456.309 1050.87,456.595 1051.09,458.047C1051.31,459.53 1051.35,460.123 1051.34,462.358C1051.34,464.912 1051.32,465.017 1050.78,468.662C1049.79,475.463 1049.55,478.355 1049.64,482.275C1049.7,485.294 1049.83,486.883 1050.14,488.526C1050.25,489.14 1050.42,490.041 1050.51,490.538C1050.6,491.036 1050.68,492.022 1050.69,492.731C1050.7,493.452 1050.74,494.034 1050.78,494.034C1050.83,494.034 1051.94,492.954 1053.25,491.63C1054.82,490.051 1055.62,489.161 1055.59,489.055C1055.56,488.971 1055.37,488.42 1055.16,487.837C1054.03,484.68 1053.6,479.807 1053.99,474.181C1054.39,468.471 1054.01,462.517 1053.03,459.307C1052.83,458.629 1052.56,457.877 1052.45,457.644ZM1129.6,492.551C1129.54,492.011 1129.44,491.524 1129.4,491.481C1129.36,491.439 1129.19,491.619 1129.04,491.894C1128.75,492.435 1126.88,495.899 1126,497.53C1125.23,498.982 1124.16,501.344 1123.33,503.389L1122.61,505.169L1123.84,505.804C1128.9,508.442 1129.61,508.792 1129.54,508.591C1129.36,508.146 1128.95,506.09 1128.79,504.893C1128.49,502.541 1128.6,500.571 1129.2,497.276C1129.65,494.903 1129.74,493.695 1129.6,492.551ZM1073.66,463.683C1072.75,463.291 1071.85,462.888 1071.66,462.772C1071.47,462.666 1071.32,462.602 1071.32,462.623C1071.32,462.793 1075.74,468.831 1075.98,468.98C1076.02,469.011 1076.51,468.747 1077.06,468.408C1077.61,468.058 1078.33,467.645 1078.66,467.486C1078.99,467.316 1079.26,467.157 1079.26,467.126C1079.26,467.02 1076.82,465.272 1076.04,464.806C1075.64,464.572 1074.57,464.064 1073.66,463.683ZM1034.61,413.626C1033.59,413.425 1030.21,413.191 1030.21,413.319C1030.21,413.34 1030.32,413.626 1030.44,413.944C1030.62,414.41 1030.68,414.749 1030.68,415.639C1030.69,416.635 1030.65,416.815 1030.4,417.366C1030.04,418.139 1029.16,419.061 1028.47,419.4C1028.18,419.548 1027.51,419.781 1027,419.919C1025.81,420.247 1025.24,420.586 1024.33,421.508C1023.78,422.069 1023.44,422.535 1023.02,423.351C1022.6,424.135 1022.21,424.686 1021.63,425.311L1020.82,426.18L1021.32,428.436C1022.02,431.54 1022.16,432.769 1022.16,435.587C1022.15,438.384 1022.01,441.954 1021.83,443.512L1021.7,444.624L1022.05,445.291C1022.51,446.149 1022.92,446.488 1024.51,447.315C1026.03,448.12 1026.7,448.724 1027.35,449.879C1028.34,451.648 1028.45,453.078 1027.74,454.466C1027.35,455.239 1027,455.695 1025.63,457.22C1024.01,459.042 1023.98,460.197 1025.47,463.121C1026.85,465.812 1027.24,468.132 1026.57,469.615C1026.23,470.367 1025.73,470.887 1024.17,472.137C1021.85,474.001 1019.46,476.607 1018.31,478.535C1017.37,480.103 1016.88,481.311 1016.6,482.837L1016.32,484.288L1016.76,485.294C1017.84,487.763 1020.24,491.163 1021.97,492.678C1023.79,494.278 1025.59,495.443 1028.36,496.789C1029.79,497.488 1031.93,498.378 1032.18,498.378C1032.22,498.378 1031.71,497.817 1031.05,497.128C1028.74,494.744 1028,493.303 1027.52,490.221C1027.28,488.632 1027.22,487.403 1027.35,486.036C1027.58,483.462 1028.2,481.163 1029.28,478.885C1029.78,477.815 1029.8,477.751 1029.68,477.306C1029.62,477.042 1029.53,476.184 1029.5,475.4C1029.45,474.16 1029.48,473.832 1029.67,473.016C1029.9,472.031 1030.8,469.997 1032.17,467.39C1033.03,465.748 1033.41,464.647 1033.65,463.047C1033.9,461.468 1034.1,460.674 1034.42,460.038C1034.8,459.254 1035.86,458.195 1036.63,457.824C1037.18,457.57 1037.38,457.538 1038.26,457.549C1039.03,457.549 1039.44,457.612 1039.96,457.792C1040.88,458.11 1042.4,458.884 1043.04,459.339C1043.33,459.54 1043.59,459.71 1043.63,459.71C1043.67,459.71 1044.64,458.788 1045.78,457.665C1049.85,453.671 1051.64,452.072 1054.26,450.101C1055.35,449.285 1055.37,449.254 1055.4,448.798C1055.46,448.088 1054.88,447.071 1053.67,445.683C1051.48,443.204 1050.87,441.753 1051.09,439.56C1051.34,437.07 1052.59,434.687 1053.97,434.041C1055.12,433.5 1056.07,433.553 1058.79,434.348C1060.77,434.92 1062.14,435.153 1063.48,435.153C1065.14,435.153 1065.64,434.888 1067.79,432.886C1069.65,431.138 1070.84,430.587 1072.94,430.502C1076.22,430.354 1078.81,431.424 1081.47,434.009C1082.15,434.655 1083.04,435.492 1083.46,435.852C1083.87,436.212 1084.27,436.668 1084.35,436.848C1084.43,437.039 1084.49,437.208 1084.51,437.219C1084.52,437.24 1084.89,437.176 1085.33,437.092C1087.31,436.71 1091.8,436.17 1093.4,436.117C1095.69,436.043 1097.76,436.339 1099.87,437.06C1101.1,437.484 1102.85,438.522 1103.79,439.38C1104.32,439.867 1104.35,439.814 1104.1,438.935C1103.82,437.929 1103.62,437.462 1103.47,437.462C1103.38,437.462 1103.16,437.325 1102.97,437.155C1101.87,436.191 1097.79,433.998 1095.68,433.235C1092.99,432.261 1092.43,432.028 1091.77,431.583C1090.78,430.926 1089.56,429.612 1089.12,428.722C1088.86,428.193 1088.75,427.811 1088.7,427.186C1088.66,426.72 1088.61,426.328 1088.57,426.296C1088.48,426.19 1086.04,425.703 1084.62,425.491C1081.43,425.025 1078.49,424.803 1073.91,424.686L1071.16,424.612L1071.03,424.93C1070.79,425.491 1069.72,426.667 1069.06,427.091C1068.3,427.589 1067.38,427.885 1066.02,428.087C1064.22,428.362 1063.2,428.256 1059.75,427.462C1056.58,426.72 1055.85,426.625 1054.06,426.688C1051.35,426.773 1049.63,427.451 1047.81,429.146C1046.5,430.364 1046.03,430.619 1045.01,430.608C1044.41,430.608 1044.17,430.544 1043.47,430.205C1041.69,429.326 1040.2,427.229 1039.58,424.739C1039.47,424.315 1039.39,423.372 1039.36,422.207C1039.3,420.215 1039.36,419.781 1039.97,418.213C1040.22,417.556 1040.22,417.556 1040.02,416.995C1039.91,416.688 1039.64,416.094 1039.39,415.67L1038.96,414.908L1037.37,414.378C1036.49,414.092 1035.25,413.753 1034.61,413.626ZM1090.97,500.709C1090.31,498.706 1089.72,497.043 1089.65,497.022C1089.45,496.958 1089.4,497.764 1089.5,499.374C1089.55,500.253 1089.59,501.969 1089.59,503.198C1089.59,505.179 1089.56,505.518 1089.35,506.249C1088.87,507.902 1088.01,509.226 1087.15,509.618C1085.95,510.169 1084.34,509.555 1083.38,508.156C1083.2,507.902 1082.59,506.8 1081.99,505.709C1080.75,503.4 1080.26,502.626 1079.85,502.404C1079.59,502.255 1079.56,502.255 1079.38,502.478C1079.27,502.605 1079.01,503.421 1078.78,504.279C1078.57,505.137 1078.31,506.059 1078.21,506.324L1078.02,506.8L1078.5,508.124C1080.42,513.559 1081.15,516.028 1081.54,518.422C1081.7,519.344 1081.7,519.587 1081.59,519.725C1081.4,519.958 1081.09,519.916 1080.9,519.64C1080.82,519.502 1080.42,518.104 1080.01,516.536C1079.3,513.803 1078.62,511.366 1077.88,508.951L1077.53,507.828L1077.13,508.421C1076.91,508.76 1076.47,509.279 1076.16,509.586L1075.59,510.148L1076.1,512.288C1077.23,516.971 1077.95,520.806 1078.73,526.24C1079.55,531.919 1079.83,535.701 1079.83,540.807C1079.83,544.865 1079.75,546.136 1079.1,551.189C1078.21,558.171 1078.19,561.54 1079.05,563.266C1079.38,563.944 1080.25,564.887 1080.91,565.3C1081.24,565.502 1083.12,566.18 1083.34,566.18C1083.37,566.18 1083.26,565.904 1083.09,565.576C1082.61,564.633 1082.37,563.69 1082.06,561.709C1081.72,559.474 1081.61,556.603 1081.79,554.834C1081.87,554.166 1082.08,552.619 1082.28,551.401C1082.84,547.979 1082.98,546.432 1083.04,542.714C1083.09,540.224 1083.05,538.551 1082.93,536.411C1082.83,534.811 1082.7,532.639 1082.64,531.59C1082.59,530.541 1082.44,528.645 1082.32,527.374C1082.21,526.103 1082.14,524.969 1082.17,524.852C1082.22,524.715 1082.33,524.651 1082.56,524.651C1082.82,524.651 1082.9,524.715 1083.03,525.022C1083.43,526.007 1083.8,529.27 1084.13,535.139C1084.55,542.248 1084.38,546.772 1083.5,552.09C1082.99,555.162 1082.94,555.925 1083,558.817C1083.06,561.338 1083.23,563.298 1083.5,564.294C1083.56,564.548 1083.78,565.099 1083.99,565.512L1084.36,566.286L1085.79,566.286C1086.58,566.286 1087.21,566.254 1087.18,566.201C1086.17,564.22 1085.95,562.006 1086.4,558.478C1086.55,557.355 1086.68,557.037 1086.96,557.143C1087.1,557.196 1087.11,557.471 1087.05,559.336C1086.98,561.222 1086.99,561.582 1087.18,562.472C1087.44,563.722 1087.92,564.877 1088.51,565.682L1088.95,566.296L1089.75,566.233C1090.18,566.201 1090.77,566.148 1091.03,566.116L1091.52,566.053L1091.33,565.396C1090.79,563.637 1090.6,561.762 1090.6,558.287C1090.6,554.759 1090.92,551.91 1091.77,548.117C1092.57,544.557 1092.73,543.773 1093.19,541.019C1093.91,536.718 1094.02,535.648 1093.95,533.126C1093.91,531.41 1093.85,530.732 1093.66,529.895C1093.36,528.55 1093.34,528.221 1093.59,528.168C1093.83,528.126 1094.09,528.698 1094.4,529.895C1095.36,533.741 1095.04,538.762 1093.29,546.687C1092.13,551.952 1091.92,553.891 1092.01,558.446C1092.07,561.879 1092.16,562.832 1092.67,564.845L1092.96,565.989L1094.35,565.915C1095.71,565.841 1095.99,565.767 1096.51,565.364L1096.74,565.173L1096.49,564.527C1095.76,562.726 1095.47,560.724 1095.47,557.408C1095.47,553.139 1095.68,550.893 1096.43,547.005C1097.28,542.65 1099.67,531.982 1099.97,531.209C1100.01,531.092 1099.94,530.997 1099.73,530.912C1099.25,530.711 1098.54,529.959 1098.27,529.355C1097.92,528.624 1097.77,527.702 1097.84,526.908C1097.99,525.499 1098.8,523.295 1099.77,521.685C1100.25,520.89 1100.32,520.7 1100.24,520.498C1100.17,520.361 1099.92,519.28 1099.65,518.083C1099.04,515.307 1098.64,513.845 1097.53,510.243C1096.13,505.762 1095.18,503.198 1093.64,499.66L1092.87,497.922L1092.13,497.583C1091.73,497.393 1091.17,497.191 1090.89,497.139L1090.41,497.033L1090.65,497.679C1090.79,498.039 1091.03,498.632 1091.19,499.014C1091.34,499.395 1091.75,500.465 1092.1,501.397C1092.45,502.33 1093.34,504.639 1094.09,506.535C1095.64,510.455 1095.89,511.239 1096.56,513.909C1097.4,517.214 1097.55,518.485 1097.17,518.941C1097.01,519.153 1096.94,519.174 1096.71,519.068C1096.5,518.962 1096.41,518.824 1096.32,518.327C1095.58,514.576 1094.71,511.483 1093.3,507.542C1092.67,505.794 1091.62,502.722 1090.97,500.709ZM1135.04,495.433C1133.65,494.31 1133.69,494.31 1133.99,495.316C1134.29,496.355 1134.5,497.711 1134.72,500.126C1134.92,502.351 1135.03,502.965 1135.43,504.576C1135.71,505.667 1137.59,511.324 1138.01,512.309C1138.12,512.616 1138.28,512.701 1139.59,513.199C1141.1,513.771 1143.26,514.407 1144.15,514.544C1144.61,514.608 1144.65,514.597 1144.59,514.439C1144.55,514.343 1144.29,513.485 1143.99,512.542C1143.04,509.502 1142.97,509.375 1141.11,506.324C1139.49,503.675 1138.11,501.344 1137.74,500.603C1137.55,500.221 1137.07,499.077 1136.69,498.06L1135.98,496.206L1135.04,495.433ZM1131.63,464C1130.13,463.852 1127.45,463.82 1126.01,463.916L1125.45,463.958L1125.45,464.35C1125.45,465.399 1125.97,466.225 1127.88,468.238C1128.65,469.054 1129.59,470.103 1129.97,470.569C1131.63,472.613 1133.09,475.527 1133.4,477.37C1133.7,479.235 1132.82,481.364 1131.45,482.095C1131.1,482.286 1130.83,482.328 1130.06,482.328C1129.2,482.328 1129.03,482.296 1128.38,481.989C1127.45,481.544 1126.74,480.834 1124.94,478.504C1123.49,476.618 1122.32,475.4 1121.51,474.923C1120.79,474.51 1120.18,474.436 1118.89,474.605C1114.83,475.145 1114.12,475.167 1112.63,474.743C1110.69,474.202 1109.41,473.037 1108.69,471.151C1108.54,470.77 1108.3,470.124 1108.14,469.7C1107.85,468.958 1107.1,467.761 1106.91,467.761C1106.77,467.761 1101.82,469.488 1100.84,469.869C1100.38,470.05 1099.81,470.304 1099.57,470.42C1099.18,470.622 1099.16,470.653 1099.35,470.749C1099.45,470.812 1099.73,471.035 1099.95,471.247C1101.06,472.285 1101.04,473.609 1099.91,474.584C1099.27,475.124 1098.76,475.336 1097.43,475.654C1096,475.993 1095.39,476.311 1094.55,477.158C1093.99,477.72 1093.88,477.889 1093.88,478.186C1093.88,478.927 1094.12,480.241 1094.43,481.216C1094.73,482.148 1095.55,484.023 1095.64,483.949C1095.66,483.928 1095.57,483.525 1095.44,483.07C1095.27,482.413 1095.21,481.915 1095.2,480.845C1095.2,479.542 1095.21,479.436 1095.49,478.917C1095.85,478.249 1096.38,477.688 1096.95,477.402C1097.99,476.872 1099.79,476.734 1101.56,477.042C1103.84,477.434 1108.1,478.663 1110.99,479.754C1112.89,480.474 1116.81,482.116 1118.37,482.847C1119.69,483.451 1123.29,485.358 1125.06,486.375C1125.94,486.883 1126.47,487.127 1126.54,487.064C1126.81,486.862 1128.1,486.417 1128.87,486.258C1131.46,485.718 1135.04,486.597 1136.69,488.176C1137.35,488.801 1139.49,491.905 1140.1,493.134C1140.63,494.204 1141.11,495.698 1141.37,497.17L1141.61,498.452L1143.78,500.688L1145.95,502.923L1146.43,502.817C1147.3,502.616 1148.71,502.859 1150.29,503.463C1150.75,503.643 1151.61,503.866 1152.2,503.95C1154.74,504.321 1155.52,504.713 1156.46,506.059L1156.83,506.588L1156.76,506.112C1156.53,504.628 1155.71,501.429 1154.81,498.59C1154.19,496.651 1153.66,495.655 1152.73,494.755C1152.32,494.342 1151.03,493.325 1150.45,492.943C1149.53,492.329 1147.63,491.619 1146.45,491.428C1144.28,491.089 1143.59,490.793 1142.62,489.733C1141.3,488.292 1141.23,486.958 1142.37,485.188C1143.37,483.663 1143.47,483.017 1142.93,481.873C1142.25,480.442 1141.24,479.182 1139.36,477.487C1137.79,476.067 1136.94,475.071 1136.42,474.001C1135.88,472.942 1135.69,472.19 1135.75,471.321C1135.9,469.075 1137.73,467.825 1140.18,468.291C1140.48,468.355 1140.76,468.376 1140.79,468.344C1140.88,468.259 1139.3,466.702 1138.59,466.172C1136.75,464.827 1135.22,464.339 1131.63,464ZM1055.31,460.886C1054.76,460.218 1054.23,459.583 1054.13,459.456C1053.9,459.17 1053.9,459.191 1054.15,460.081C1054.95,462.856 1055.41,468.312 1055.18,472.317C1055.01,475.23 1055.02,480.22 1055.2,481.692C1055.42,483.621 1055.82,485.538 1056.24,486.841L1056.64,488.081L1059.21,485.453L1061.78,482.837L1061.26,481.682C1060.15,479.182 1059.86,477.9 1059.61,474.012C1059.4,470.728 1058.81,467.136 1058.15,464.996C1057.87,464.128 1057.32,463.322 1055.31,460.886ZM1101.33,478.938C1100.76,478.853 1100.06,478.779 1099.76,478.79C1099.09,478.8 1098.14,479.002 1097.82,479.203C1097.12,479.648 1096.92,480.697 1097.21,482.307L1097.39,483.303L1098.2,482.953C1098.65,482.762 1099.4,482.529 1099.87,482.434C1101.02,482.19 1103.6,482.18 1105.27,482.423C1105.97,482.519 1107.55,482.646 1108.77,482.699C1109.99,482.762 1111.56,482.847 1112.26,482.911C1113.86,483.038 1113.9,483.038 1113.69,482.921C1113.61,482.868 1112.77,482.508 1111.84,482.116C1108.59,480.76 1103.8,479.309 1101.33,478.938ZM1107.18,527.448C1107.49,526.219 1107.65,525.393 1107.63,525.086L1107.6,524.598L1107.13,525.393C1106.87,525.827 1106.46,526.548 1106.19,526.982C1104.8,529.323 1103.18,530.828 1101.71,531.135C1101.11,531.262 1101.08,531.272 1101.02,531.633C1100.86,532.618 1099.93,537.565 1099.07,541.972C1097.35,550.797 1097.24,551.677 1097.23,556.645C1097.23,559.622 1097.25,560.12 1097.46,561.211C1097.87,563.436 1098.64,565.089 1099.61,565.883C1100,566.201 1100.86,566.709 1101.01,566.709C1101.03,566.709 1100.84,566.01 1100.59,565.142C1099.81,562.557 1099.67,561.635 1099.66,558.764C1099.65,556.984 1099.7,556.115 1099.8,555.713C1099.95,555.109 1100.24,554.844 1100.51,555.067C1100.63,555.162 1100.66,555.628 1100.66,557.588C1100.66,560.109 1100.79,561.963 1101.03,563.107C1101.23,564.04 1102.03,566.953 1102.1,567.027C1102.13,567.059 1102.97,567.08 1103.97,567.08L1105.76,567.08L1106.07,566.709C1106.85,565.788 1106.94,565.438 1107.23,562.09C1107.67,557.058 1107.76,555.829 1107.76,554.622C1107.76,553.329 1107.84,553.086 1108.26,553.17C1108.63,553.244 1108.71,553.658 1108.71,555.459C1108.71,556.995 1108.6,558.69 1108.17,563.574C1108.05,565.014 1107.85,565.968 1107.59,566.36C1107.39,566.678 1107.49,566.667 1108.14,566.296C1109.67,565.417 1110.69,563.351 1111.03,560.512C1111.34,557.863 1111.27,555.999 1110.7,552.863C1110.5,551.719 1110.46,551.147 1110.47,549.229C1110.47,547.026 1110.56,545.786 1110.89,542.979C1111.08,541.4 1111.17,541.146 1111.5,541.199C1111.7,541.231 1111.73,541.305 1111.76,541.761C1111.78,542.047 1111.72,543.339 1111.62,544.621C1111.52,545.903 1111.43,547.81 1111.43,548.859C1111.42,550.829 1111.44,551.051 1112.05,554.156C1112.9,558.457 1112.23,563.457 1110.53,565.608C1109.9,566.423 1109.91,566.445 1110.84,565.957C1112.98,564.845 1113.85,563.129 1114.13,559.484C1114.25,557.694 1114.2,555.459 1113.93,551.507C1113.72,548.456 1113.7,543.074 1113.88,541.072C1114.3,536.58 1115.13,531.495 1115.69,530.033C1115.78,529.8 1115.74,529.44 1115.49,528.338C1115.11,526.611 1114.97,526.166 1114.85,526.367C1114.79,526.442 1114.6,526.961 1114.42,527.512C1113.81,529.376 1112.79,531.167 1111.78,532.162C1110.4,533.518 1108.56,533.582 1107.44,532.311C1106.53,531.272 1106.48,530.202 1107.18,527.448ZM1067.15,446.245C1066.06,446.075 1065.05,445.938 1064.93,445.948C1064.71,445.948 1061.93,447.611 1062.01,447.686C1062.17,447.845 1065.32,448.883 1066.82,449.275C1067.87,449.55 1069.25,449.91 1069.88,450.08C1072.58,450.8 1075.38,451.235 1078.31,451.394C1078.92,451.425 1080.75,451.521 1082.39,451.605C1085.76,451.786 1086.55,451.87 1089.43,452.305C1094.02,452.993 1097.19,453.83 1099.25,454.879C1099.56,455.027 1099.82,455.154 1099.86,455.154C1099.89,455.154 1100.29,454.646 1100.76,454.021C1101.54,452.972 1102.99,450.398 1102.99,450.048C1102.99,449.868 1101.7,449.243 1100.65,448.925C1099.04,448.427 1095.03,447.972 1090.17,447.739C1088.92,447.686 1087.59,447.601 1087.21,447.558C1086.83,447.516 1083.83,447.484 1080.53,447.474C1074.1,447.453 1073.92,447.442 1070.6,446.828C1069.8,446.679 1068.24,446.425 1067.15,446.245ZM1097.09,438.617C1096.3,438.437 1095.59,438.384 1094.04,438.352C1092.23,438.32 1091.75,438.352 1089.29,438.681C1087.8,438.882 1086.01,439.136 1085.32,439.263C1083.71,439.549 1075.36,441.679 1076.4,441.541C1077.71,441.361 1079.61,441.266 1080.74,441.329C1082.11,441.393 1086.02,441.658 1087.17,441.753C1087.54,441.785 1089.81,441.859 1092.24,441.912C1094.66,441.975 1097.1,442.071 1097.67,442.134C1099.24,442.304 1101.22,442.728 1102.55,443.173C1103.86,443.618 1103.86,443.628 1103.52,442.749C1103.2,441.901 1102.8,441.393 1101.9,440.725C1100.33,439.571 1099.2,439.073 1097.09,438.617ZM1061.23,469.213C1060.48,468.005 1059.83,467.02 1059.8,467.02C1059.77,467.02 1059.77,467.126 1059.81,467.253C1060.05,468.164 1060.63,471.427 1060.72,472.476C1061.02,475.749 1061.16,476.978 1061.3,477.667C1061.56,478.864 1061.99,480.368 1062.33,481.195L1062.65,481.957L1064.02,480.644C1064.77,479.913 1065.56,479.213 1065.8,479.076L1066.2,478.843L1065.59,477.349C1064.51,474.7 1063.71,473.217 1061.23,469.213ZM1064.09,449.635C1063.8,449.529 1063.34,449.338 1063.04,449.222C1062.75,449.105 1062.52,449.042 1062.54,449.095C1062.55,449.148 1062.98,449.815 1063.48,450.578L1064.37,451.966L1065.7,452.453C1066.43,452.718 1067.5,453.067 1068.08,453.237C1069.73,453.703 1075.15,454.9 1077.56,455.313C1080.84,455.885 1080.77,455.864 1087.31,458.258C1088.51,458.703 1090.16,459.318 1090.99,459.646C1091.82,459.964 1092.7,460.282 1092.96,460.356L1093.45,460.473L1094.59,459.699C1095.95,458.767 1097.49,457.559 1098.48,456.638C1099.33,455.843 1099.4,455.949 1097.43,455.26C1095.35,454.551 1093.53,454.137 1090.14,453.629C1086.94,453.142 1085.79,453.036 1081.17,452.824C1074.2,452.495 1073.28,452.368 1068.85,451.033C1067.9,450.747 1066.56,450.355 1065.86,450.175C1065.16,449.985 1064.37,449.741 1064.09,449.635ZM1050.33,461.246C1050.33,460.261 1050.27,458.894 1050.2,458.227L1050.07,457.008L1049.48,457.57C1048.92,458.089 1048.88,458.174 1048.8,458.735C1048.63,460.144 1048.19,461.818 1047.38,464.043C1045.74,468.577 1045.11,471.469 1044.83,475.601C1044.34,483.017 1044.28,485.782 1044.45,491.916C1044.54,495.433 1044.47,496.704 1044.14,497.827C1044,498.272 1044,498.283 1044.23,498.208C1045.45,497.848 1049.65,495.295 1049.42,495.062C1049.39,495.02 1049.34,494.215 1049.32,493.272C1049.3,491.937 1049.23,491.206 1049.02,490.062C1048.54,487.604 1048.44,486.597 1048.37,483.493C1048.25,478.62 1048.68,473.736 1049.76,467.327C1050.18,464.816 1050.34,463.153 1050.33,461.246ZM1139,498.844C1138.12,498.039 1137.34,497.34 1137.25,497.287C1137.12,497.213 1137.94,499.321 1138.37,500.158C1138.62,500.645 1141.92,506.112 1142.83,507.531C1143.7,508.919 1144.02,509.671 1144.9,512.468L1145.63,514.799L1146.53,514.799C1147.6,514.799 1148.11,514.672 1148.55,514.301C1149.42,513.57 1149.59,512.214 1148.98,510.731C1148.11,508.591 1146.08,505.963 1142.21,501.969C1141.33,501.058 1139.89,499.649 1139,498.844ZM1084.82,442.653C1082.25,442.442 1078.11,442.304 1077.35,442.399C1077.15,442.431 1075.81,442.643 1074.38,442.876C1072.95,443.098 1071.51,443.289 1071.17,443.289C1070.53,443.289 1069.49,443.66 1067.39,444.645C1066.62,445.005 1066.54,445.069 1066.76,445.122C1067.08,445.196 1072.38,446.001 1073.59,446.16C1074.06,446.224 1077.3,446.308 1080.8,446.361C1090.49,446.499 1097.01,446.933 1099.92,447.654C1100.95,447.897 1102.2,448.374 1102.88,448.766C1103.24,448.978 1103.35,448.999 1103.41,448.893C1103.66,448.512 1104.05,446.234 1104.05,445.228C1104.05,444.931 1103.99,444.846 1103.65,444.677C1103.2,444.444 1101.93,444.031 1100.87,443.755C1098.95,443.268 1097.98,443.183 1092.66,443.024C1089.81,442.94 1086.29,442.781 1084.82,442.653ZM1117.35,493.876C1117.9,493.028 1118.31,492.339 1118.27,492.35C1118.23,492.35 1117.58,492.657 1116.82,493.039C1114.17,494.342 1112.62,494.967 1110.51,495.571C1109.38,495.899 1108.09,496.333 1107.65,496.535L1106.86,496.905L1108.02,498.05C1110.17,500.137 1112.72,502.255 1112.89,502.075C1112.91,502.054 1113.43,501.005 1114.03,499.745C1115.25,497.234 1115.85,496.174 1117.35,493.876ZM1131.62,492.837C1130.34,491.905 1130.41,491.926 1130.5,492.467C1130.56,492.721 1130.59,493.685 1130.58,494.617C1130.57,496.016 1130.52,496.672 1130.23,498.378C1129.66,501.757 1129.67,504.438 1130.28,507.425C1130.42,508.114 1130.54,508.813 1130.54,508.972C1130.54,509.247 1130.64,509.311 1132.69,510.222C1136.73,512.044 1137.22,512.246 1137.16,512.14C1137.12,512.087 1136.8,511.239 1136.45,510.264C1134.42,504.639 1134.22,503.834 1133.87,499.914C1133.61,497.064 1133.34,495.666 1132.76,494.098C1132.56,493.568 1132.44,493.452 1131.62,492.837ZM1105.14,483.282C1103.7,483.112 1101.58,483.091 1100.45,483.239C1099.7,483.334 1098.14,483.801 1097.83,484.023C1097.66,484.15 1097.7,484.267 1098.4,485.676C1099.26,487.392 1101,490.115 1101.23,490.115C1101.74,490.115 1104.03,489.405 1105.43,488.812C1108.9,487.35 1109.86,487.18 1115.85,487.042C1118.3,486.979 1120.69,486.926 1121.16,486.905L1122.01,486.883L1118.92,485.337L1115.85,483.79L1114.1,483.716C1113.15,483.684 1111.04,483.599 1109.43,483.546C1107.81,483.493 1105.88,483.366 1105.14,483.282ZM1069.81,457.167C1068.97,456.945 1068.07,456.68 1067.8,456.595C1067.45,456.489 1067.31,456.489 1067.35,456.563C1067.39,456.638 1067.95,457.527 1068.58,458.544C1069.36,459.795 1069.85,460.473 1070.09,460.632C1071.13,461.31 1072.81,462.199 1074.07,462.729C1076.17,463.608 1077.18,464.181 1078.69,465.314C1079.43,465.876 1080.12,466.395 1080.22,466.469C1080.37,466.585 1080.63,466.501 1081.97,465.876C1082.84,465.473 1084.02,464.933 1084.59,464.689L1085.63,464.233L1084.06,463.683C1080.82,462.549 1077.19,460.854 1074.76,459.328C1073.02,458.237 1071.9,457.75 1069.81,457.167ZM1036.94,471.279C1037.04,471.003 1036.87,471.183 1036.23,472.073C1034.42,474.541 1032.42,477.709 1031.42,479.733C1029.51,483.557 1028.97,487.328 1029.79,491.28C1029.99,492.286 1030.59,493.685 1031.07,494.246L1031.29,494.511L1031.23,493.664C1031.2,493.198 1031.22,492.128 1031.27,491.28C1031.5,487.826 1031.97,486.184 1034.45,480.114C1035.49,477.561 1035.92,476.131 1036.47,473.45C1036.69,472.327 1036.91,471.353 1036.94,471.279ZM1126.07,489.161C1125.09,488.579 1124.25,488.102 1124.2,488.102C1124.04,488.102 1121.94,490.327 1121.1,491.386C1120.15,492.562 1117.67,495.984 1117,497.054C1115.84,498.844 1114.05,502.308 1111.57,507.542C1110.1,510.667 1108.3,513.474 1106,516.282C1102.42,520.647 1101.32,522.405 1100.56,524.969C1100.12,526.42 1100.05,527.3 1100.29,528.031C1100.86,529.768 1102.44,528.793 1104.88,525.213C1105.48,524.333 1106.16,523.412 1106.4,523.179C1107.48,522.087 1108.86,522.469 1109.3,523.963C1109.55,524.81 1109.46,526.092 1109.04,527.957C1108.62,529.832 1108.61,530.552 1109,531.008C1109.24,531.304 1109.33,531.336 1109.64,531.294C1110.65,531.124 1111.92,529.302 1112.81,526.728C1113.4,524.99 1113.86,524.397 1114.69,524.259C1115.18,524.185 1115.51,524.28 1115.92,524.609C1116.41,525.033 1116.8,525.901 1117.34,527.861C1118.06,530.478 1118.15,530.669 1118.53,530.086C1118.83,529.63 1118.78,526.092 1118.42,521.95C1118.06,517.86 1117.96,514.82 1118.14,513.199C1118.53,509.576 1120.92,503.114 1123.71,498.113C1124.45,496.778 1127.2,492.308 1127.92,491.238L1128.34,490.613L1128.09,490.422C1127.95,490.316 1127.04,489.754 1126.07,489.161Z" style="fill:rgb(39,39,61);"/>
            </g>
        </g>
    </g>
</svg>
