<svg width="308" height="306" viewBox="0 0 308 306" fill="none" xmlns="http://www.w3.org/2000/svg">
<g filter="url(#filter0_d_75_188)">
<path fill-rule="evenodd" clip-rule="evenodd" d="M276.207 215.243C275.594 217.327 273.835 220.945 273.81 220.956C273.795 220.989 273.528 221.341 273.2 221.76C272.071 223.215 268.798 226.346 267.927 227.19C264.381 230.633 261.203 232.522 257.138 235.001C256.176 235.586 255.522 236.015 255.698 235.945C257.533 235.215 248.028 239.061 247.996 239.062C247.563 239.305 243.176 240.44 240.924 240.92C238.443 241.423 237.353 241.556 234.648 241.707C230.707 241.931 229.086 241.77 225.906 240.859C224.737 240.521 223.735 240.292 223.687 240.343C223.639 240.392 224.25 242.642 225.054 245.342C226.683 250.871 227.293 253.153 227.836 255.846C228.241 257.808 228.821 261.656 228.932 263.122L229.009 263.984C229.009 263.984 228.323 270.826 228.26 271.173C227.941 272.963 226.608 275.715 224.875 278.184C222.378 281.758 217.716 285.528 213.627 287.306C209.619 289.05 202.106 290.416 198.294 290.096C196.068 289.907 192.934 289.354 190.712 288.771C189.674 288.495 187.965 288.141 186.933 287.993C183.227 287.443 177.81 285.984 175.656 284.942C175.025 284.635 174.447 284.376 174.38 284.346C174.33 284.315 174.237 284.465 174.179 284.679C174.003 285.321 173.022 286.266 172.026 286.755C171.061 287.226 164.172 289.225 161.045 289.944C152.344 291.951 145.63 292.231 137.494 290.939C127.142 289.278 122.726 286.922 118.166 280.555C114.527 275.466 112.748 270.348 112.272 263.558L112.091 260.985L112.374 255.492L112.479 254.689C112.775 252.231 113.386 248.866 114.393 244.052C115.498 238.811 116.772 231.655 116.941 229.789L117.025 228.855L111.563 229.029C103.02 229.302 97.9868 229.086 91.3477 228.188C85.9758 227.461 81.2364 226.52 76.8594 225.302C76.8158 225.285 76.7736 225.268 76.7314 225.251C74.0003 224.145 71.0604 223.499 68.3286 222.471C67.3541 222.105 65.5912 220.93 65.5912 220.93L63.8615 219.924C62.9153 219.382 61.3318 218.373 60.3471 217.686C59.3788 216.982 57.4613 215.737 56.08 214.884C48.1045 209.948 41.4709 203.566 37.5255 197.033C33.4071 190.195 31.2276 184.258 30.3252 177.448C29.7675 173.24 30.0725 168.496 31.1965 163.304C32.9771 155.169 35.9311 149.004 45.7238 133.122C50.021 126.129 50.949 124.501 52.7199 120.658C54.9337 115.872 56.1087 112.275 59.1316 101.113C59.6567 99.1711 60.1551 97.3605 60.2433 97.0804C60.376 96.6509 60.3235 96.5063 59.8806 95.9488C58.7925 94.58 57.7777 92.9486 57.3341 91.8366C56.9088 90.7718 56.8487 90.4316 56.7833 88.3771C56.7204 86.4041 56.77 85.8803 57.1003 84.4987C57.5777 82.5578 58.7273 79.7143 59.7008 78.018C60.862 76.023 62.5198 74.2895 64.8969 72.5484C66.0611 71.7118 67.1602 70.8618 67.3335 70.6437C67.6791 70.2245 67.8598 69.2236 68.6992 62.782C69.2639 58.5044 69.9886 55.6252 71.2096 52.992C74.1251 46.6322 79.1938 43.3527 86.4486 43.1216C91.4379 42.9627 95.8802 44.5852 101.13 48.4804C101.914 49.0593 104.937 51.7376 107.847 54.4363C113.414 59.5955 114.05 60.1298 119.686 64.3578C125.655 68.8355 128.834 70.8063 133.652 72.9544C138.438 75.1036 141.687 76.174 147.622 77.5686C153.18 78.8597 157.286 80.1817 159.973 81.5334C160.038 81.5637 160.258 81.2625 160.474 80.8797C161.554 78.8873 163.406 77.0982 165.366 76.1053C168.161 74.7269 171.082 74.7155 174.13 76.1035C175.288 76.6228 175.84 77.0119 177.168 78.2436C178.463 79.4595 178.905 80 179.409 80.9622C180.382 82.8584 181.014 85.2199 181.759 89.7007C182 91.0811 182.357 93.0925 182.571 94.164C182.783 95.2171 182.97 96.4359 182.999 96.8587L183.023 97.6082L184.374 98.5295C186.076 99.6815 190.82 104.117 192.718 106.325C194.244 108.104 195.814 110.291 196.61 111.718L197.095 112.584L198.316 112.463C200.219 112.272 201.808 112.449 203.689 113.075L205.403 113.641L206.884 112.99C208.574 112.268 212.287 109.929 213.764 108.675C214.321 108.199 216.096 106.527 217.727 104.957C223.173 99.6924 228.159 96.3339 232.841 94.7659C236.297 93.6268 239.992 93.2981 242.523 93.886C244.826 94.4489 247.046 95.9942 248.049 97.757C248.237 98.0992 248.353 98.3096 248.476 98.4397C248.804 99.2935 249.188 100.144 249.373 101.012C250.077 104.303 250.664 107.581 251.296 110.879C251.529 112.103 251.547 113.355 251.852 114.563C252.037 116.113 252.135 116.348 252.492 116.336C252.672 116.33 254.687 116.887 254.604 116.793C255.372 117.07 256.158 117.31 256.874 117.688C259.288 118.957 262.339 124.198 262.416 124.555C262.812 126.223 262.383 130.804 262.383 130.804L262.271 130.762C262.308 130.776 262.345 130.79 262.383 130.804C262.25 131.599 262.062 132.39 261.834 133.219C261.612 134.03 260.971 134.839 260.908 135.676C260.598 139.824 262.577 144.01 264.148 147.725C264.456 148.456 264.937 149.573 265.557 150.667C265.496 150.627 265.454 150.599 265.432 150.588C265.134 150.419 266.233 152.146 267.976 154.62C270.814 158.658 276.108 163.899 276.562 164.417C276.583 164.441 279.453 168.568 279.453 168.568L279.957 169.531C280.236 170.06 280.463 170.575 280.466 170.674C280.47 170.788 280.88 170.839 281.467 170.837C283.507 170.805 286.3 172.227 287.36 174.25L287.999 175.307C288.741 176.79 289.665 178.231 289.776 179.918C289.9 181.827 289.797 183.967 289.137 185.791C288.625 187.206 287.714 188.065 287.526 189.578C287.32 191.242 287.398 192.942 287.38 194.628C287.38 194.628 286.433 199.212 285.815 200.815C285.619 201.344 284.618 203.672 284.651 203.687C284.686 203.718 282.017 209.879 280.179 212.364C279.472 213.32 278.026 214.343 276.207 215.243C276.235 215.151 276.26 215.064 276.282 214.979C276.316 214.845 276.353 214.726 276.389 214.612C276.592 214.057 276.865 213.36 276.768 213.492C276.912 212.979 277.045 212.467 277.142 211.949C277.999 210.783 279.449 208.679 280.124 207.585C283.618 201.957 285.418 196.465 285.476 191.144L285.508 189.086L284.934 188.468C284.613 188.119 283.739 187.331 282.984 186.701C280.336 184.533 278.713 181.714 277.923 177.935C277.615 176.443 277.645 173.798 278.006 172.856C278.261 172.163 278.261 172.147 277.868 171.556C277.386 170.804 274.552 167.385 271.961 164.433C267.93 159.812 265.814 156.941 263.856 153.348C260.495 147.22 258.141 140.996 258.046 138.012C258.029 137.458 257.961 137.361 257.447 137.133C256.669 136.799 254.965 135.058 253.652 133.256C251.911 130.879 250.231 127.326 249.819 125.119C249.425 122.994 249.5 119.744 249.989 118.161C250.151 117.634 250.144 117.439 249.952 117.021C249.653 116.345 249.163 113.749 248.867 111.148C247.647 100.495 246.074 97.2006 241.904 96.4522C239.721 96.0642 236.26 96.5658 233.309 97.7042C229.666 99.1097 224.346 102.724 220.608 106.286C217.996 108.817 216.14 110.492 215.168 111.241C212.843 113.028 209.517 114.685 207.522 115.076C206.971 115.175 206.938 115.208 206.634 116.393C206.053 118.663 203.828 121.557 201.806 122.651C200.218 123.516 199.15 123.795 197.451 123.768C196.162 123.761 195.801 123.691 194.856 123.263C194.112 122.928 193.527 122.506 193.037 121.967C192.376 121.236 192.327 121.206 192.008 121.444C190.272 122.789 186.997 124.019 180.622 125.724C174.343 127.392 170.523 129.441 166.565 133.255C162.811 136.85 161.038 139.062 158.182 143.657C152.917 152.099 150.722 157.49 148.794 166.641C148.016 170.355 147.517 176.213 147.785 178.506C147.986 180.213 149.064 186.87 149.148 186.949C149.182 186.998 149.532 186.187 149.923 185.162C150.299 184.155 151.098 182.105 151.689 180.634C152.428 178.749 152.933 177.167 153.333 175.359C154.532 170.017 156.044 165.202 157.569 161.874C158.959 158.876 161.022 156.524 163.413 155.193C165.946 153.773 168.166 153.294 172.845 153.145C181.486 152.87 183.778 152.047 188.807 147.513C194.153 142.69 199.26 139.525 203.645 138.357C210.766 136.466 217.141 136.785 223.113 139.305C225.875 140.472 229.432 142.987 231.362 145.146C233.374 147.366 235.232 150.391 236.937 154.205C238.801 158.389 240.326 160.658 242.574 162.626C244.422 164.248 245.919 165.131 250.277 167.228C257.835 170.84 260.666 172.626 264.401 176.131C268.085 179.587 270.962 183.282 273.132 187.359C276.083 192.911 277.138 196.827 277.333 202.942C277.43 206.528 277.258 208.803 276.69 211.432C276.532 212.138 277.286 211.438 277.142 211.949C277.099 212.007 276.725 213.551 276.768 213.492C276.645 213.931 276.514 214.232 276.389 214.612C276.26 214.969 276.159 215.266 276.207 215.243ZM168.151 220.96C166.735 220.042 164.899 218.779 164.08 218.184C163.279 217.591 162.627 217.154 162.679 217.234C162.713 217.297 163.182 218.198 163.704 219.208C165.042 221.728 165.8 223.532 166.672 226.294C168.161 230.996 168.22 231.354 168.398 236.407C168.527 240.467 168.574 240.906 168.777 240.622C169.528 239.586 172.837 234.895 173.274 234.244C173.944 233.212 174.02 232.018 173.582 229.534C173.203 227.425 172.92 226.699 171.637 224.342L170.718 222.658L168.151 220.96ZM212.926 197.142C212.89 196.017 212.781 195.14 212.641 194.834L212.413 194.335L212.154 195.437C212.01 196.045 211.454 197.548 210.938 198.772C209.3 202.659 208.342 205.382 207.585 208.28C206.554 212.262 206.054 213.501 204.02 217.256C202.417 220.245 201.917 221.941 200.786 228.457C198.118 243.621 196.874 248.622 194.303 254.466C192.37 258.852 191.986 261.149 191.874 268.904C191.854 270.832 191.883 273.767 191.935 275.431C191.988 277.095 191.977 278.808 191.894 279.268C191.593 281.073 190.843 282.68 189.709 283.924L189.078 284.628L189.637 284.774C192.074 285.431 193.205 285.591 196.803 285.803C199.386 285.948 199.515 285.944 199.817 285.642C200.007 285.473 200.487 285.163 200.904 284.954C202.67 284.049 204.427 280.778 204.863 277.549C204.943 277.007 205.02 274.769 205.047 272.566C205.105 267.733 205.286 265.23 205.917 261.44C206.859 255.665 206.96 254.226 206.829 249.578C206.749 247.083 206.564 244.364 206.374 242.983C205.834 238.87 205.693 228.301 206.122 223.815C206.474 220 207.202 217.219 209.528 210.829C212.271 203.234 213.01 200.256 212.926 197.142ZM126.586 173.42C126.529 172.116 126.43 171.107 126.349 171.11C126.267 171.113 125.903 171.434 125.54 171.838C124.973 172.476 124.851 172.741 124.659 173.874C124.186 176.5 124.12 177.448 124.276 179.319C124.443 181.469 124.707 182.587 126.347 187.921C128.276 194.175 129.374 198.955 130.12 204.448C130.566 207.713 130.871 218.785 130.584 221.568C130.234 224.958 128.965 232.213 127.946 236.586C126.824 241.355 126.728 241.946 126.091 247.58C125.124 256.147 125.122 256.081 125.273 260.826C125.441 265.553 125.66 267.325 126.592 270.983C128.421 278.157 132.856 283.678 139.151 286.627C139.864 286.947 143.301 287.262 146.418 287.276L149.079 287.29L148.155 286.471C146.543 285.037 143.658 281.05 142.283 278.351C139.706 273.276 138.12 268.577 137.237 263.382C136.735 260.445 136.398 249.39 136.658 244.714C136.75 242.964 136.881 239.94 136.966 238.012C137.036 236.084 137.177 233.354 137.281 231.965C137.529 228.48 137.371 224.535 136.854 221.125C136.609 219.599 136.221 216.641 135.959 214.543C135.405 209.975 134.444 203.885 133.893 201.454C133.264 198.618 132.701 196.824 130.983 192.065C128.871 186.224 128.062 183.394 127.292 179.191C126.836 176.627 126.641 175.165 126.586 173.42ZM90.3491 46.1648C89.1142 45.8451 88.5083 45.7828 86.5183 45.7969C82.1614 45.837 79.6605 46.7332 76.8697 49.27C75.0297 50.9446 73.3158 54.0187 72.3609 57.3613C72.1124 58.2673 71.5548 60.733 71.1319 62.8355C70.3035 67.0567 69.928 68.5692 69.4586 69.7441C69.0665 70.7349 69.1169 71.3048 69.6552 71.8099C70.5969 72.6935 72.7299 77.6523 73.4266 80.5679C74.1445 83.6138 73.9855 87.8616 73.0723 90.4372C72.607 91.7414 71.5016 93.4081 70.1135 94.905C68.1408 97.0075 66.2838 98.145 64.2857 98.4367C63.5378 98.5591 63.3773 98.6443 63.3384 98.9244C62.6797 102.861 60.338 111.324 58.3287 116.922C56.141 123.014 54.1264 126.897 48.8893 135.142C39.019 150.668 35.7477 157.61 34.3048 166.094C33.6599 169.934 33.5268 171.896 33.7333 175.285C34.0777 181.018 35.1582 185.194 37.7879 190.904C39.0669 193.671 40.9735 197.135 42.1345 198.763C43.9279 201.285 47.9356 205.662 49.5242 206.834L50.176 207.32L49.101 205.347C47.3515 202.171 46.3644 199.378 45.5518 195.39C45.0682 192.974 44.8454 188.541 45.1252 186.59C45.8328 181.622 47.5689 176.736 49.7393 173.632C50.9729 171.879 54.8511 167.593 57.1177 165.481C57.99 164.67 60.2455 162.738 62.1209 161.16C73.472 151.692 77.2172 147.296 82.2716 137.425C87.2952 127.603 88.4692 125.526 90.9051 122.053C97.1198 113.206 102.831 108.584 111.429 105.422C119.56 102.453 125.992 102.02 133.171 103.995C136.514 104.917 138.751 105.988 144.128 109.276C148.022 111.65 150.612 113.02 152.876 113.894C157.998 115.869 160.738 116.304 168.313 116.406C170.353 116.423 172.511 116.5 173.117 116.578C174.608 116.76 177.058 117.351 178.513 117.891C180.262 118.506 184.238 120.37 184.807 120.841L185.31 121.234L186.681 120.717C187.423 120.448 188.534 119.972 189.145 119.676C189.74 119.379 190.513 119.077 190.853 119.017C191.47 118.899 191.486 118.866 191.778 117.795C192.259 116.018 193.425 114.154 194.48 113.484C194.72 113.328 194.909 113.126 194.906 113.028C194.899 112.785 190.4 107.33 187.945 104.584C186.778 103.283 185.107 101.524 184.214 100.671C182.834 99.3611 182.534 99.1427 182.294 99.2798C181.748 99.576 177.779 99.9951 175.853 99.9594C171.9 99.8727 169.186 98.7344 165.911 95.7715C163.255 93.3743 161.048 89.6595 159.859 85.6488L159.42 84.1453L158.214 83.7262C155.656 82.8294 150.599 81.3421 147.522 80.5743C138.18 78.2776 131.451 75.5864 124.71 71.4922C122.398 70.0808 121.462 69.442 116.954 66.2241C111.526 62.3485 109.933 61.0281 105.168 56.4304C98.13 49.6373 94.8424 47.3588 90.3491 46.1648ZM177.208 225.551C176.584 225.409 175.377 224.957 174.517 224.559C173.656 224.163 172.976 223.875 173.011 223.939C173.046 224.002 173.393 224.612 173.806 225.3C174.495 226.438 174.942 227.713 175.406 229.934L175.558 230.647L177.068 228.33C177.908 227.047 178.527 225.966 178.459 225.904C178.393 225.856 177.833 225.694 177.208 225.551ZM205.868 195.865C206.385 195.212 206.76 194.661 206.694 194.663C206.63 194.665 206.084 194.962 205.491 195.29C204.657 195.773 204.055 196.348 202.653 197.942C200.528 200.393 199.905 201.294 198.268 204.218C197.573 205.448 196.411 207.445 195.699 208.626C194.987 209.824 193.711 212.328 192.874 214.199C189.841 220.987 188.603 223.621 187.23 226.13C185.719 228.887 183.656 233.294 181.957 237.314C180.076 241.814 178.329 245.394 176.779 247.924C175.056 250.721 173.857 253.093 173.154 255.058C172.224 257.617 170.784 262.623 170.567 264.018C170.267 265.889 170.361 268.839 170.846 272.267L171.227 275.029L172.18 276.224C173.999 278.517 175.509 279.806 177.783 281.023L178.597 281.454L177.776 280.273C175.877 277.509 175.213 275.637 175.135 272.702C174.986 268.023 176.854 262.088 180.59 255.391C182.086 252.684 183.025 250.37 184.973 244.398C187.472 236.779 188.061 235.292 191.998 226.713C195.417 219.26 196.61 216.25 197.969 211.752C198.855 208.803 199.561 206.887 200.523 204.816C201.958 201.719 204.158 198.041 205.868 195.865ZM192.755 209.992C193.017 209.511 193.201 209.129 193.168 209.13C192.957 209.137 190.009 213.915 187.566 218.204C185.249 222.292 182.688 226.438 180.877 229.042C180.175 230.076 178.774 232.176 177.762 233.71C176.75 235.26 175.083 237.729 174.053 239.199C171.742 242.487 170.283 244.866 169.289 246.971C167.715 250.318 166.368 254.653 165.963 257.8C165.552 260.832 166.121 264.846 167.461 268.459C168.068 270.12 169.118 272.322 169.228 272.189C169.276 272.154 169.153 271.392 168.979 270.515C168.553 268.407 168.463 265.098 168.746 263.195C169.032 261.439 170.501 256.284 171.422 253.955C172.311 251.657 172.895 250.545 174.977 247.214C176.467 244.817 177.219 243.34 179.43 238.456C183.366 229.777 183.778 228.883 185.226 226.226C186.722 223.47 188.801 219.045 190.102 215.838C191.087 213.424 192.063 211.271 192.755 209.992ZM138.033 172.109C136.235 170.991 136.235 170.975 136.896 171.754C138.743 173.898 139.659 176.007 141.651 182.667C143.424 188.649 144 190.361 145.452 193.906C147.241 198.321 148.011 200.433 148.652 202.633C149.385 205.171 150.11 206.895 151.92 210.476C153.852 214.251 154.957 216.631 155.546 218.244C156.029 219.567 157.99 226.848 158.527 229.328C159.826 235.277 160.166 240.847 159.569 246.66C158.903 253.406 159.677 258.767 163.246 271.939C163.911 274.349 165.049 277.3 166.038 279.112C166.557 280.075 167.132 281.199 167.308 281.601C167.484 282.004 167.748 282.599 167.904 282.921L168.185 283.516L169.656 283.061C170.463 282.823 171.207 282.571 171.287 282.519C171.367 282.467 170.992 281.974 170.453 281.452C169.442 280.456 167.473 278.087 166.193 276.3C164.468 273.907 163.236 271.09 162.373 267.559C161.716 264.872 161.417 260.605 161.733 258.261C162.178 254.819 163.647 250.203 165.529 246.275L166.602 244.055L166.45 238.82C166.281 232.982 166.171 232.072 165.021 227.767C164.134 224.482 163.612 222.966 162.505 220.471C160.73 216.496 159.571 214.46 158.356 213.177C156.853 211.593 154.626 208.823 153.444 207.051C151.337 203.918 149.382 199.949 148.801 197.569C148.67 197.034 148.439 196.471 148.304 196.327C148.067 196.058 147.703 194.339 146.634 188.498C146.339 186.892 145.885 184.442 145.629 183.062C145.372 181.684 145.148 180.255 145.137 179.897C145.118 179.326 144.913 179.006 143.469 177.257C141.415 174.791 139.649 173.119 138.033 172.109ZM216.617 210.016C216.785 204.526 216.644 204.694 215.534 211.355C213.956 220.774 213.967 220.578 214.687 226.806C215.925 237.472 216.022 237.959 217.647 243.358C218.667 246.704 219.623 250.608 220.328 254.289C220.683 256.22 220.784 257.294 220.88 260.31C221.045 265.495 220.706 269.211 219.721 272.62C219.165 274.613 217.488 278.355 216.354 280.153C215.872 280.92 215.565 281.485 215.676 281.415C216.956 280.624 218.991 278.943 220.065 277.783C222.258 275.428 224.445 271.834 224.376 270.693C224.351 270.433 224.527 269.807 224.74 269.31C225.304 268.037 225.474 266.22 225.37 262.942C225.2 257.611 224.03 252.116 220.027 237.653C217.223 227.525 216.247 221.468 216.435 215.571C216.485 214.084 216.569 211.584 216.617 210.016ZM129.637 170.32C129.198 169.354 129.032 169.262 128.358 169.61C127.861 169.871 127.793 170.314 127.887 172.774C127.939 174.405 128.093 175.608 128.575 177.975C129.659 183.278 130.204 185.072 132.815 191.697C135.925 199.644 136.946 204.034 138.073 214.313C138.324 216.589 138.697 219.547 138.869 220.898C139.329 224.064 139.481 228.843 139.242 232.065C139.14 233.455 138.999 236.251 138.917 238.276C138.851 240.303 138.732 242.722 138.681 243.67C138.445 247.529 138.49 254.073 138.798 258.078C139.242 263.858 139.96 267.424 141.493 271.489C143.114 275.778 144.683 278.894 146.477 281.433C148.392 284.146 149.185 284.985 151.274 286.502L151.976 287.018L153.649 286.786C154.559 286.658 156.491 286.319 157.95 286.028L160.579 285.521L160.287 285.105C159.433 283.892 158.809 282.77 158.195 281.402C157.808 280.565 157.195 279.214 156.811 278.426C155.867 276.466 153.681 270.888 153.115 268.997C152.876 268.156 152.32 266.02 151.902 264.237C151.487 262.471 150.523 258.798 149.766 256.063C148.436 251.21 147.837 248.83 147.407 246.575C147.289 245.942 147.016 241.985 146.817 237.78C146.569 232.565 146.339 229.456 146.13 228.01C145.946 226.841 145.597 224.062 145.329 221.818C144.687 215.995 144.152 213.025 143.025 208.932C142.138 205.664 141.546 203.985 139.531 199.121C137.657 194.578 136.868 192.35 135.441 187.549C134.931 185.852 134.275 183.75 133.97 182.864C133.664 181.975 132.993 179.875 132.499 178.193C131.641 175.332 130.586 172.428 129.637 170.32ZM131.665 169.406C131.305 169.385 130.829 169.319 130.616 169.261C130.236 169.142 130.236 169.158 130.493 169.525C131.075 170.388 132.778 174.66 133.634 177.439C134.143 179.071 134.919 181.413 135.351 182.656C135.782 183.898 136.558 186.257 137.068 187.906C138.322 191.93 139.284 194.461 141.151 198.758C144.814 207.162 146.222 212.422 147.374 221.932C147.571 223.541 147.913 226.092 148.159 227.619C148.511 229.974 148.622 231.44 148.849 237.552C149.164 246.405 149.286 247.151 151.929 256.843C152.483 258.865 153.342 262.298 153.869 264.452C154.944 268.988 155.106 269.505 156.601 273.391C158.201 277.518 160.265 281.858 161.618 283.871C162.271 284.863 162.455 285.036 162.746 284.945C162.925 284.891 163.976 284.613 165.078 284.333C166.161 284.053 167.05 283.763 167.048 283.715C167.046 283.649 166.336 282.335 165.486 280.761C163.788 277.682 162.655 274.928 161.876 271.983C160.074 265.087 159.454 262.544 159.041 260.322C158.037 254.951 157.822 251.27 158.203 246.28C158.644 240.7 158.317 235.554 157.163 230.025C156.565 227.156 154.782 220.391 154.211 218.858C153.658 217.341 152.662 215.301 150.054 210.275C148.298 206.888 147.91 205.985 146.763 202.284C146.418 201.169 145.417 198.427 144.512 196.171C142.648 191.433 142.108 189.85 140.44 184.126C139.12 179.566 137.792 175.822 136.943 174.265C136.649 173.72 135.761 172.508 134.981 171.553C133.454 169.708 133.086 169.475 131.665 169.406ZM126.53 106.557C124.843 106.381 121.971 106.408 120.932 106.588C120.706 106.627 119.975 106.766 119.31 106.884C116.032 107.461 111.461 108.995 108.538 110.475C102.853 113.382 98.8891 117.001 94.3136 123.479C92.1735 126.517 90.4258 129.543 87.5532 135.168C83.2369 143.644 81.1559 146.992 77.4927 151.351C74.7094 154.655 71.4751 157.631 64.7441 163.083C59.7639 167.11 57.8772 168.819 55.1964 171.76C51.8053 175.475 50.6447 177.439 49.4664 181.459C48.5396 184.622 48.2401 186.491 48.2155 189.348C48.1768 195.289 49.8848 201.274 53.0997 206.394C55.0601 209.514 59.3151 213.965 61.5415 215.233C64.1019 216.685 66.101 217.976 66.4418 218.421C66.8493 218.93 68.9275 220.089 70.9778 220.954C76.4544 223.277 86.7081 225.495 96.3523 226.477C101.43 227.001 108.911 227.204 113.995 226.96L117.336 226.806L117.42 225.873C117.726 222.648 118.536 209.695 118.605 207.213C118.662 204.42 118.472 201.015 117.974 196.152L117.815 194.753L117.108 197.125C115.485 202.547 112.756 207.04 107.975 212.187C106.807 213.447 105.24 214.967 104.508 215.545C103.01 216.702 99.6045 218.933 97.7601 219.938C96.0594 220.858 92.6955 221.797 90.3829 221.984L88.5607 222.139L88.0553 221.65C86.9966 220.672 87.605 219.315 89.1962 219.067C90.9834 218.782 94.378 217.744 95.6131 217.101C97.46 216.128 101.339 213.41 103.084 211.853C104.72 210.397 108.535 206.212 109.945 204.323C112.214 201.296 113.339 199.203 115.106 194.724C116.796 190.411 117.414 188.287 117.507 186.569C117.53 185.803 117.596 184.772 117.645 184.28L117.698 183.382L117.34 183.882C115.432 186.521 112.394 189.507 110.598 190.511C107.471 192.242 102.522 193.674 96.6412 194.53C93.6034 194.968 85.8111 195.251 82.5401 195.044C78.1086 194.776 73.9796 193.749 69.7246 191.862C66.7621 190.553 65.2981 189.669 64.0664 188.435C62.6002 186.948 62.4135 185.73 63.5501 185.04C64.1425 184.679 64.6878 184.873 65.8778 185.864C67.0524 186.854 68.5769 187.605 71.5492 188.686C76.8174 190.607 81.1155 191.287 89.577 191.557C96.9294 191.778 105.041 190.263 109.403 187.839C110.3 187.338 111 186.712 112.987 184.592C114.33 183.163 116.048 181.23 116.801 180.309C118.042 178.8 118.321 178.318 119.739 175.204C121.494 171.379 121.485 171.592 119.871 171.643C118.241 171.695 113.75 171.103 111.627 170.584C107.465 169.524 101.52 166.809 97.8803 164.265C95.8451 162.86 91.5184 158.723 89.835 156.606C87.1984 153.245 85.4208 150.202 85.6734 149.427C85.8373 148.915 86.2564 148.77 86.8044 149.047C87.0183 149.139 87.9287 150.056 88.8423 151.071C91.2123 153.706 93.4976 155.804 96.3742 157.947C99.5845 160.359 100.917 161.23 104.374 163.16C107.98 165.183 109.95 166.1 112.092 166.733C114.976 167.604 119.206 168.172 123.076 168.227L125.132 168.26L126.352 167.618C128.102 166.713 129.332 166.397 130.836 166.463C132.014 166.524 132.095 166.504 132.974 165.954C134.607 164.939 136.41 163.119 138.777 160.106C142.904 154.866 145.223 151.365 146.549 148.402C148.635 143.717 149.748 138.164 150.393 129.216C150.654 125.602 150.724 125.241 151.188 124.964C151.429 124.825 151.561 124.855 151.796 125.092C152.454 125.772 152.808 133.79 152.387 138.521C151.934 143.79 150.386 148.965 148.052 153.071C146.367 156.045 142.099 161.926 139.829 164.397C138.724 165.608 137.564 166.575 136.284 167.398L135.612 167.828L136.394 168.278C136.843 168.541 137.901 168.963 138.759 169.247C140.161 169.707 140.505 169.761 141.956 169.715C142.853 169.686 144.04 169.551 144.59 169.403C145.545 169.16 145.576 169.127 145.674 168.552C145.954 166.634 146.831 162.379 147.512 159.682C149.048 153.594 150.674 149.837 154.841 142.801C157.428 138.459 158.411 137.04 160.866 134.204C163.023 131.703 165.891 129 167.901 127.565C170.759 125.533 175.201 123.612 179.139 122.703C180.159 122.474 181 122.235 180.998 122.17C180.994 122.04 178.929 121.256 177.315 120.786C174.795 120.051 173.894 119.966 168.771 119.981C161.066 119.981 158.66 119.748 154.69 118.57C150.52 117.315 147.968 116.107 142.342 112.662C140.279 111.406 137.934 110.028 137.104 109.599C134.1 108.012 130.311 106.925 126.53 106.557ZM215.294 197.198C215.034 196.667 214.621 196.044 214.369 195.807L213.9 195.397L214.076 196.338C214.659 199.273 213.751 204.069 211.199 211.56C209.11 217.681 208.499 220.034 208.152 223.505C207.64 228.434 207.654 237.082 208.177 242.24C208.367 244.095 208.576 247.547 208.635 249.929C208.784 254.624 208.708 255.819 207.878 261.541C207.293 265.705 207.177 267.194 207.15 272.009C207.139 274.212 207.096 276.45 207.048 276.989C206.886 279.59 205.859 282.69 204.654 284.312C204.34 284.731 204.028 285.164 203.949 285.265C203.638 285.716 209.131 284.479 210.107 283.878C211.148 283.241 213.607 280.518 214.6 278.92C215.579 277.354 217.135 273.96 217.605 272.329C218.446 269.511 218.76 265.518 218.583 259.975C218.468 256.357 218.395 255.558 217.918 252.93C217.227 249.133 216.603 246.46 215.722 243.419C214.349 238.73 213.98 236.849 213.568 232.634C213.439 231.153 213.155 228.405 212.949 226.535C212.719 224.453 212.589 222.416 212.619 221.323C212.656 219.362 213.307 215.262 214.465 209.578C215.384 205.11 215.676 202.995 215.72 200.318C215.768 198.227 215.765 198.161 215.294 197.198ZM122.789 178.193C122.809 177.326 122.803 176.609 122.771 176.61C122.64 176.614 121.418 180.276 121.073 181.723C120.698 183.252 120.686 183.401 120.852 188.096C120.969 191.765 121.135 193.93 121.534 197.214C122.154 202.35 122.349 207.42 122.096 211.802C122.018 213.42 121.818 216.919 121.674 219.567C121.109 230.015 120.556 234.668 118.56 245.273C116.368 256.882 116.186 261.964 117.682 268.428C118.512 271.943 119.987 275.21 122.107 278.227C124.824 282.09 127.547 284.043 131.979 285.338C132.835 285.572 133.609 285.776 133.69 285.773C133.787 285.77 133.01 284.929 131.948 283.903C129.037 281.09 127.395 278.727 125.981 275.361C124.269 271.319 123.234 265.427 123.283 259.829C123.3 256.76 123.401 255.336 124.078 248.951C124.833 241.891 125.024 240.711 126.039 236.157C127.094 231.359 128.251 224.679 128.612 221.143C128.8 219.325 128.799 217.806 128.637 212.737C128.323 202.872 127.593 198.39 124.574 187.601C123.101 182.376 122.71 180.349 122.789 178.193ZM145.312 172.09C145.4 171.776 145.301 171.764 144.722 172.01C144.498 172.116 143.749 172.221 143.065 172.258C141.925 172.312 141.827 172.347 142.015 172.586C142.134 172.729 142.832 173.669 143.6 174.689L144.965 176.524L145.109 174.446C145.187 173.317 145.285 172.254 145.312 172.09ZM210.763 193.816C210.353 193.683 209.343 193.764 209.022 193.953C208.605 194.211 206.353 197.253 205.284 199.034C203.949 201.198 202.15 204.698 201.302 206.75C200.91 207.725 200.106 210.149 199.515 212.128C198.058 217.102 196.72 220.719 194.314 226.149C189.58 236.826 188.93 238.48 186.201 247.069C184.641 251.918 184.536 252.198 181.766 257.966C179.945 261.777 179.059 264.189 178.371 267.213C176.97 273.427 177.394 275.486 181.276 281.025C182.489 282.749 182.091 282.518 185.866 283.703L187.646 284.267L188.216 283.693C189.006 282.902 189.749 281.604 190.133 280.369C190.46 279.362 190.465 278.987 190.363 272.217C190.192 261.173 190.46 259.37 193.067 253.607C195.156 249.004 196.124 245.545 197.628 237.419C198.13 234.742 198.873 230.41 199.297 227.802C200.39 221.157 200.923 219.41 203.018 215.541C204.191 213.397 204.781 211.943 205.409 209.638C206.667 205.077 207.023 203.924 207.899 201.725C208.398 200.452 209.124 198.699 209.522 197.838C209.918 196.976 210.418 195.737 210.625 195.077C210.952 194.072 210.978 193.891 210.763 193.816ZM216.745 141.792C214.907 141.458 210.5 141.42 208.599 141.725C206.715 142.03 204.189 142.665 202.641 143.237C199.866 144.255 195.739 146.85 191.873 149.977C187.624 153.41 185.894 154.443 182.726 155.41C181.191 155.882 181.126 155.884 174.654 156.107C167.415 156.37 167.334 156.373 164.989 157.574C163.24 158.478 161.521 160.377 160.466 162.598C158.891 165.945 157.654 169.656 156.328 175.133C155.607 178.143 155.133 179.643 154.047 182.452C153.277 184.402 152.377 186.896 152.052 187.983C151.461 189.878 151.434 190.092 151.44 192.295C151.44 195.901 152.17 198.293 154.453 202.366C157.342 207.513 161.259 212.121 165.357 215.223C167.464 216.804 171.766 219.687 174.079 221.049C176.306 222.349 179.836 223.999 179.992 223.798C180.055 223.731 181.514 221.366 183.204 218.57L186.305 213.479L185.004 214.124C183.045 215.115 181.57 215.441 178.587 215.552C175.961 215.635 175.815 215.625 172.443 214.817C170.601 214.37 168.405 213.559 167.868 213.086C167.499 212.771 167.463 212.186 167.797 211.881C168.002 211.694 168.215 211.704 169.087 211.904C170.237 212.179 173.249 212.457 175.879 212.537C177.758 212.608 180.881 212.264 182.352 211.825C183.759 211.405 186.95 209.655 188.64 208.378C189.469 207.747 190.315 207.149 190.508 207.044C190.717 206.94 191.757 205.797 192.825 204.507C193.895 203.199 195.2 201.657 195.718 201.052L196.648 199.962L195.34 200.445C191.389 201.908 185.718 202.677 182.113 202.237C174.182 201.282 164.9 197.791 161.579 194.518C160.536 193.49 159.554 191.873 159.531 191.139C159.513 190.569 159.939 190.115 160.525 190.096C161.014 190.081 161.316 190.316 162.15 191.399C163.376 192.991 167.248 195.186 172.188 197.052C178.697 199.522 185.178 200.115 192.124 198.882C194.575 198.445 196.09 197.825 197.827 196.562C199.184 195.588 200.532 194.86 201.037 194.844C201.217 194.838 201.698 194.562 202.094 194.223C202.492 193.901 203.274 193.369 203.821 193.059L204.798 192.488L202.523 191.778C197.924 190.358 195.72 189.302 193.209 187.341C190.414 185.145 188.292 182.552 186.416 179.055C185.132 176.648 184.602 175.326 183.939 173.013C183.059 169.957 182.739 168.106 182.642 165.563C182.515 162.107 182.945 160.756 184.129 161.011C184.672 161.142 184.868 161.673 184.915 163.174C185.041 167.103 186.513 172.31 188.537 175.951C190.494 179.497 192.601 182.088 195.433 184.431C198.603 187.055 201.737 188.636 205.651 189.573C206.786 189.846 208.284 190.256 208.977 190.494C211.124 191.242 212.68 191.438 215.761 191.34C218.24 191.261 218.743 191.195 220.474 190.732C227.384 188.881 230.269 187.222 234.674 182.528C236.599 180.476 237.384 179.488 238.316 177.989C239.728 175.692 240.138 174.748 240.611 172.71C241 171.082 241.124 170.882 241.809 170.86C242.445 170.84 242.711 171.517 242.612 173.005C242.492 174.886 242.175 176.202 241.368 178.006C240.072 180.903 238.622 183.023 236.159 185.646C232.293 189.752 229.041 191.699 223.73 193.044C221.432 193.624 218.344 194.032 217.117 193.908C216.102 193.826 216.115 193.744 216.951 194.908C217.601 195.818 218.079 196.978 218.456 198.565C218.758 199.877 218.777 199.943 219.887 201C222.145 203.197 225.088 204.915 227.921 205.723C229.766 206.234 233.062 206.766 235.68 206.976C237.921 207.15 244.113 206.807 247.085 206.353C252.251 205.584 256.985 203.59 260.035 200.929C261.336 199.811 261.577 199.689 262.077 199.983C262.909 200.495 262.527 201.846 261.123 203.376C259.011 205.679 255.552 207.813 252.306 208.863C248.639 210.056 245.503 210.467 239.581 210.54C234.833 210.61 233.442 210.459 229.755 209.516C226.712 208.747 223.304 206.799 220.43 204.198L219.102 203L219.242 203.812C220.189 209.445 221.704 213.428 224.677 218.115C226.893 221.619 230.897 225.897 233.952 228.037C235.671 229.238 238.437 230.505 240.71 231.151C242.043 231.516 242.425 231.7 242.432 231.912C242.44 232.172 242.278 232.21 241.235 232.243C239.017 232.314 235.393 231.288 232.885 229.882C229.08 227.767 225.92 224.882 223.271 221.147C222.04 219.39 219.839 215.349 219.299 213.782L218.887 212.652L218.826 213.78C218.685 216.022 218.912 221.106 219.224 223.234C219.827 227.247 220.788 231.295 222.37 236.386L222.917 238.212L224.108 238.174C224.793 238.153 226.216 238.303 227.415 238.51C229.385 238.872 229.776 238.875 233.591 238.754C237.243 238.637 237.944 238.567 240.426 238.095C244.416 237.317 246.502 236.743 249.713 235.547C255.438 233.39 260.38 230.23 265.818 225.226C272.176 219.377 274.66 213.341 274.622 203.925C274.608 197.821 273.558 193.578 270.815 188.443C268.837 184.721 266.437 181.63 263.19 178.585C259.59 175.222 256.793 173.5 249.342 170.114C243.545 167.476 241.698 166.359 239.109 163.945C236.838 161.829 235.712 160.316 234.162 157.281C231.552 152.189 231.137 151.452 230.111 149.983C227.07 145.674 222.407 142.803 216.745 141.792Z" fill="#433064" fill-opacity="0.6"/>
<path fill-rule="evenodd" clip-rule="evenodd" d="M83.8933 41.907C82.3289 42.5114 81.7341 43.2821 81.288 45.1881C80.6888 47.9001 81.403 50.8321 83.2183 52.9772C84.1504 54.0906 85.014 54.553 88.8143 55.9987L92.1185 57.2476L93.9114 57.1905C95.5258 57.1391 95.8012 57.081 96.6198 56.6636C97.6159 56.159 98.9461 54.8749 99.3424 54.015C100.032 52.605 99.8355 50.5392 98.8632 48.6923C97.8046 46.7033 94.1371 43.7683 90.7574 42.2275L89.2017 41.5099L86.9824 41.5313C85.1392 41.5576 84.6191 41.6235 83.8933 41.907Z" fill="#433064" fill-opacity="0.6"/>
<path fill-rule="evenodd" clip-rule="evenodd" d="M114.165 55.1252C114.203 56.3148 118.966 60.831 122.411 62.9411C123.91 63.8562 126.889 65.1971 130.922 66.7833C134.162 68.0512 135.263 68.2765 135.784 67.77C136.18 67.383 136.179 66.7946 135.774 66.4162C135.337 66.0065 132.174 64.5559 127.725 62.7072C125.624 61.8436 123.338 60.8057 122.608 60.4053C120.763 59.3703 117.829 57.3917 116.119 55.9934C114.645 54.8002 114.148 54.5865 114.165 55.1252Z" fill="#433064" fill-opacity="0.6"/>
<path fill-rule="evenodd" clip-rule="evenodd" d="M108.188 66.7727C106.358 67.2223 104.525 68.0972 102.947 69.3059C101.864 70.1245 100.018 72.1414 99.2558 73.3087C97.7956 75.5906 97.2785 78.3153 98.2502 78.5955C98.4801 78.6529 98.6721 79.072 99.0415 80.4144C99.6132 82.4528 100.154 83.5617 101.012 84.3832C102.258 85.5991 104.563 86.1635 107.889 86.0729C109.601 86.0353 110.007 85.9731 111.103 85.5623C112.538 85.0113 114.336 84.0559 115.389 83.3045C117.734 81.5984 119.965 78.3938 119.916 76.8287C119.877 75.6052 117.955 71.6194 116.544 69.8203C115.608 68.6423 113.887 67.3907 112.599 66.9419C111.543 66.5842 109.337 66.4912 108.188 66.7727Z" fill="#433064" fill-opacity="0.6"/>
<path fill-rule="evenodd" clip-rule="evenodd" d="M139.504 68.7611C138.645 69.4423 139.996 70.3765 143.126 71.2897C145.579 71.9954 146.852 71.9229 146.825 71.0745C146.804 70.4398 145.977 70.0734 142.554 69.2033C139.856 68.5219 139.807 68.5241 139.504 68.7611Z" fill="#433064" fill-opacity="0.6"/>
<path fill-rule="evenodd" clip-rule="evenodd" d="M151.276 71.9939C150.993 72.3448 151.563 72.7687 152.88 73.1827C153.507 73.3753 154.349 73.6904 154.778 73.8723C155.21 74.0711 155.67 74.1874 155.799 74.134C156.17 73.9759 156.238 73.5486 155.948 73.1512C155.264 72.1765 151.794 71.3243 151.276 71.9939Z" fill="#433064" fill-opacity="0.6"/>
<path fill-rule="evenodd" clip-rule="evenodd" d="M139.915 78.0838C138.708 78.6445 138.646 80.2779 139.741 82.3489C140.712 84.1466 141.937 85.2337 144.09 86.1758C145.398 86.7549 146.114 87.2051 147.204 88.1178C148.68 89.3756 149.494 89.8227 150.908 90.1535C152.552 90.5248 153.637 90.2792 154.441 89.3555C155.259 88.3835 155.367 87.1723 154.791 85.4929C154.322 84.1368 153.495 83.2496 151.53 82.0227C149.482 80.7492 147.842 80.0019 145.503 79.3092C144.432 79.0014 142.998 78.5248 142.287 78.2701C140.884 77.7433 140.654 77.7336 139.915 78.0838Z" fill="#433064" fill-opacity="0.6"/>
<path fill-rule="evenodd" clip-rule="evenodd" d="M180.682 89.7765C180.138 90.1035 180.37 90.7323 181.432 91.7923C181.988 92.3461 183.36 93.9015 184.511 95.2359C185.647 96.5539 187.152 98.2036 187.859 98.8666C188.97 99.942 189.203 100.098 189.709 100.082C190.442 100.058 190.821 99.6381 190.796 98.8547C190.782 98.3992 190.572 98.013 189.775 97.0263C186.785 93.3364 183.077 90.1408 181.283 89.6926C181.101 89.6322 180.825 89.6733 180.682 89.7765Z" fill="#433064" fill-opacity="0.6"/>
<path fill-rule="evenodd" clip-rule="evenodd" d="M71.9004 101.941C69.8538 102.741 68.5043 104.481 66.5699 108.802C65.1368 111.982 64.7368 113.74 64.8091 116.544C64.8535 118.469 64.8957 118.729 65.2755 119.386C65.829 120.365 66.2662 120.791 67.1779 121.218C68.1225 121.661 69.5738 121.664 70.5078 121.243C72.1491 120.489 74.5896 118.225 75.7852 116.293C76.6558 114.944 77.9494 111.98 78.5699 109.987C79.0305 108.535 79.0546 108.274 78.9943 106.382C78.9372 104.59 78.877 104.248 78.5295 103.59C78.0793 102.756 77.3809 102.353 76.4514 102.383C76.142 102.392 75.4838 102.235 74.9872 102.023C73.9953 101.597 72.8344 101.569 71.9004 101.941Z" fill="#433064" fill-opacity="0.6"/>
<path fill-rule="evenodd" clip-rule="evenodd" d="M52.8838 133.082C51.349 133.554 49.495 134.789 47.7695 136.476C45.7916 138.416 44.0978 141.636 43.3983 144.776C42.9696 146.698 43.1424 149.027 43.7836 150.197C45.376 153.037 48.554 152.935 50.9742 149.985C52.0418 148.679 53.7622 146.828 55.8493 144.738C57.3677 143.22 57.8619 142.34 58.3059 140.367C58.6629 138.756 58.7645 136.337 58.4946 136.036C58.3919 135.909 58.1814 135.442 58.036 134.989C57.4223 133.133 55.3084 132.351 52.8838 133.082Z" fill="#433064" fill-opacity="0.6"/>
<path fill-rule="evenodd" clip-rule="evenodd" d="M232.484 93.4153C230.773 94.5466 229.792 94.9692 227.832 95.4399C222.973 96.5913 220.086 99.2283 220.219 102.374C220.277 103.677 220.695 104.513 221.785 105.393C223.778 107.043 227.394 107.27 230.517 105.947C232.594 105.064 234.544 103.223 236.032 100.745C238.201 97.1169 237.894 93.1444 235.413 92.6041C234.245 92.3471 234.003 92.421 232.484 93.4153Z" fill="#433064" fill-opacity="0.6"/>
<path fill-rule="evenodd" clip-rule="evenodd" d="M210.622 111.59C209.23 111.929 207.754 112.743 206.965 113.568C205.496 115.149 205.573 117.561 207.128 118.671C209.415 120.311 215.981 119.434 217.772 117.254C218.871 115.914 218.739 114.319 217.377 113.056C216.586 112.314 215.13 111.675 214.249 111.703C214.005 111.711 213.658 111.608 213.492 111.482C213.09 111.202 212.015 111.236 210.622 111.59Z" fill="#433064" fill-opacity="0.6"/>
<path fill-rule="evenodd" clip-rule="evenodd" d="M232.376 114.618C230.942 115.203 230.469 116.229 230.515 118.692C230.535 120.862 230.833 122.06 231.735 123.729C232.672 125.462 233.37 126.353 234.778 127.565C236.155 128.762 237.486 129.519 238.936 129.963C241.31 130.686 243.082 129.994 243.642 128.115C244.393 125.546 241.674 119.577 238.396 116.597C236.414 114.816 233.905 113.982 232.376 114.618Z" fill="#433064" fill-opacity="0.6"/>
<path fill-rule="evenodd" clip-rule="evenodd" d="M180.759 120.913C178.099 121.944 175.074 124.341 174.152 126.167C173.586 127.294 173.394 128.476 173.632 129.283C173.941 130.27 174.771 131.222 175.648 131.57C176.754 132.025 177.874 131.826 180.874 130.669C184.679 129.21 185.447 128.711 186.472 127.08C187.123 126.014 187.688 124.283 187.66 123.418C187.636 123.142 187.385 122.481 187.076 121.952C186.574 121.087 186.423 120.961 185.614 120.66C184.244 120.149 182.5 120.254 180.759 120.913Z" fill="#433064" fill-opacity="0.6"/>
<path fill-rule="evenodd" clip-rule="evenodd" d="M255.273 143.788C254.439 144.238 254.073 145.051 254.037 146.488C254.008 148.12 254.396 149.56 255.383 151.341C255.816 152.111 256.165 152.818 256.168 152.915C256.179 153.258 257.365 154.607 258.387 155.44C259.711 156.524 260.721 157.014 261.934 157.154C263.867 157.404 265.235 156.756 265.84 155.3C266.159 154.539 266.199 154.228 266.101 153.235C266.03 152.551 265.826 151.758 265.616 151.309C265.144 150.327 263.613 148.891 261.51 147.44C260.525 146.754 259.584 145.935 259.11 145.346C257.768 143.725 256.397 143.165 255.273 143.788Z" fill="#433064" fill-opacity="0.6"/>
<path fill-rule="evenodd" clip-rule="evenodd" d="M104.481 139.451C104.098 139.741 104.023 140.477 104.36 140.793C104.679 141.093 105.443 141.004 105.627 140.638C105.856 140.158 105.799 139.832 105.426 139.486C105.024 139.107 104.942 139.111 104.481 139.451Z" fill="#433064" fill-opacity="0.6"/>
<path fill-rule="evenodd" clip-rule="evenodd" d="M109.401 140.226C108.523 141.347 110.07 142.798 111.049 141.757C111.728 141.033 111.204 139.956 110.193 139.988C109.851 139.999 109.496 140.109 109.401 140.226Z" fill="#433064" fill-opacity="0.6"/>
<path fill-rule="evenodd" clip-rule="evenodd" d="M121.594 140.261C120.943 140.821 121.297 142.228 122.153 142.43C123.336 142.685 124.037 140.624 122.927 140.088C122.444 139.843 122.006 139.906 121.594 140.261Z" fill="#433064" fill-opacity="0.6"/>
<path fill-rule="evenodd" clip-rule="evenodd" d="M99.3656 141.328C98.181 142.051 98.6171 143.457 100.003 143.413C101.079 143.379 101.612 142.186 100.872 141.475C100.569 141.191 99.7342 141.103 99.3656 141.328Z" fill="#433064" fill-opacity="0.6"/>
<path fill-rule="evenodd" clip-rule="evenodd" d="M139.337 140.381C139.019 140.653 138.929 140.867 138.944 141.339C138.968 142.09 139.371 142.485 140.088 142.463C141.213 142.427 141.657 140.993 140.771 140.335C140.52 140.148 140.206 140.011 140.043 140.017C139.88 140.022 139.575 140.178 139.337 140.381Z" fill="#433064" fill-opacity="0.6"/>
<path fill-rule="evenodd" clip-rule="evenodd" d="M129.335 140.945C129.096 141.116 128.99 141.364 129.002 141.755C129.023 142.423 129.508 142.8 130.307 142.774C130.895 142.756 131.625 142.129 131.61 141.672C131.606 141.526 131.416 141.237 131.182 141.032C130.71 140.575 129.877 140.536 129.335 140.945Z" fill="#433064" fill-opacity="0.6"/>
<path fill-rule="evenodd" clip-rule="evenodd" d="M112.899 143.492C112.157 144.283 112.786 145.617 113.863 145.583C114.613 145.559 115.07 145.071 115.046 144.322C115.035 143.963 114.893 143.624 114.691 143.435C114.49 143.246 114.144 143.126 113.785 143.138C113.427 143.149 113.088 143.291 112.899 143.492Z" fill="#433064" fill-opacity="0.6"/>
<path fill-rule="evenodd" clip-rule="evenodd" d="M104.867 144.972C104.108 145.763 104.618 146.856 105.742 146.82C107.013 146.779 107.374 145.3 106.231 144.765C105.585 144.444 105.309 144.485 104.867 144.972Z" fill="#433064" fill-opacity="0.6"/>
<path fill-rule="evenodd" clip-rule="evenodd" d="M133.349 144.015C132.986 144.403 133.21 145.292 133.667 145.277C134.287 145.258 134.523 144.5 134.036 144.058C133.717 143.759 133.603 143.747 133.349 144.015Z" fill="#433064" fill-opacity="0.6"/>
<path fill-rule="evenodd" clip-rule="evenodd" d="M126.624 145.454C126.151 146.024 126.155 146.612 126.624 147.037C127.129 147.527 127.766 147.538 128.193 147.084C128.604 146.648 128.574 145.751 128.171 145.405C127.769 145.059 126.938 145.085 126.624 145.454Z" fill="#433064" fill-opacity="0.6"/>
<path fill-rule="evenodd" clip-rule="evenodd" d="M120.582 146.414C120.302 146.864 120.429 147.268 120.894 147.498C121.591 147.85 122.286 147.142 121.968 146.402C121.739 145.838 120.923 145.849 120.582 146.414Z" fill="#433064" fill-opacity="0.6"/>
<path fill-rule="evenodd" clip-rule="evenodd" d="M115.341 146.89C114.89 147.1 114.778 147.658 115.102 148.106C115.393 148.537 116.015 148.566 116.377 148.179C117.025 147.505 116.208 146.472 115.341 146.89Z" fill="#433064" fill-opacity="0.6"/>
<path fill-rule="evenodd" clip-rule="evenodd" d="M109.725 148.849C108.94 149.297 108.816 150.004 109.392 150.688C110.154 151.592 111.827 150.838 111.563 149.688C111.354 148.78 110.494 148.384 109.725 148.849Z" fill="#433064" fill-opacity="0.6"/>
<path fill-rule="evenodd" clip-rule="evenodd" d="M143.331 149.459C142.343 150.208 143.235 152.105 144.257 151.387C144.753 151.045 144.77 150.049 144.264 149.543C143.843 149.133 143.778 149.118 143.331 149.459Z" fill="#433064" fill-opacity="0.6"/>
<path fill-rule="evenodd" clip-rule="evenodd" d="M130.99 150.342C130.198 151.166 130.728 152.389 131.852 152.354C132.505 152.333 133.072 151.711 133.051 151.06C133.035 150.539 132.329 149.89 131.792 149.909C131.562 149.915 131.195 150.108 130.99 150.342Z" fill="#433064" fill-opacity="0.6"/>
<path fill-rule="evenodd" clip-rule="evenodd" d="M123.266 150.767C122.891 151.284 122.876 151.35 123.138 151.88C123.54 152.7 124.845 152.723 125.228 151.929C125.857 150.684 124.094 149.647 123.266 150.767Z" fill="#433064" fill-opacity="0.6"/>
<path fill-rule="evenodd" clip-rule="evenodd" d="M115.557 151.095C115.269 151.267 115.195 152.004 115.434 152.322C115.672 152.64 116.179 152.705 116.545 152.434C117.01 152.11 117.023 151.52 116.604 151.16C116.252 150.859 115.958 150.837 115.557 151.095Z" fill="#433064" fill-opacity="0.6"/>
<path fill-rule="evenodd" clip-rule="evenodd" d="M120.014 151.164C119.542 151.702 119.634 152.515 120.251 152.936C121.385 153.731 122.815 152.005 121.789 151.043C121.318 150.601 120.456 150.661 120.014 151.164Z" fill="#433064" fill-opacity="0.6"/>
<path fill-rule="evenodd" clip-rule="evenodd" d="M141.333 152.33C140.831 152.918 140.71 153.248 140.796 153.863C140.853 154.188 141.457 154.66 141.831 154.648C142.827 154.615 143.467 152.719 142.727 152.026C142.223 151.551 141.947 151.625 141.333 152.33Z" fill="#433064" fill-opacity="0.6"/>
<path fill-rule="evenodd" clip-rule="evenodd" d="M115.503 192.957C115.354 193.386 115.709 193.751 116.232 193.734C116.653 193.72 116.702 193.654 116.687 193.229C116.674 192.79 116.606 192.743 116.132 192.71C115.756 192.688 115.579 192.759 115.503 192.957Z" fill="#433064" fill-opacity="0.6"/>
<path fill-rule="evenodd" clip-rule="evenodd" d="M62.9713 198.712C62.9127 198.895 63.0003 199.071 63.1834 199.211C63.4503 199.382 63.5314 199.379 63.7368 199.178C63.9263 198.976 63.9226 198.879 63.7374 198.688C63.4646 198.355 63.0914 198.382 62.9713 198.712Z" fill="#433064" fill-opacity="0.6"/>
<path fill-rule="evenodd" clip-rule="evenodd" d="M114.174 197.847C113.827 198.234 113.749 198.872 113.989 199.207C114.261 199.574 114.957 199.893 115.463 199.877C116.391 199.848 116.852 198.952 116.368 198.086C116.074 197.558 115.808 197.419 115.042 197.443C114.7 197.454 114.394 197.595 114.174 197.847Z" fill="#433064" fill-opacity="0.6"/>
<path fill-rule="evenodd" clip-rule="evenodd" d="M78.884 199.755C78.5825 200.009 78.4764 200.258 78.4889 200.649C78.5076 201.235 79.1141 201.853 79.668 201.836C80.2219 201.818 80.7894 201.162 80.7708 200.576C80.7521 199.99 80.1441 199.373 79.5901 199.391C79.427 199.396 79.1224 199.552 78.884 199.755Z" fill="#433064" fill-opacity="0.6"/>
<path fill-rule="evenodd" clip-rule="evenodd" d="M72.1605 200.801C71.7181 201.273 72.1841 202.073 72.918 202.05C73.3581 202.036 73.6133 201.342 73.3223 200.911C73.0995 200.591 72.4287 200.516 72.1605 200.801Z" fill="#433064" fill-opacity="0.6"/>
<path fill-rule="evenodd" clip-rule="evenodd" d="M84.9248 201.342C83.7833 201.851 84.3005 203.809 85.5737 203.768C86.1276 203.75 86.5094 203.479 86.7048 202.95C86.9464 202.322 86.683 201.709 86.0355 201.387C85.473 201.128 85.423 201.131 84.9248 201.342Z" fill="#433064" fill-opacity="0.6"/>
<path fill-rule="evenodd" clip-rule="evenodd" d="M68.1464 202.366C66.9725 202.893 67.4395 204.739 68.7428 204.698C70.0306 204.657 70.4003 202.963 69.2245 202.414C68.6941 202.153 68.6448 202.155 68.1464 202.366Z" fill="#433064" fill-opacity="0.6"/>
<path fill-rule="evenodd" clip-rule="evenodd" d="M110.177 201.484C109.741 201.644 109.379 202.08 109.391 202.439C109.415 203.205 110.57 203.592 111.107 203.02C111.722 202.365 111.016 201.18 110.177 201.484Z" fill="#433064" fill-opacity="0.6"/>
<path fill-rule="evenodd" clip-rule="evenodd" d="M75.7406 204.034C75.2871 204.163 74.8604 204.602 74.8712 204.926C74.8864 205.399 75.5439 206.03 76.1337 206.126C77.1341 206.274 77.8368 205.795 77.8103 204.995C77.7841 204.164 76.8395 203.738 75.7406 204.034Z" fill="#433064" fill-opacity="0.6"/>
<path fill-rule="evenodd" clip-rule="evenodd" d="M114.058 203.971C113.539 204.07 113.215 204.651 113.241 205.45C113.28 206.689 114.352 207.063 115.12 206.075C115.967 205.004 115.323 203.736 114.058 203.971Z" fill="#433064" fill-opacity="0.6"/>
<path fill-rule="evenodd" clip-rule="evenodd" d="M108.666 205.792C107.798 206.718 108.244 207.943 109.419 207.907C109.875 207.891 110.681 207.066 110.668 206.642C110.653 206.201 110.259 205.628 109.862 205.459C109.284 205.219 109.187 205.253 108.666 205.792Z" fill="#433064" fill-opacity="0.6"/>
<path fill-rule="evenodd" clip-rule="evenodd" d="M80.9107 207.034C80.8059 207.854 81.1693 208.478 81.7232 208.461C82.2448 208.444 82.4663 208.241 82.6271 207.633C82.8145 206.843 82.5574 206.46 81.8897 206.53C81.5978 206.555 81.2706 206.533 81.17 206.471C81.071 206.408 80.9624 206.624 80.9107 207.034Z" fill="#433064" fill-opacity="0.6"/>
<path fill-rule="evenodd" clip-rule="evenodd" d="M103.302 207.514C103.197 207.794 103.617 208.157 103.857 208.001C103.937 207.951 104.012 207.751 104.007 207.573C103.995 207.197 103.422 207.151 103.302 207.514Z" fill="#433064" fill-opacity="0.6"/>
<path fill-rule="evenodd" clip-rule="evenodd" d="M97.326 210.021C96.6467 210.745 97.5365 212.038 98.6952 212.001C99.7215 211.969 100.01 210.784 99.1544 210.028C98.7173 209.65 97.6725 209.634 97.326 210.021Z" fill="#433064" fill-opacity="0.6"/>
<path fill-rule="evenodd" clip-rule="evenodd" d="M104.777 210.29C104.439 210.431 104.108 211.306 104.237 211.727C104.439 212.471 105.119 212.79 105.975 212.536C106.735 212.316 106.973 211.083 106.383 210.484C106.045 210.151 105.292 210.061 104.777 210.29Z" fill="#433064" fill-opacity="0.6"/>
<path fill-rule="evenodd" clip-rule="evenodd" d="M112.135 210.137C111.942 210.243 111.706 210.543 111.602 210.808C111.33 211.516 111.856 212.137 112.754 212.174C113.931 212.217 114.582 211.168 113.887 210.327C113.496 209.866 112.808 209.789 112.135 210.137Z" fill="#433064" fill-opacity="0.6"/>
<path fill-rule="evenodd" clip-rule="evenodd" d="M189.958 156.592C189.445 157.407 190.354 158.276 191.138 157.729C191.552 157.439 191.642 156.701 191.29 156.369C190.953 156.055 190.207 156.175 189.958 156.592Z" fill="#433064" fill-opacity="0.6"/>
<path fill-rule="evenodd" clip-rule="evenodd" d="M191.27 160.399C190.713 160.876 190.797 161.981 191.418 162.484C192.004 162.955 192.59 162.919 193.064 162.399C193.616 161.827 193.561 161.111 192.939 160.509C192.366 159.975 191.795 159.942 191.27 160.399Z" fill="#433064" fill-opacity="0.6"/>
<path fill-rule="evenodd" clip-rule="evenodd" d="M199.531 162.048C198.893 162.508 199.291 163.753 200.058 163.728C200.53 163.713 201.004 163.191 200.988 162.719C200.975 162.262 200.469 161.756 200.061 161.768C199.963 161.772 199.723 161.896 199.531 162.048Z" fill="#433064" fill-opacity="0.6"/>
<path fill-rule="evenodd" clip-rule="evenodd" d="M195.238 164.535C194.418 164.903 194.159 166.022 194.719 166.672C195.176 167.197 196.352 167.256 196.925 166.765C198.069 165.798 196.637 163.886 195.238 164.535Z" fill="#433064" fill-opacity="0.6"/>
<path fill-rule="evenodd" clip-rule="evenodd" d="M251.798 163.776C251.469 164.195 251.576 165.041 251.994 165.37C252.497 165.745 252.758 165.722 253.215 165.216C253.672 164.744 253.693 164.37 253.318 163.859C253.011 163.444 252.095 163.391 251.798 163.776Z" fill="#433064" fill-opacity="0.6"/>
<path fill-rule="evenodd" clip-rule="evenodd" d="M201.638 167.692C201.136 168.329 201.664 169.552 202.446 169.527C203.311 169.499 203.601 168.364 202.896 167.75C202.443 167.34 201.92 167.324 201.638 167.692Z" fill="#433064" fill-opacity="0.6"/>
<path fill-rule="evenodd" clip-rule="evenodd" d="M258.436 166.717C258.082 166.874 257.752 167.766 257.882 168.268C258.142 169.287 259.341 169.511 260.129 168.67C260.524 168.233 260.585 168.068 260.489 167.631C260.43 167.338 260.207 166.987 260.023 166.829C259.688 166.578 258.887 166.507 258.436 166.717Z" fill="#433064" fill-opacity="0.6"/>
<path fill-rule="evenodd" clip-rule="evenodd" d="M197.671 169.697C197.236 169.874 196.832 170.49 196.846 170.948C196.861 171.402 197.596 171.968 198.133 171.95C198.624 171.934 199.304 171.227 199.288 170.738C199.262 169.906 198.429 169.378 197.671 169.697Z" fill="#433064" fill-opacity="0.6"/>
<path fill-rule="evenodd" clip-rule="evenodd" d="M251.564 168.225C251.214 169.052 252.222 169.951 252.873 169.391C253.142 169.137 253.147 168.224 252.861 167.956C252.49 167.609 251.761 167.761 251.564 168.225Z" fill="#433064" fill-opacity="0.6"/>
<path fill-rule="evenodd" clip-rule="evenodd" d="M211.439 169.536C211.11 169.921 211.115 170.59 211.46 171.182C211.893 171.968 212.826 172.052 213.325 171.368C213.78 170.749 213.74 170.524 212.983 169.827C212.276 169.149 211.832 169.065 211.439 169.536Z" fill="#433064" fill-opacity="0.6"/>
<path fill-rule="evenodd" clip-rule="evenodd" d="M204.839 169.81C204.539 170.128 204.639 170.714 205.039 170.978C205.355 171.179 205.454 171.192 205.74 170.988C206.124 170.715 206.22 170.141 205.947 169.807C205.694 169.537 205.09 169.54 204.839 169.81Z" fill="#433064" fill-opacity="0.6"/>
<path fill-rule="evenodd" clip-rule="evenodd" d="M255.107 171.375C254.841 171.725 255.133 172.173 255.654 172.157C256.094 172.143 256.243 171.68 255.937 171.331C255.668 171.03 255.374 171.04 255.107 171.375Z" fill="#433064" fill-opacity="0.6"/>
<path fill-rule="evenodd" clip-rule="evenodd" d="M203.168 173.193C203.049 173.555 203.356 173.986 203.716 173.976C203.878 173.969 204.071 173.849 204.164 173.7C204.397 173.3 204.154 172.9 203.681 172.915C203.437 172.923 203.228 173.045 203.168 173.193Z" fill="#433064" fill-opacity="0.6"/>
<path fill-rule="evenodd" clip-rule="evenodd" d="M264.132 171.365C263.724 171.836 263.704 172.717 264.095 173.242C264.504 173.785 265.333 173.692 265.85 173.04C266.321 172.454 266.347 172.224 265.983 171.6C265.569 170.846 264.683 170.726 264.132 171.365Z" fill="#433064" fill-opacity="0.6"/>
<path fill-rule="evenodd" clip-rule="evenodd" d="M208.713 173.082C208.167 173.326 208.077 174.064 208.543 174.425C209.012 174.784 209.127 174.781 209.521 174.362C209.93 173.923 209.911 173.271 209.496 173.056C209.131 172.887 209.18 172.886 208.713 173.082Z" fill="#433064" fill-opacity="0.6"/>
<path fill-rule="evenodd" clip-rule="evenodd" d="M217.855 173.704C217.393 174.045 217.405 174.958 217.877 175.401C218.599 176.079 219.838 175.517 219.807 174.523C219.776 173.561 218.667 173.092 217.855 173.704Z" fill="#433064" fill-opacity="0.6"/>
<path fill-rule="evenodd" clip-rule="evenodd" d="M260.062 172.67C259.952 172.82 259.864 173.149 259.889 173.41C259.99 175.006 260.974 175.675 261.873 174.718C262.22 174.348 262.263 174.183 262.163 173.615C262.085 173.192 261.91 172.824 261.693 172.667C261.241 172.323 260.328 172.335 260.062 172.67Z" fill="#433064" fill-opacity="0.6"/>
<path fill-rule="evenodd" clip-rule="evenodd" d="M213.473 174.448C213 174.985 213.042 175.783 213.58 176.273C214.085 176.746 214.477 176.749 215.034 176.291C215.352 176.019 215.441 175.805 215.426 175.298C215.389 174.125 214.214 173.607 213.473 174.448Z" fill="#433064" fill-opacity="0.6"/>
<path fill-rule="evenodd" clip-rule="evenodd" d="M265.298 177.743C265.11 177.993 264.973 178.293 264.978 178.406C264.986 178.699 265.592 179.267 265.868 179.259C266.912 179.208 267.323 178.298 266.631 177.554C266.242 177.157 265.673 177.241 265.298 177.743Z" fill="#433064" fill-opacity="0.6"/>
<path fill-rule="evenodd" clip-rule="evenodd" d="M154.135 181.706C153.692 182.178 154.061 182.981 154.714 182.96C155.186 182.945 155.436 182.627 155.42 182.106C155.4 181.503 154.561 181.252 154.135 181.706Z" fill="#433064" fill-opacity="0.6"/>
<path fill-rule="evenodd" clip-rule="evenodd" d="M260.735 178.442C259.899 179.333 261.03 180.57 262.003 179.805C262.177 179.668 262.281 179.372 262.271 179.046C262.242 178.134 261.35 177.786 260.735 178.442Z" fill="#433064" fill-opacity="0.6"/>
<path fill-rule="evenodd" clip-rule="evenodd" d="M270.48 181.102C270.038 181.573 270.468 182.277 271.15 182.157C271.637 182.077 271.899 181.596 271.659 181.228C271.419 180.892 270.748 180.816 270.48 181.102Z" fill="#433064" fill-opacity="0.6"/>
<path fill-rule="evenodd" clip-rule="evenodd" d="M155.788 185.946C155.567 186.167 155.398 186.529 155.406 186.758C155.42 187.197 156.125 187.811 156.597 187.796C157.477 187.768 157.869 186.239 157.135 185.756C156.603 185.415 156.231 185.46 155.788 185.946Z" fill="#433064" fill-opacity="0.6"/>
<path fill-rule="evenodd" clip-rule="evenodd" d="M160.88 185.996C160.345 186.617 160.781 187.467 161.507 187.248C162.073 187.101 162.232 186.426 161.826 185.998C161.454 185.602 161.21 185.61 160.88 185.996Z" fill="#433064" fill-opacity="0.6"/>
<path fill-rule="evenodd" clip-rule="evenodd" d="M265.427 183.302C265.285 183.471 265.134 183.835 265.094 184.114C264.87 185.311 266.556 185.991 267.292 184.99C267.964 184.087 267.39 182.963 266.281 182.998C265.89 183.011 265.568 183.135 265.427 183.302Z" fill="#433064" fill-opacity="0.6"/>
<path fill-rule="evenodd" clip-rule="evenodd" d="M158.609 188.991C158.335 189.098 157.801 190.274 157.815 190.697C157.844 191.609 159.28 192.119 160.092 191.505C161.431 190.517 160.137 188.322 158.609 188.991Z" fill="#433064" fill-opacity="0.6"/>
<path fill-rule="evenodd" clip-rule="evenodd" d="M270.166 186.563C269.528 187.041 269.855 188.106 270.638 188.081C271.208 188.064 271.476 187.778 271.459 187.239C271.445 186.817 271.005 186.274 270.679 186.284C270.598 186.287 270.356 186.411 270.166 186.563Z" fill="#433064" fill-opacity="0.6"/>
<path fill-rule="evenodd" clip-rule="evenodd" d="M166.312 190.998C166.045 191.333 166.262 192.012 166.689 192.129C167.086 192.246 167.643 191.787 167.629 191.364C167.61 190.761 166.704 190.496 166.312 190.998Z" fill="#433064" fill-opacity="0.6"/>
<path fill-rule="evenodd" clip-rule="evenodd" d="M162.895 192.346C162.606 192.519 162.531 193.239 162.771 193.574C163.01 193.925 163.649 193.988 163.964 193.665C164.346 193.295 164.33 192.855 163.911 192.46C163.54 192.112 163.294 192.088 162.895 192.346Z" fill="#433064" fill-opacity="0.6"/>
<path fill-rule="evenodd" clip-rule="evenodd" d="M164.015 196.26C162.966 197.11 163.429 198.84 164.7 198.8C165.956 198.76 166.671 197.138 165.78 196.35C165.344 195.957 164.428 195.92 164.015 196.26Z" fill="#433064" fill-opacity="0.6"/>
<path fill-rule="evenodd" clip-rule="evenodd" d="M221.117 211.022C220.566 211.627 220.551 212.184 221.075 212.771C221.363 213.086 221.626 213.193 222.018 213.181C223.142 213.145 223.684 211.676 222.842 210.903C222.288 210.382 221.685 210.418 221.117 211.022Z" fill="#433064" fill-opacity="0.6"/>
<path fill-rule="evenodd" clip-rule="evenodd" d="M225.524 215.633C225.192 215.984 225.252 216.326 225.692 216.802C226.029 217.165 226.6 217.147 226.914 216.764C227.259 216.344 227.232 215.968 226.829 215.591C226.407 215.196 225.919 215.211 225.524 215.633Z" fill="#433064" fill-opacity="0.6"/>
<path fill-rule="evenodd" clip-rule="evenodd" d="M222.481 216.416C222.37 216.533 222.3 216.861 222.309 217.156C222.323 217.595 222.409 217.725 222.754 217.842C223.3 218.038 223.764 217.778 223.878 217.219C224.048 216.464 223.003 215.86 222.481 216.416Z" fill="#433064" fill-opacity="0.6"/>
<path fill-rule="evenodd" clip-rule="evenodd" d="M226.804 219.443C226.381 220.011 226.405 220.223 226.878 220.747C227.402 221.3 228.234 221.323 228.657 220.77C229.017 220.27 229.006 219.912 228.564 219.387C228.309 219.085 228.061 218.979 227.67 218.992C227.28 219.004 227.038 219.126 226.804 219.443Z" fill="#433064" fill-opacity="0.6"/>
<path fill-rule="evenodd" clip-rule="evenodd" d="M224.031 220.511C223.89 220.696 223.878 220.843 224.015 221.034C224.426 221.657 225.36 221.236 225.108 220.542C224.965 220.155 224.328 220.126 224.031 220.511Z" fill="#433064" fill-opacity="0.6"/>
<path fill-rule="evenodd" clip-rule="evenodd" d="M231.896 220.98C231.454 221.451 231.511 222.216 232.033 222.688C232.74 223.367 233.772 223.008 233.985 222.022C234.056 221.66 233.968 221.484 233.565 221.09C232.96 220.537 232.354 220.492 231.896 220.98Z" fill="#433064" fill-opacity="0.6"/>
<path fill-rule="evenodd" clip-rule="evenodd" d="M237.796 221.23C237.32 221.653 237.299 223.025 237.766 223.337C238.566 223.882 239.691 223.307 239.661 222.362C239.648 221.956 239.509 221.715 239.122 221.369C238.503 220.849 238.257 220.824 237.796 221.23Z" fill="#433064" fill-opacity="0.6"/>
</g>
<defs>
<filter id="filter0_d_75_188" x="26.0533" y="41.5099" width="267.768" height="258.215" filterUnits="userSpaceOnUse" color-interpolation-filters="sRGB">
<feFlood flood-opacity="0" result="BackgroundImageFix"/>
<feColorMatrix in="SourceAlpha" type="matrix" values="0 0 0 0 0 0 0 0 0 0 0 0 0 0 0 0 0 0 127 0" result="hardAlpha"/>
<feOffset dy="4"/>
<feGaussianBlur stdDeviation="2"/>
<feComposite in2="hardAlpha" operator="out"/>
<feColorMatrix type="matrix" values="0 0 0 0 0 0 0 0 0 0 0 0 0 0 0 0 0 0 0.25 0"/>
<feBlend mode="normal" in2="BackgroundImageFix" result="effect1_dropShadow_75_188"/>
<feBlend mode="normal" in="SourceGraphic" in2="effect1_dropShadow_75_188" result="shape"/>
</filter>
</defs>
</svg>
