<svg width="29" height="29" viewBox="0 0 29 29" fill="none" xmlns="http://www.w3.org/2000/svg">
<path d="M2.34002 2.33605L2.34098 2.33509C3.67833 0.99531 5.74389 0.520092 7.98591 0.846071C10.2216 1.17112 12.5187 2.28317 14.1823 3.94943L14.1827 3.94985C16.7462 6.51326 17.0158 9.59684 15.6794 12.1578L15.41 12.6741L15.8434 13.063L27.9873 23.9608L27.9876 23.961C28.3248 24.2634 28.3385 24.7913 28.0202 25.1096L25.1145 28.0153L25.1121 28.0177C24.7958 28.3369 24.2741 28.3276 23.9646 27.9868C23.9642 27.9864 23.9639 27.9861 23.9636 27.9857L13.068 15.8386L12.6791 15.405L12.1628 15.6745C9.60178 17.0109 6.51819 16.7412 3.95478 14.1778L3.95436 14.1774C2.28811 12.5138 1.17606 10.2166 0.851004 7.98098C0.525024 5.73896 1.00024 3.6734 2.34002 2.33605Z" stroke="#554348" stroke-width="1.5"/>
</svg>
