<svg width="34" height="27" viewBox="0 0 34 27" fill="none" xmlns="http://www.w3.org/2000/svg">
<path d="M32.228 23.567C33.2249 23.5145 34 22.7152 34 21.7572V1.8149C34.0006 0.769502 33.0939 -0.0586726 32.0066 0.00271735M32.228 23.567L32.1886 22.818M32.228 23.567C29.3078 23.7205 23.402 24.2813 19.3184 26.3366C18.6897 26.653 17.9442 26.2221 17.9442 25.5403V4.06154C17.9442 3.74987 18.0994 3.45177 18.3733 3.28413C22.3424 0.854503 28.7718 0.186297 32.0066 0.00271735M32.228 23.567L32.1885 22.8181C32.1885 22.8181 32.1886 22.818 32.1886 22.818M32.1886 22.818C32.807 22.7854 33.25 22.2968 33.25 21.7572V1.8149V1.81448C33.2503 1.22745 32.7337 0.712974 32.0491 0.751512M32.1886 22.818L18.9812 25.6667M32.0491 0.751512L32.0066 0.00271735M32.0491 0.751512C30.4517 0.842166 28.0726 1.05228 25.6102 1.53703C23.1359 2.02412 20.6378 2.77732 18.7649 3.9238L18.7648 3.92382C18.7262 3.94744 18.6942 3.99583 18.6942 4.06154V25.5403C18.6942 25.5881 18.715 25.6311 18.7713 25.6637C18.8294 25.6974 18.905 25.705 18.9812 25.6667M32.0491 0.751512C32.049 0.751517 32.0489 0.751521 32.0489 0.751525L32.0066 0.00271735M18.9812 25.6667C18.9812 25.6667 18.9812 25.6667 18.9812 25.6667L19.3122 26.3244L18.9812 25.6667ZM1.81107 22.8186L1.81139 22.8186C4.73335 22.9721 10.7853 23.535 15.0231 25.6692L15.0232 25.6692C15.0983 25.707 15.1726 25.6995 15.2298 25.6663C15.2853 25.6341 15.3058 25.5916 15.3058 25.5445V4.05091C15.3058 4.01947 15.2983 3.99531 15.2882 3.97715C15.2784 3.95944 15.2624 3.94052 15.2348 3.92358L15.6267 3.28413L15.2351 3.92377C13.3625 2.77732 10.8646 2.02428 8.39034 1.53726C5.9282 1.05261 3.54919 0.842487 1.95171 0.751525L1.81107 22.8186ZM1.81107 22.8186C1.19315 22.7864 0.75 22.2982 0.75 21.7578V1.8149C0.75 1.22748 1.26689 0.713046 1.95136 0.751505L1.81107 22.8186Z" stroke="#554348" stroke-width="1.5"/>
</svg>
