<?xml version="1.0" encoding="UTF-8" standalone="no"?>
<!DOCTYPE svg PUBLIC "-//W3C//DTD SVG 1.1//EN" "http://www.w3.org/Graphics/SVG/1.1/DTD/svg11.dtd">
<svg width="100%" height="100%" viewBox="0 0 21 25" version="1.1" xmlns="http://www.w3.org/2000/svg" xmlns:xlink="http://www.w3.org/1999/xlink" xml:space="preserve" xmlns:serif="http://www.serif.com/" style="fill-rule:evenodd;clip-rule:evenodd;">
    <path d="M14.175,1.78L14.311,2.063L20.25,2.063C20.31,2.063 20.371,2.087 20.42,2.138C20.469,2.189 20.5,2.263 20.5,2.344L20.5,3.906C20.5,3.987 20.469,4.061 20.42,4.112C20.371,4.163 20.31,4.188 20.25,4.188L0.75,4.188C0.69,4.188 0.629,4.163 0.58,4.112C0.531,4.061 0.5,3.987 0.5,3.906L0.5,2.344C0.5,2.263 0.531,2.189 0.58,2.138C0.629,2.087 0.69,2.063 0.75,2.063L6.689,2.063L7.266,0.867L7.119,1.171L7.268,0.862C7.321,0.749 7.402,0.657 7.499,0.594C7.596,0.531 7.706,0.5 7.817,0.5L7.817,0.5L13.177,0.5L13.177,0.5C13.289,0.5 13.4,0.532 13.498,0.596C13.597,0.659 13.679,0.752 13.733,0.865L13.734,0.867L14.175,1.78Z" style="fill:rgb(184,190,221);fill-rule:nonzero;stroke:rgb(85,67,72);stroke-width:1px;"/>
    <path d="M2.06,6.744L19.026,6.744L17.971,22.97C17.971,22.97 17.883,24.5 15.908,24.5L4.749,24.5C4.749,24.5 2.975,24.387 2.975,22.726C2.975,21.064 2.06,6.744 2.06,6.744Z" style="fill:rgb(184,190,221);stroke:rgb(85,67,72);stroke-width:1px;stroke-linecap:round;stroke-linejoin:round;stroke-miterlimit:1.5;"/>
</svg>
